<?xml version="1.0" encoding="utf-8"?>
<!-- Generator: Adobe Illustrator 26.1.0, SVG Export Plug-In . SVG Version: 6.00 Build 0)  -->
<svg version="1.1" id="Layer_1" xmlns="http://www.w3.org/2000/svg" xmlns:xlink="http://www.w3.org/1999/xlink" x="0px" y="0px"
	 viewBox="0 0 100 100" style="enable-background:new 0 0 100 100;" xml:space="preserve">
<style type="text/css">
	.st0{fill:none;stroke:#000000;stroke-width:3;stroke-miterlimit:10;}
</style>
<path class="st0" d="M30.5,73.5L30.5,73.5C25,69.3,24,61.4,28.2,56l21-27.2c4.2-5.5,12.1-6.5,17.5-2.2l0,0
	c5.5,4.2,6.5,12.1,2.2,17.5L48,71.3C43.8,76.7,35.9,77.7,30.5,73.5z"/>
<path d="M38.7,42.4l19.8,15.3l-11,14.2l-1.6,1.3l-2.1,1.6l-2.2,1l-3.1,0.5l-3.8-0.7l-3.4-1.5L29,72.2c0,0-1.1-1.7-1.2-1.8
	c-0.1-0.1-1.4-2.7-1.4-2.7s-0.5-2.5-0.5-2.7s0.1-3.7,0.1-3.9c-0.3-0.7,1.1-3.5,1.1-3.5l1.4-2L38.7,42.4z"/>
</svg>
