<?xml version="1.0" encoding="utf-8"?>
<!-- Generator: Adobe Illustrator 26.1.0, SVG Export Plug-In . SVG Version: 6.00 Build 0)  -->
<svg version="1.1" id="Layer_1" xmlns="http://www.w3.org/2000/svg" xmlns:xlink="http://www.w3.org/1999/xlink" x="0px" y="0px"
	 viewBox="0 0 120 120" style="enable-background:new 0 0 120 120;" xml:space="preserve">
<style type="text/css">
	.st0{fill:none;stroke:#000000;stroke-width:3;stroke-miterlimit:10;}
	.st1{stroke:#FFFFFF;stroke-miterlimit:10;}
	.st2{fill:none;stroke:#FFFFFF;stroke-width:1.2789;stroke-miterlimit:10;}
</style>
<g>
	<circle class="st0" cx="597.9" cy="391.5" r="71"/>
	<circle class="st0" cx="597.9" cy="391.6" r="64.4"/>
</g>
<g>
	<circle class="st0" cx="489.1" cy="-1.2" r="41.3"/>
	<line class="st0" x1="447.8" y1="-1.2" x2="475.1" y2="-1.2"/>
	<line class="st0" x1="503.1" y1="-1.2" x2="530.5" y2="-1.2"/>
</g>
<path d="M60,118L60,118c-13.2,0-23.8-10.6-23.8-23.8V25.8C36.2,12.6,46.8,2,60,2l0,0c13.2,0,23.8,10.6,23.8,23.8v68.4
	C83.8,107.4,73.2,118,60,118z"/>
<g>
	<path d="M622.7,613.1h-34.9c-13.4,0-24.3-10.9-24.3-24.3l0,0c0-13.4,10.9-24.3,24.3-24.3h34.9"/>
	<path d="M628.6,564.4h34.9c13.4,0,24.3,10.9,24.3,24.3l0,0c0,13.4-10.9,24.3-24.3,24.3h-34.9"/>
</g>
<path d="M568.4,98.6l-2.7-2.7c-9.6-9.6-9.6-25.3,0-34.9L587,39.7c9.6-9.6,25.3-9.6,34.9,0l2.7,2.7c9.6,9.6,9.6,25.3,0,34.9
	l-21.3,21.3C593.6,108.2,578,108.2,568.4,98.6z"/>
<g>
	<path class="st0" d="M637.8,534.7c0,31.4-8.1,56.8-37,56.8c-29.9,0-37-25.4-37-56.8s6.6-57.3,37.5-57.3
		C631.3,477.4,637.8,503.3,637.8,534.7z"/>
	<path class="st0" d="M632.3,534.7c0,26.6-6.9,48.2-31.4,48.2c-25.4,0-31.4-21.6-31.4-48.2c0-26.6,5.6-48.7,31.9-48.7
		C626.7,486,632.3,508,632.3,534.7z"/>
</g>
<circle cx="529.1" cy="509.7" r="32.3"/>
<g>
	<path d="M460.7,151.4L460.7,151.4c-7.6,7.6-7.6,19.9,0,27.6l39.6,39.6c7.6,7.6,19.9,7.6,27.6,0l0,0c7.6-7.6,7.6-19.9,0-27.6
		l-39.6-39.6C480.7,143.8,468.3,143.8,460.7,151.4z M526.6,192.2c6.8,6.8,6.8,17.9,0,24.7l-0.1,0.1c-6.8,6.8-17.9,6.8-24.7,0
		l-39.5-39.5c-6.8-6.8-6.8-17.9,0-24.7l0.1-0.1c6.8-6.8,17.9-6.8,24.7,0L526.6,192.2z"/>
	<path class="st1" d="M526.6,216.9l-0.1,0.1c-6.8,6.8-17.9,6.8-24.7,0l-39.5-39.5c-6.8-6.8-6.8-17.9,0-24.7l0.1-0.1
		c6.8-6.8,17.9-6.8,24.7,0l39.5,39.5C533.4,199,533.4,210.1,526.6,216.9z"/>
	<line class="st2" x1="482" y1="197.2" x2="506.8" y2="172.4"/>
</g>
</svg>
