<?xml version="1.0" encoding="utf-8"?>
<!-- Generator: Adobe Illustrator 26.1.0, SVG Export Plug-In . SVG Version: 6.00 Build 0)  -->
<svg version="1.1" id="Layer_1" xmlns="http://www.w3.org/2000/svg" xmlns:xlink="http://www.w3.org/1999/xlink" x="0px" y="0px"
	 viewBox="0 0 120 120" style="enable-background:new 0 0 120 120;" xml:space="preserve">
<style type="text/css">
	.st0{fill:none;stroke:#000000;stroke-width:2.3855;stroke-miterlimit:10;}
	.st1{fill:none;stroke:#000000;stroke-width:3;stroke-miterlimit:10;}
	.st2{stroke:#FFFFFF;stroke-miterlimit:10;}
	.st3{fill:none;stroke:#FFFFFF;stroke-width:1.2789;stroke-miterlimit:10;}
</style>
<g>
	<circle class="st0" cx="60" cy="60" r="56.5"/>
	<circle class="st0" cx="60" cy="60.1" r="51.2"/>
</g>
<g>
	<circle class="st1" cx="397" cy="-155.3" r="41.3"/>
	<line class="st1" x1="355.7" y1="-155.3" x2="383" y2="-155.3"/>
	<line class="st1" x1="411" y1="-155.3" x2="438.4" y2="-155.3"/>
</g>
<path d="M257.2-57.3L257.2-57.3c-13.2,0-23.8-10.6-23.8-23.8v-68.4c0-13.2,10.6-23.8,23.8-23.8l0,0c13.2,0,23.8,10.6,23.8,23.8v68.4
	C281-67.9,270.4-57.3,257.2-57.3z"/>
<g>
	<path d="M622.7,613.1h-34.9c-13.4,0-24.3-10.9-24.3-24.3l0,0c0-13.4,10.9-24.3,24.3-24.3h34.9"/>
	<path d="M628.6,564.4h34.9c13.4,0,24.3,10.9,24.3,24.3l0,0c0,13.4-10.9,24.3-24.3,24.3h-34.9"/>
</g>
<path d="M174.3-106.8l-2.7-2.7c-9.6-9.6-9.6-25.3,0-34.9l21.3-21.3c9.6-9.6,25.3-9.6,34.9,0l2.7,2.7c9.6,9.6,9.6,25.3,0,34.9
	l-21.3,21.3C199.5-97.2,183.9-97.2,174.3-106.8z"/>
<g>
	<path class="st1" d="M637.8,534.7c0,31.4-8.1,56.8-37,56.8c-29.9,0-37-25.4-37-56.8s6.6-57.3,37.5-57.3
		C631.3,477.4,637.8,503.3,637.8,534.7z"/>
	<path class="st1" d="M632.3,534.7c0,26.6-6.9,48.2-31.4,48.2c-25.4,0-31.4-21.6-31.4-48.2c0-26.6,5.6-48.7,31.9-48.7
		C626.7,486,632.3,508,632.3,534.7z"/>
</g>
<circle cx="529.1" cy="509.7" r="32.3"/>
<g>
	<path d="M179.8-206.9L179.8-206.9c-7.6,7.6-7.6,19.9,0,27.6l39.6,39.6c7.6,7.6,19.9,7.6,27.6,0l0,0c7.6-7.6,7.6-19.9,0-27.6
		l-39.6-39.6C199.8-214.5,187.4-214.5,179.8-206.9z M245.7-166.1c6.8,6.8,6.8,17.9,0,24.7l-0.1,0.1c-6.8,6.8-17.9,6.8-24.7,0
		l-39.5-39.5c-6.8-6.8-6.8-17.9,0-24.7l0.1-0.1c6.8-6.8,17.9-6.8,24.7,0L245.7-166.1z"/>
	<path class="st2" d="M245.7-141.4l-0.1,0.1c-6.8,6.8-17.9,6.8-24.7,0l-39.5-39.5c-6.8-6.8-6.8-17.9,0-24.7l0.1-0.1
		c6.8-6.8,17.9-6.8,24.7,0l39.5,39.5C252.5-159.3,252.5-148.2,245.7-141.4z"/>
	<line class="st3" x1="201.1" y1="-161.1" x2="225.9" y2="-185.9"/>
</g>
</svg>
