<?xml version="1.0" encoding="utf-8"?>
<!-- Generator: Adobe Illustrator 26.1.0, SVG Export Plug-In . SVG Version: 6.00 Build 0)  -->
<svg version="1.1" id="Layer_1" xmlns="http://www.w3.org/2000/svg" xmlns:xlink="http://www.w3.org/1999/xlink" x="0px" y="0px"
	 viewBox="0 0 764 780" style="enable-background:new 0 0 764 780;" xml:space="preserve">
<style type="text/css">
	.st0{fill:#FFFFFF;stroke:#1E1E1C;stroke-width:2.4767;}
	.st1{fill:none;stroke:#1E1E1C;stroke-width:0.6192;}
	.st2{stroke:#1E1E1C;stroke-width:0.6192;}
	.st3{stroke:#000000;stroke-width:0.6192;}
	.st4{fill:none;stroke:#000000;stroke-width:0.6192;}
	.st5{font-family:'Arial-BoldMT';}
	.st6{font-size:8.5265px;}
	.st7{fill:#FFFFFF;stroke:#1E1E1C;stroke-width:1.8575;}
	.st8{fill:#1E1E1C;stroke:#1E1E1C;stroke-width:0.6192;}
	.st9{fill:#020203;stroke:#1E1E1C;stroke-width:0.6192;}
	.st10{fill:none;stroke:#020203;stroke-width:0.3096;stroke-miterlimit:10;}
	.st11{font-family:'SpoqaHanSansNeo-Bold';}
	.st12{font-size:7.2717px;}
	.st13{fill:#1E1F1C;stroke:#1E1E1C;stroke-width:0.6192;}
	.st14{font-family:'ArialRoundedMTBold';}
	.st15{font-size:7.4669px;}
	.st16{fill:none;stroke:#1E1E1C;stroke-width:0.25;}
	.st17{stroke:#1E1E1C;stroke-width:0.25;}
	.st18{fill:#FFFFFF;stroke:#020203;stroke-width:1.8575;stroke-miterlimit:10;}
	.st19{fill:none;stroke:#020203;stroke-width:0.6192;stroke-miterlimit:10;}
	.st20{fill:none;stroke:#020203;stroke-width:0.25;stroke-miterlimit:10;}
	.st21{stroke:#020203;stroke-width:0.25;stroke-miterlimit:10;}
	.st22{fill:#030304;stroke:#020203;stroke-width:0.6192;stroke-miterlimit:10;}
	.st23{fill:#FFFFFF;stroke:#020203;stroke-width:0.6192;stroke-miterlimit:10;}
	.st24{fill:none;stroke:#1E1E1C;stroke-width:0.3695;}
	.st25{fill:none;stroke:#1E1E1C;stroke-width:0.3096;}
	.st26{fill:none;stroke:#1E1E1C;stroke-width:0.7579;}
	.st27{fill:#FFFFFF;stroke:#1E1E1C;stroke-width:1.7412;}
	.st28{fill:none;stroke:#1E1E1C;stroke-width:0.4331;}
	.st29{fill:#1E1E1C;stroke:#1E1E1C;stroke-width:0.5804;stroke-miterlimit:4;}
	.st30{fill:#1E1E1C;stroke:#1E1E1C;stroke-width:0.5804;}
	.st31{fill:#1E1E1C;}
	.st32{fill:#FFFFFF;stroke:#1E1E1C;stroke-width:0.2902;stroke-miterlimit:10;}
	.st33{fill:#FFFFFF;stroke:#1E1E1C;stroke-width:0.2902;}
	.st34{fill:#FFFFFF;stroke:#1E1E1C;stroke-width:0.2902;stroke-miterlimit:4.0002;}
	.st35{fill:#FFFFFF;stroke:#1E1E1C;stroke-width:0.5804;}
	.st36{fill:#1E1F1C;stroke:#1E1E1C;stroke-width:0.6858;}
</style>
<g>
	<path class="st0" d="M90.1,345.5l0.6-208.9c0,0,1.1-1.7,2.6-3.2V131l265.5-0.4l16.6,10.8L373,359l-259.3,9L90.1,345.5z"/>
	<polyline class="st1" points="375.4,141.3 113.3,141.1 113.7,368.1 	"/>
	<path class="st1" d="M113.3,141.1c0,0-8.6-12-18.6-7.4l-1.6,1.3L113.3,141.1z"/>
	<line class="st1" x1="338.2" y1="360.3" x2="338.2" y2="141.3"/>
	<polygon class="st1" points="328.7,155.9 328.7,166.3 375.1,165.8 375.3,155.3 	"/>
	<rect x="131.7" y="153.2" class="st2" width="3.2" height="14.1"/>
	<path class="st2" d="M142,153.2l-5.9,5.5c0,0-1.1,1.5,0,2.9l6.3,5.6h3.7l-7.4-6.6c0,0-0.7-0.7,0-1.5s6.9-6,6.9-6H142z"/>
	<path class="st2" d="M147,153.2V166c0,0,0,1,1.2,1.3h10.3v-2.5h-8.8v-11.5H147z"/>
	<rect x="159.3" y="153.2" class="st2" width="3.3" height="14.1"/>
	<path class="st2" d="M164.8,167.2v-13.1c0,0,0-1.4,2.1-1.4c1.7,0,2.2,0.9,2.2,0.9l6.7,10.1c0,0,0.5,0.6,0.7,0v-10.9h2.6v13.1
		c0,0-0.2,1.4-2.3,1.4c-1.5,0-2.4-1.5-2.4-1.5l-6.5-9.9c0,0-0.4-0.4-0.7,0v11.3H164.8z"/>
	<rect x="181.3" y="152.7" class="st2" width="2.6" height="14"/>
	<polygon class="st2" points="185.1,152.7 188.2,152.7 192,158 195.8,152.7 198.8,152.7 194.1,159.7 199.6,166.7 195.9,166.7 
		192.1,161.4 188.5,166.7 184.8,166.7 190.2,159.7 	"/>
	<polygon class="st3" points="131.7,203.8 131.7,198.9 135.9,198.9 135.9,203.8 140.7,203.8 140.7,208 135.8,208 135.8,213.1 
		131.7,213.1 131.7,208 126.6,208 126.6,203.7 	"/>
	<path class="st4" d="M131.6,197.7v-5h11.1c0,0,5.2,0.3,5.2,7.8s-6.2,7.2-6.2,7.2v-4.7c0,0,1.7-0.6,1.7-3.2S141,197,141,197h-4.9
		v0.8L131.6,197.7z"/>
	<polygon class="st4" points="150.3,211.7 154.7,211.7 154.7,203.7 162.6,203.7 162.6,211.7 166.9,211.7 166.9,191.9 162.5,191.9 
		162.5,200.1 154.5,200.1 154.5,191.9 150.3,191.9 	"/>
	<polygon class="st4" points="168.6,191.9 176.1,203.7 176.1,211.7 180.5,211.7 180.5,203.6 187.6,191.9 182.9,191.9 178.1,199.6 
		173.5,191.9 	"/>
	<polygon class="st4" points="188.9,191.9 188.9,195.6 194.5,195.6 194.5,211 194.5,211.7 198.9,211.7 198.9,195.5 204.2,195.5 
		204.2,191.9 	"/>
	<path class="st4" d="M215.2,191.4c-5.5,0-9.9,4.6-9.9,10.2s4.4,10.2,9.9,10.2c5.5,0,9.9-4.6,9.9-10.2S220.6,191.4,215.2,191.4z
		 M215.2,207.8c-3.3,0-6-2.8-6-6.2c0-3.4,2.7-6.2,6-6.2s6,2.8,6,6.2C221.1,205,218.5,207.8,215.2,207.8z"/>
	<polygon class="st4" points="227.8,210.5 227.8,191 232,191 237,199.2 242.3,191 246.7,191 246.7,210.5 242.2,210.5 242.2,198.2 
		237.2,206.3 231.9,198.3 231.9,210.5 	"/>
	<path class="st4" d="M260,190.8h-4.3l-7.9,19.7h4.7l1.7-4.9h7l1.7,4.9h4.5L260,190.8z M254.9,202.1l2.7-5.9l2.8,5.9H254.9z"/>
	<polygon class="st4" points="268.6,190.8 273.2,190.8 277.2,196.9 281.3,190.8 285.7,190.8 279.6,200 286.9,210.5 281.3,210.5 
		277.2,203.1 273.3,210.5 268.4,210.5 274.9,200 	"/>
	<path class="st4" d="M146.3,222.7l2.3-2.5c0,0-7-7.3-15-0.2s1.3,25.4,15,14.5l-2.3-2.7c0,0-6.1,5.8-10.7-0.3
		C131,225.2,139.2,215.4,146.3,222.7z"/>
	<polygon class="st4" points="149.7,222.1 153,222.1 156.2,226.9 160,222.1 163.4,222.1 158.2,229.4 163.4,237.1 159.7,237.1 
		156.3,231.8 153.2,237.1 149.1,237.1 154.4,229.6 	"/>
	<path class="st4" d="M177.5,232.7l2.2-3.6l-1.6-1.4l-2.2,3.1c-0.9-1.6-2.4-2.5-2.4-2.5c2-0.6,2.9-2.7,2.9-2.7
		c2.3-3.9-3-8.4-6.4-4.8c-3.3,3.6-0.2,6.6-0.2,6.6c-6.2,3.2-2.7,9.7,0.9,9.7c3.6,0,5.3-2.6,5.3-2.6l2.3,2.6l1.8-1.8L177.5,232.7z
		 M170.9,223.6c0.8-2.5,3.1-2.1,3.3-0.7c0.3,1.4,0.5,3.6-2,3.7C172.3,226.6,170.2,226.2,170.9,223.6z M172.2,234.9
		c-1,0.1-3.1,0.1-3.3-2.6c-0.3-2.7,2.2-3.1,2.2-3.1l2.8,2.7C175.7,233.6,173.2,234.8,172.2,234.9z"/>
	<polygon class="st4" points="184.5,216.8 184.5,236.5 197.3,236.5 197.3,233.1 187.6,233.1 187.6,216.8 	"/>
	<polygon class="st4" points="198.5,221.4 202.3,221.4 205.3,226.1 208.6,221.4 211.6,221.4 207.1,228.7 212.2,236.5 208.9,236.5 
		205.3,231.1 201.9,236.5 198.3,236.5 203.4,229 	"/>
	<polygon class="st3" points="256.5,231.1 256.5,235.8 308.3,219.7 308.3,215.3 	"/>
	<circle class="st4" cx="254.2" cy="246.2" r="4"/>
	<polyline class="st4" points="278.4,264.8 312.1,254.6 332,262.9 	"/>
	<polyline class="st4" points="309.8,329.7 279.6,295.7 275.6,269.1 	"/>
	<polyline class="st4" points="365,250.2 348.5,296.1 314.5,329.9 	"/>
	<polyline class="st4" points="258,245 313.1,227.4 363.7,246.1 	"/>
	<polyline class="st4" points="309.7,312.1 291.9,291.4 289.9,277.7 	"/>
	<polyline class="st4" points="351,259.2 338.2,290.1 314.6,312.5 	"/>
	<polyline class="st4" points="261.7,256.4 312.7,242.2 349.4,254.9 	"/>
	<polyline class="st4" points="309.9,346.5 270.1,303.7 259.2,261.1 	"/>
	<line class="st4" x1="352.4" y1="305.4" x2="314.2" y2="346.6"/>
	<circle class="st4" cx="366.6" cy="247.4" r="3.4"/>
	<circle class="st4" cx="352.4" cy="256" r="3.4"/>
	<circle class="st4" cx="334.5" cy="265.3" r="3.4"/>
	<circle class="st4" cx="275.1" cy="266" r="3.4"/>
	<circle class="st4" cx="258.8" cy="257.9" r="3.4"/>
	<circle class="st4" cx="289.3" cy="274.4" r="3.4"/>
	<circle class="st4" cx="312" cy="314.4" r="3.4"/>
	<circle class="st4" cx="354.3" cy="302.8" r="3.4"/>
	<circle class="st4" cx="312" cy="332" r="3.4"/>
	<circle class="st4" cx="312" cy="348.9" r="3.4"/>
	<polygon class="st3" points="313.1,227.4 313.1,231.6 363.3,248.3 363.3,246.6 364.2,245.1 	"/>
	<polygon class="st3" points="312.7,242.2 312.7,246.1 349.6,257.9 349,256.7 349,255.4 349.6,254.1 	"/>
	<polygon class="st3" points="278,300.2 282.2,296.7 276.6,269.2 275.5,269.7 274.3,269.4 273,268.7 	"/>
	<polygon class="st3" points="257.3,261.1 267.8,306.3 272.2,304.2 260.9,260.5 259.8,261.1 258.8,261.3 	"/>
	<polygon class="st3" points="311.3,328.6 344.5,295 348,296.7 314.7,329.7 314,329.3 312.7,328.7 	"/>
	<polygon class="st3" points="321.4,346.8 324.7,348.6 350.5,323 346,321.7 	"/>
	<polygon class="st3" points="264.7,317.8 269.2,316.2 301.3,347.6 297.9,350.1 	"/>
	<line class="st3" x1="131.6" y1="271" x2="236.3" y2="268.7"/>
	<text transform="matrix(0.9997 -2.525000e-02 2.525000e-02 0.9997 132.3244 254.9579)"><tspan x="0" y="0" class="st5 st6">Supplement for </tspan><tspan x="0" y="10.2" class="st5 st6">Cancer Management</tspan></text>
</g>
<g>
	<polygon class="st7" points="303.4,290.5 307.6,288.4 458.8,281.5 480.4,290.5 481.7,292.9 482,522.1 477.8,525.1 331.3,536 
		328.1,536 303.4,518.7 	"/>
	<g>
		<path class="st1" d="M328.1,536l-0.8-238.8c-15.4-8-24-6.7-24-6.7s12.6-3.3,24,6.7l153.1-6.7l0.2,232.6"/>
		<line class="st1" x1="327.3" y1="344.6" x2="480.5" y2="337.4"/>
		<path class="st1" d="M327.5,348.9l153-7.9L327.5,348.9z"/>
		<rect x="342.2" y="312.1" class="st8" width="3.1" height="13.9"/>
		<rect x="371.6" y="311" class="st8" width="3.1" height="13.9"/>
		<rect x="394.8" y="310.2" class="st8" width="3.1" height="13.9"/>
		<path class="st8" d="M352.8,311.5l-6.1,6.2c0,0-1.2,1.6,0,2.5c1.2,0.9,7.3,5.8,7.3,5.8h3.9l-8.3-6.3c0,0-1.6-0.7-0.3-2.1
			c1.3-1.4,1.3-1.4,1.3-1.4l5.6-4.7H352.8z"/>
		<path class="st8" d="M358.4,311.5h2.8v10.8c0,0,0,1.1,1,1.1c1.3,0,8.4,0,8.4,0v1.8h-10.9c0,0-1.3,0-1.3-1.9
			C358.4,321,358.4,311.5,358.4,311.5z"/>
		<path class="st8" d="M377,324.6h3.1v-10.1c0,0-0.1-1.5,1.1,0c1.1,1.5,1.1,1.5,1.1,1.5l0,0l5.5,7.7c0,0,0.5,0.9,1.9,0.9
			s2.2-0.7,2.2-1.7c0-1,0-12.7,0-12.7h-2.8v9.7c0,0,0.2,1.8-1.2-0.1c-1.4-1.9-6.3-8.9-6.3-8.9s-0.4-0.8-2.2-0.8
			c-1.6,0-2.4,0.5-2.4,1.3s0,0.8,0,0.8V324.6z"/>
		<polygon class="st8" points="398.9,310 402.1,309.9 413.1,323.2 409.7,323.3 		"/>
		<polygon class="st8" points="412.8,309.7 409.5,309.8 399.1,323.5 402.5,323.4 		"/>
		<polygon class="st8" points="340,356.8 340,362.8 333.2,362.8 333.2,368.4 340,368.4 340,374 345.3,374 345.3,367.8 351.2,368 
			351.2,363 345.3,363 345.3,356.8 		"/>
		<rect x="340.1" y="376" class="st1" width="6.1" height="13.2"/>
		<polygon class="st1" points="347.3,369.9 347.3,374.4 357.9,389.2 363.1,389.2 363.1,362.5 357.9,362.5 357.9,378.8 350.3,369.5 
					"/>
		<polygon class="st1" points="385.8,361.3 367.7,362.5 367.7,388 386.5,387.5 386.5,382.4 372.9,382.8 373,377.3 384.6,376.9 
			384.5,371.9 372.9,372.2 372.9,367 386.2,366.4 		"/>
		<path class="st1" d="M388.9,361.3h5.7l0.2,17.3c0,0,0.5,3.3,4.6,3.3s4.9-2.2,5.2-3.4c0.3-1.2,0-17.8,0-17.8h5.5v17.6
			c0,0,0,9-9.9,9s-11.1-6.5-11.1-8C389.1,377.8,388.9,361.3,388.9,361.3z"/>
		<path class="st1" d="M413.9,359.8l0.2,26.2h5.4v-8.2l0.2-0.7h3.8l5.1,8h6.3l-5.8-8.9c0,0-0.5-0.4,0.5-0.7s4.6-1.2,4.6-8.8
			c0-7.6-7.9-7.1-9.4-7.1C423.3,359.5,413.9,359.8,413.9,359.8z"/>
		<path class="st1" d="M419.3,364.8v7.3h6.3c0,0,3.1,0.1,3.1-3.6c0-3.8-3.3-3.6-3.3-3.6H419.3z"/>
		<path class="st1" d="M449.8,363c0,0-8.1-0.4-8.1,8.3c0,8.7,7.7,7.9,7.7,7.9s6.8,0.4,6.8-8.1S449.8,363,449.8,363z"/>
		<path class="st1" d="M449.7,357.9c0,0-10.4-0.9-13,10.5c-2.6,11.4,6.8,15.6,9.9,16.1c3.4,0.5,12.6,0.9,14.7-11.4
			C463.6,360.3,452.5,357.7,449.7,357.9z"/>
		<rect x="463.4" y="369.1" class="st1" width="10.4" height="5"/>
		<path class="st1" d="M363.1,398c0,0-7.2-7-17.6-0.7c-10.5,6.4-6.5,21.1,1.8,23.8c5.8,1.8,10.9,1,16.8-3.7v-11.2l-10.8,0.1l0.1,4.8
			l4.7-0.1l0.1,3.7c0,0-5.9,4.9-10.9-1.1c-5-6,0.1-13.7,7.1-13.5c2.4,0.1,5.7,2.1,5.7,2.1L363.1,398z"/>
		<polygon class="st1" points="386.5,393.6 367.7,394.7 367.7,420.6 386.5,419.8 386.5,414.8 372.9,415.1 372.9,409.7 385,409.2 
			385,404.1 373.2,404.4 373.2,399.3 386.5,398.5 		"/>
		<polygon class="st1" points="389.8,419.2 389.8,393.2 395.3,393.2 406.5,408.3 406.5,392.6 412.1,392.6 412.1,418.1 407.3,418.3 
			395.4,402.8 395.5,419.2 		"/>
		<polygon class="st1" points="416.6,391.9 421.9,391.9 421.9,417.3 416.6,417.6 		"/>
		<path class="st1" d="M444,397.8c0,0-9.2-6.3-12.7,3.4c-3.4,9.4,7.9,13.6,12.7,7.5l3.7,3.3c0,0-7.3,9.6-17.8,2.6
			c-9.3-6.2-3.5-33.1,17.4-21.1L444,397.8z"/>
		<path class="st1" d="M468,392l-2.6,4c0,0-7-4.8-9-1.1c-1.9,3.6,3.2,4.5,7,5.2c3.7,0.7,6.9,4.6,5,10c-1.9,5.3-9.7,8.3-18.4,1.9
			l3.1-4.1c0,0,6.6,5.4,9.6,1.4c2.5-3.5-3.2-4.5-4.6-4.6c-1.4-0.1-7.9-1.2-7.6-7.9c0.3-6.6,5.8-8.7,10.3-7.7
			C465.3,390.2,468,392,468,392z"/>
		<polygon class="st1" points="480.4,299 444.2,300.1 444.2,307.9 480.4,306.8 		"/>
		<line class="st1" x1="451.9" y1="307.7" x2="451.9" y2="299.8"/>
		<polygon class="st1" points="447.1,301.6 447.1,303.2 445.6,303.2 445.6,304.9 447.1,304.9 447.1,306.6 449,306.6 449,304.9 
			450.4,304.9 450.4,303.1 448.8,303.1 448.9,301.6 		"/>
		<polygon class="st1" points="416.6,451.3 434.2,434.5 451.7,432.4 473.8,433.1 480.5,437.9 480.5,443.5 480.5,484.3 473.8,487.5 
			472.1,497.2 466.3,492.9 461.7,484.7 452.3,478.9 443.3,478.5 435,475.3 426.8,476.3 415.8,464.8 		"/>
		<path class="st1" d="M415.8,464.8l18.3-30.1c0-0.1,0.1-0.1,0.1,0l13.9,27.2l4.2,16.9c0,0,0,0,0,0l9.3-9.7l2.8-23.8l16-1.8v-2.2
			l-28.8-9l23.4,24.2l5.4,10v9.6l-18.7,8.5c-0.1,0,0,0.1,0,0.1l13.2,2c0.2,0,0.3-0.1,0.3-0.3l-1.5-53.2c0,0,0-0.1-0.1-0.1
			l-57.2,18.1l47.9-6"/>
		<line class="st1" x1="435" y1="475.3" x2="434.2" y2="434.5"/>
		<line class="st1" x1="480.5" y1="452.3" x2="461.7" y2="469.1"/>
		<polyline class="st1" points="475.2,478.5 447.7,461 444.4,478.5 		"/>
		<polyline class="st1" points="416.1,465.1 447.7,461 474.5,456.4 		"/>
		<line class="st1" x1="464.5" y1="445.3" x2="447.7" y2="461"/>
		<line class="st1" x1="461.7" y1="484.7" x2="461.2" y2="469.6"/>
		<line class="st1" x1="475.4" y1="486.7" x2="480.6" y2="479"/>
		<circle class="st9" cx="434.6" cy="434.5" r="1.3"/>
		<circle class="st9" cx="451.7" cy="431.9" r="1.3"/>
		<circle class="st9" cx="474.9" cy="456.4" r="1.3"/>
		<circle class="st9" cx="464.1" cy="445.7" r="1.3"/>
		<circle class="st9" cx="447.9" cy="461" r="1.3"/>
		<circle class="st9" cx="441.3" cy="448.5" r="1.3"/>
		<circle class="st9" cx="416.8" cy="451.1" r="1.3"/>
		<circle class="st9" cx="435" cy="475.3" r="1.3"/>
		<circle class="st9" cx="415.8" cy="465.6" r="1.3"/>
		<circle class="st9" cx="461.4" cy="469.6" r="1.3"/>
		<circle class="st9" cx="462.1" cy="485" r="1.3"/>
		<circle class="st9" cx="475.2" cy="478.5" r="1.3"/>
		<circle class="st9" cx="475.5" cy="486.8" r="1.3"/>
		<circle class="st9" cx="471.9" cy="496.9" r="1.3"/>
		<text transform="matrix(0.9985 -5.540000e-02 5.540000e-02 0.9985 340.8528 448.1905)"><tspan x="0" y="0" class="st10 st11 st12">Managem ent of</tspan><tspan x="0" y="8.7" class="st10 st11 st12">Neurobehavioral </tspan><tspan x="0" y="17.5" class="st10 st11 st12">Disorders</tspan></text>
	</g>
</g>
<g>
	<path class="st7" d="M35,354.8c0,0,1.4-4.2,6.2-4.8l149.4-0.2l23.4,13.2l-0.8,230.2c0,0-0.4,2.6-2.6,3L63.7,602L35,583V354.8z"/>
	<path class="st1" d="M63.1,360.5c0,0-17-13.4-25.4-7.6L63.1,360.5z"/>
	<polyline class="st1" points="63.7,602 63.1,360.5 213.9,362.9 	"/>
	<line class="st1" x1="182.2" y1="378" x2="182.7" y2="597.3"/>
	<line class="st1" x1="182.1" y1="362.4" x2="182.2" y2="369.9"/>
	<line class="st1" x1="212.9" y1="362.9" x2="212.3" y2="594.9"/>
	<line class="st1" x1="35" y1="354.8" x2="62.1" y2="361.5"/>
	<polygon class="st1" points="178.1,369.9 178.1,378 182.2,378 212.9,378 212.9,369.9 182.2,369.9 	"/>
	<line class="st1" x1="185.6" y1="378" x2="185.6" y2="369.9"/>
	<rect x="78.5" y="372.6" class="st9" width="2.7" height="14.6"/>
	<path class="st9" d="M89.1,372.6l-6.7,6.2c0,0-0.9,1.4,0,2.3s7.3,6.4,7.3,6.4h3.7l-7.9-6.8c0,0-1-0.6-0.2-1.5
		c0.8-0.8,7.1-6.6,7.1-6.6H89.1z"/>
	<path class="st9" d="M94,372.6h3.1v12.5h9.7v2.2H95.3c0,0-1.3,0-1.3-1.6S94,372.6,94,372.6z"/>
	<polygon class="st9" points="107.4,372.6 110.6,372.6 110.6,387.2 107.5,387.2 	"/>
	<path class="st9" d="M113.1,387.2v-12.7c0-0.7,0.2-1,0.6-1.4c0.3-0.3,0.8-0.5,1.4-0.5c0.6,0,1.3,0,1.7,0.6l7.8,10.9
		c0,0,0.4,0.5,0.8,0v-11.2h2.6v13.4c0,0-0.3,1.4-2.1,1.4s-2.3-1.1-2.3-1.1l-7-10.2c0,0-0.5-0.6-0.8,0.1v10.8H113.1z"/>
	<rect x="130.4" y="372.6" class="st9" width="2.9" height="14.8"/>
	<polygon class="st9" points="134.4,372.6 137.6,372.6 149.5,387.4 145.9,387.4 	"/>
	<polygon class="st9" points="145.7,372.6 134.2,387.6 137.7,387.6 149,372.6 	"/>
	<polygon class="st9" points="78.3,410.9 83.2,410.9 83.2,414.1 86.5,414.1 86.5,419.4 83.3,419.4 83.3,422.6 78.3,422.6 
		78.3,419.3 74.6,419.3 74.6,414.3 78.4,414.3 	"/>
	<path class="st1" d="M78.3,424.1h5.1v10.1h5c0.8,0,1.6-0.2,2.3-0.7c1.6-1,4-3.1,4-6.5c0-5.1-3.5-7.9-6.7-7.9v-4.9
		c0,0,11.5,0.7,11.5,12.5c0,6.1-3.2,9.2-6.1,10.8c-1.8,1-3.9,1.5-6,1.5l-9.2,0.2V424.1z"/>
	<path class="st1" d="M101.1,414.2h4.9v15.6c0,0,0.3,4.8,5,4.8c4.7,0,5-4.7,5-4.7v-15.7h4.7v16.7c0,0,0.5,8.6-9.8,8.6
		s-9.8-9.3-9.8-9.3V414.2z"/>
	<ellipse class="st1" cx="134.1" cy="426.2" rx="6.9" ry="7.8"/>
	<ellipse class="st1" cx="134" cy="426.3" rx="11.8" ry="12.7"/>
	<polygon class="st1" points="95.8,445.5 78.3,445.5 78.3,470.3 83.4,470.3 83.4,460.5 94.5,460.5 94.5,455.7 83.2,455.7 
		83.2,450.3 95.8,450.3 	"/>
	<polygon class="st1" points="97.6,445.5 102.6,445.5 102.6,465 114,465 114,469.9 97.6,469.9 	"/>
	<polygon class="st1" points="132.5,445.5 116,445.5 116,469.9 132.5,469.9 132.5,465 120.2,465 120.2,459.5 130.9,459.5 
		130.9,454.9 120.3,454.9 120.3,449.9 132.5,449.9 	"/>
	<polygon class="st1" points="135,445.2 140.5,445.2 144.9,452.9 149.8,445.2 154.8,445.2 148,456.7 155.7,469.2 149.8,469.2 
		145.4,460.9 139.9,469.9 134.1,469.9 142.1,457.1 	"/>
	<line class="st1" x1="78.3" y1="505.4" x2="155.7" y2="503.8"/>
	<path class="st1" d="M213.5,462.7c0,0-4.7,7.2-14.6,5.5c-9.9-1.7-17.8,13-14.2,23s11.6,9.5,11.6,9.5s0.8,15.2,17.1,12.5"/>
	<path class="st1" d="M175.7,521.6c0,0-2.9-3.2-6.7-3.3s-3.3-11.3,1.6-17.6s6.7-10.5,11.8-3.3s9.3,5.3,10.7,9.5
		c1.3,4.1,6.4,6,4.5,9.6c-1.9,3.6-3.2,6.1-8.5,2.8S175.8,520.6,175.7,521.6z"/>
	<path class="st1" d="M172.6,597.7l-2.7-45.4c0,0-3.3-4.8-4.9-6.4s-4.9-2.1-3.7-10.9c1.2-8.8,4.5-13.2,9.9-9.3c5.3,3.9,9.5-0.9,11-2
		c1.5-1.1,5.7-0.1,8.7,2.8c3.1,2.9,7.2-8.5,11.8-4.3c4.7,4.3,6.7,11,5.3,15.3c-1.3,4.3-8.9,10.6-8.3,15.3c0.7,4.7-2.7,43.9-2.7,43.9
		L172.6,597.7z"/>
	<polyline class="st1" points="213.5,469 208.4,479.4 196.3,500.7 212.6,501.2 	"/>
	<polyline class="st1" points="213.5,477.9 208.4,479.4 187.8,496.6 192.2,487.7 195,479.9 194.4,468.5 208.4,479.4 208.4,513.5 
		212.6,509.4 	"/>
	<polyline class="st1" points="213.5,482.9 208.4,479.4 195.4,479.8 184.4,481.3 208.4,501.2 212.6,497.7 	"/>
	<polyline class="st1" points="194.4,468.5 211.8,472.4 213.5,472.4 	"/>
	<polyline class="st1" points="193,520.7 193,506.3 178.1,501.9 166.7,510.8 197.8,515.9 	"/>
	<polyline class="st1" points="178.9,493.8 178.1,501.9 175.7,521.6 193,506.3 	"/>
	<line class="st1" x1="171.2" y1="499.9" x2="178.1" y2="501.9"/>
	<polyline class="st1" points="196.3,596.7 189.1,555.9 170.9,568.9 	"/>
	<line class="st1" x1="161.1" y1="536.4" x2="174.7" y2="527.1"/>
	<line class="st1" x1="191.5" y1="526.9" x2="182.7" y2="543.2"/>
	<line class="st1" x1="169.9" y1="552.3" x2="207.1" y2="528.4"/>
	<polyline class="st1" points="171.7,582.5 198.8,575.1 174.7,527.1 169.9,552.3 199.7,559.5 191.5,526.9 207.1,528.4 171.7,582.5 
		191.2,596.9 	"/>
	<line class="st1" x1="176.9" y1="597.3" x2="193" y2="576.7"/>
</g>
<g>
	<path class="st7" d="M512.5,162.2c0,0,0.9-2.5,3.9-3.1c2.9-0.5,144.2-6,144.2-6l28.4,10.8l-0.3,214.9c0,0-0.7,2-2.5,2.3
		s-134.9,11.3-134.9,11.3s-4.9,0.1-7.1-1.5s-30.4-17-30.4-17s-0.5,0.1-0.4-4.1S512.5,162.2,512.5,162.2z"/>
	<path class="st1" d="M514.8,160.8c0,0,6-2,17.2,0s16.4,8.1,16.4,8.1L514.8,160.8z"/>
	<polyline class="st1" points="549.4,391.1 548.3,169 688.9,163.9 	"/>
	<line class="st1" x1="548.6" y1="217.7" x2="688.8" y2="210.6"/>
	<line class="st1" x1="548.9" y1="222.1" x2="688.9" y2="214.2"/>
	<rect x="561.8" y="187" class="st13" width="2.7" height="12.8"/>
	<path class="st13" d="M571.6,186.3l-5.5,5.5c0,0-1.4,1.4,0,2.7c1.8,1.6,6.1,5.3,6.1,5.3h3.2l-7.3-5.9c0,0-1-0.7-0.1-1.6
		c0.9-0.9,6.2-6,6.2-6H571.6z"/>
	<path class="st13" d="M576.2,186.3h2.5v10.8h8.6v1.9h-10.2c0,0-0.9-0.1-0.9-1.1S576.2,186.3,576.2,186.3z"/>
	<rect x="588.1" y="185.8" class="st13" width="2.8" height="13.2"/>
	<path class="st13" d="M593.5,198.6v-11.7c0-0.6,0.2-1.2,0.7-1.5c0.3-0.3,0.8-0.4,1.3-0.4c0.6,0.1,1.2,0.5,1.5,1l6.9,9.6
		c0,0,0.6,0.5,0.6-0.2c0-0.8,0-10.4,0-10.4h2.2V197c0,0.6-0.3,1-0.8,1.4c-0.4,0.4-1.7,0.3-2.3-0.1c-0.5-0.3-0.9-0.7-1.2-1.2
		c-1.1-1.6-4.6-6.8-6-8.7c-0.1-0.2-0.8-0.5-0.8,0c0,0.7,0,10.2,0,10.2H593.5z"/>
	<rect x="609.1" y="185" class="st13" width="2.4" height="13.1"/>
	<polygon class="st13" points="612.6,184.6 615.5,184.6 619.2,189.5 622.8,183.9 625.5,183.9 620.7,190.9 626.2,197.4 622.9,197.4 
		619.4,192.4 615.7,197.6 612.6,197.6 617.8,190.8 	"/>
	<polygon class="st13" points="562,231.1 562,234.5 558.7,234.5 558.7,239.7 562,239.7 562,243 567.2,243 567.2,239.2 570.5,239.2 
		570.5,234.4 567.1,234.4 567.1,231.1 	"/>
	<rect x="562.1" y="244.4" class="st1" width="5.1" height="14.7"/>
	<polygon class="st1" points="568.6,240.6 568.6,245.4 572.1,250.5 575.4,250.5 580,242.4 580,258.4 585.3,258.4 585.3,233.3 
		579.7,233.3 573.8,244.1 571.2,240.6 	"/>
	<polygon class="st1" points="587.6,232.9 604.2,232.6 604.2,237.2 592.3,237.5 592.3,242.5 603,242.3 603,246.9 592.3,247.2 
		592.3,252.7 604.6,252.4 604.6,257.3 587.6,258.1 	"/>
	<path class="st1" d="M622.9,238.1l3-4c0,0-8.9-7.5-17.1,1.3s0.6,31.1,17.6,16.9v-10.7l-9.3,0.4l0.1,4.3l4.7-0.1v3.8
		c0,0-6.8,5.8-10.5-2.3S616.2,232.7,622.9,238.1z"/>
	<polygon class="st1" points="636.8,230.2 627.5,255.2 632.6,255.2 634.6,249.3 643.4,249 645.6,254.1 650.6,253.9 641.1,230.2 	"/>
	<polygon class="st1" points="639.1,237 636,244 641.8,244 	"/>
	<rect x="651" y="237.9" class="st1" width="9.4" height="4.8"/>
	<path class="st1" d="M562.1,264.6v4.7h8.9l-4.9,5.6l-0.5,0.6l0.9,3.4c0,0,6.8-1.1,6.7,2.5c-0.1,3.6-4.9,5-8.6,1.1l-3.5,3.7
		c0,0,4.8,6.7,13.4,2.5c7.8-3.8,3.5-15.1-2.3-14.2l6.1-6.1l-0.2-4.2L562.1,264.6z"/>
	<polygon class="st1" points="577.8,289 589.4,263.3 600.7,287.5 594.4,287.9 589.3,277.5 584.4,289 	"/>
	<polygon class="st1" points="589.3,280.9 586.8,286 592.2,286 	"/>
	<path class="st1" d="M562.1,348.2l83.8-6.6L562.1,348.2z"/>
	<polygon class="st1" points="659.9,256.9 639.8,268.8 629.4,291.6 634.1,315 644.6,326.8 664.5,332.7 682.9,326.3 688.7,319.8 
		688.7,266.1 681.3,259.2 	"/>
	<polyline class="st1" points="688.7,279.8 686.9,284.1 680.4,289.7 665.6,299.7 658.2,304.7 643.6,312.2 634.1,315 635,308.1 
		634.1,298.9 645.9,292.8 653.8,274.4 	"/>
	<polyline class="st1" points="639.8,268.8 654.4,266.1 667.1,262.1 675.5,259.2 681.3,259.2 682,268.8 677.2,276.9 673.1,294.8 	
		"/>
	<polyline class="st1" points="688.7,270.1 682,268.8 667.1,262.1 653.8,274.4 654.4,266.1 659.9,256.9 667.1,262.1 677.2,276.9 
		688.9,272.7 	"/>
	<polyline class="st1" points="637.4,279.6 664.3,285.2 653.8,274.4 	"/>
	<line class="st1" x1="677.2" y1="276.9" x2="664.3" y2="285.2"/>
	<polyline class="st1" points="645.9,292.8 644.3,301.1 643.6,312.2 644.6,326.8 656.6,321 	"/>
	<polyline class="st1" points="658.2,304.7 656.6,321 664.5,332.7 670.7,327.4 672.9,312.6 675.5,303.8 685.4,301.3 688.8,298.9 	
		"/>
	<polyline class="st1" points="665.6,299.7 652.4,293.2 658.2,304.7 644.3,301.1 634.1,298.9 636.7,283.3 629.4,291.6 643.6,312.2 
		656.6,321 672.9,312.6 686.9,315.3 685.4,301.3 686.9,284.1 677.2,276.9 653.8,274.4 637.4,279.6 645.9,292.8 652.4,293.2 
		664.3,285.2 673.1,294.8 665.6,299.7 675.5,303.8 686.9,315.3 682.9,326.3 670.7,327.4 682,321.2 686.9,315.3 688.7,315.3 	"/>
	<line class="st1" x1="658.2" y1="304.7" x2="672.9" y2="312.6"/>
	<circle class="st13" cx="636.4" cy="283.1" r="1"/>
	<circle class="st13" cx="639.8" cy="268.7" r="1"/>
	<circle class="st13" cx="638" cy="279.5" r="1"/>
	<circle class="st13" cx="652.4" cy="293.2" r="1"/>
	<circle class="st13" cx="664.3" cy="285.2" r="1"/>
	<circle class="st13" cx="686.7" cy="283.8" r="1"/>
	<circle class="st13" cx="686.7" cy="315" r="1"/>
	<circle class="st13" cx="672.9" cy="312.6" r="1"/>
	<circle class="st13" cx="634.3" cy="298.9" r="1"/>
	<circle class="st13" cx="629.4" cy="291.5" r="1"/>
	<circle class="st13" cx="653.6" cy="274.7" r="1"/>
	<circle class="st13" cx="645.7" cy="292.6" r="1"/>
	<circle class="st13" cx="667.2" cy="262.2" r="1"/>
	<circle class="st13" cx="677.2" cy="276.9" r="1"/>
	<circle class="st13" cx="682" cy="268.2" r="1"/>
	<circle class="st13" cx="675.5" cy="258.7" r="1"/>
	<circle class="st13" cx="654.7" cy="265.9" r="1"/>
	<circle class="st13" cx="682" cy="259.2" r="1"/>
	<circle class="st13" cx="660.4" cy="256.4" r="1"/>
	<circle class="st13" cx="644.3" cy="301.2" r="1"/>
	<circle class="st13" cx="675.5" cy="304.1" r="1"/>
	<circle class="st13" cx="682.9" cy="326.4" r="1"/>
	<circle class="st13" cx="682" cy="321" r="1"/>
	<circle class="st13" cx="643.6" cy="312.2" r="1"/>
	<circle class="st13" cx="671" cy="327.4" r="1"/>
	<circle class="st13" cx="664.1" cy="332.6" r="1"/>
	<circle class="st13" cx="644.7" cy="326.8" r="1"/>
	<circle class="st13" cx="656.6" cy="321" r="1"/>
	<circle class="st13" cx="634.3" cy="315" r="1"/>
	<circle class="st13" cx="635.2" cy="308.4" r="1"/>
	<polygon class="st1" points="655.5,175.6 655.5,183 688.8,181.3 688.8,174.4 	"/>
	<line class="st1" x1="662.5" y1="175.3" x2="662.5" y2="182.6"/>
</g>
<g>
	<path class="st7" d="M395.5,333.8c0,0,0.3-3.7,5.6-4.1c5.3-0.4,155.6-7.5,155.6-7.5l24.8,12.6l-0.1,224.6c0,0,0.7,1.3-2.3,1.7
		s-139.2,14.1-139.2,14.1l-44.3-21.2V333.8z"/>
	<path class="st1" d="M397.5,332.7c0,0,1.6-2.8,12.1-1.9c10.5,0.9,27,9.1,27,9.1L397.5,332.7z"/>
	<path class="st1" d="M438.4,574.6l0-233.6c0,0,1.3-0.3,2.3,2.8l-0.8,231.5"/>
	<line class="st1" x1="441.3" y1="342.6" x2="581.5" y2="334.8"/>
	<polygon class="st1" points="548.3,346.4 548.3,354.1 581.4,352.7 581.5,345.2 	"/>
	<line class="st1" x1="555.5" y1="353.8" x2="555.5" y2="346.2"/>
	<rect x="452.5" y="357.2" class="st8" width="3" height="14.2"/>
	<path class="st8" d="M462.4,357.2l-5.8,5.9c0,0-1.1,0.9,0,2.3l6.5,5.4h3.4l-7.6-6.5c0,0-0.3-0.6-0.1-0.9c0.3-0.3,6.4-6.3,6.4-6.3
		H462.4z"/>
	<path class="st8" d="M466.9,357.2h2.7v11h8.8v1.9h-9.8c0,0-1.8,0.3-1.7-1.5S466.9,357.2,466.9,357.2z"/>
	<rect x="479.4" y="356.5" class="st8" width="2.7" height="13.6"/>
	<path class="st8" d="M484.4,369.8v-12.6c0,0,0.2-1.4,2-1.6c1.6-0.2,2.7,2,2.7,2l5.5,8.1c0,0,0.9,0.7,0.9-0.2c0.1-0.9,0-10,0-10h2.2
		v12.4c0,0-0.2,1.4-1.8,1.5c-1.3,0.1-1.9-0.7-2.1-1c-0.2-0.3-0.4-0.5-0.5-0.8l-5.9-8.5c0,0-0.3-0.3-0.6,0c-0.3,0.2-0.1,0.3-0.1,0.3
		v10.4H484.4z"/>
	<rect x="500.2" y="355.4" class="st8" width="2.9" height="13.4"/>
	<polygon class="st8" points="503.9,355.4 506.8,355.4 510.4,359.7 514,354.5 516.7,354.5 511.9,361.3 517.5,368 514.6,368 
		510.7,363 506.9,368 504.1,368 508.9,361.3 	"/>
	<polygon class="st1" points="440.6,389.2 581.5,380.4 581.4,384.8 440.4,393.8 	"/>
	<path class="st1" d="M453.6,410.5v-6l14-0.5c0,0,5.3,1,5.8,8.9c0.5,7.9-4.9,8.9-4.9,8.9l4.9,7.4H467l-2.8-4.5l2.2-0.2l-0.2-7.9
		c0,0,1.9-0.4,1.7-3.5c-0.2-3.1-1.7-3.9-3-3.8c-1.3,0.1-5.5,0.1-5.5,0.1l-0.1,1.2L453.6,410.5z"/>
	<polygon class="st8" points="453.6,412.3 459.2,412.3 459.2,417.8 464.9,417.8 464.9,423.5 459.2,423.5 459.2,430.2 453.6,430.2 
		453.6,424 447.9,424 447.9,418.5 453.6,418.5 	"/>
	<polygon class="st1" points="494.1,402 476.4,403.2 476.4,429.1 494.1,428.2 494.1,422.8 481.8,423.4 481.8,418 492.5,417.4 
		492.5,412.3 481.8,412.8 481.8,407.7 494.1,407.1 	"/>
	<polygon class="st1" points="497.3,427.4 497.3,402 502.1,402 512.5,416.6 512.5,401.3 517.8,401.3 517.8,426.2 513.1,426.2 
		502.3,411 502.3,427.4 	"/>
	<ellipse class="st1" cx="532.7" cy="412.1" rx="6.7" ry="7.7"/>
	<ellipse class="st1" cx="532.7" cy="412.1" rx="11.8" ry="13.6"/>
	<polygon class="st1" points="546.1,410.1 546.1,415.2 556.2,414.3 556.2,409.5 	"/>
	<polygon class="st1" points="453.6,436.1 453.6,440.9 465.6,440.5 452.8,458.1 452.8,462 472.9,460.9 472.9,455.8 460.2,456.4 
		472.9,439.5 472.9,435.2 	"/>
	<polygon class="st1" points="474,434.8 479.9,434.8 485.3,443.8 491.3,433.6 496.5,433.6 488.5,448.7 488.5,459.7 482.4,459.7 
		482.4,449.5 	"/>
	<polygon class="st1" points="498.3,458.7 498.3,433.1 503.9,433.1 509.9,442.8 515.9,431.9 521.3,431.9 521.3,457.4 516.3,457.5 
		516.2,441.3 509.8,452.2 503.5,442.1 503.5,458.7 	"/>
	<polygon class="st1" points="542.2,430.2 524.8,431.3 524.8,456.7 542.2,455.4 542.2,450.4 529.9,451.2 529.9,445.3 540.7,444.8 
		540.7,440 529.8,440.4 530,435.6 542.2,434.7 	"/>
	<line class="st1" x1="452.8" y1="516.8" x2="516.8" y2="511.4"/>
	<polyline class="st1" points="531.1,497.6 522.3,515.9 531.1,531.7 	"/>
	<polyline class="st1" points="568.3,495.4 551,496.8 541.4,515.7 550.8,532.3 568.3,530.5 	"/>
	<polyline class="st1" points="537.3,523.6 532.1,514.7 537.3,505.1 547.4,503.9 	"/>
	<polyline class="st1" points="549.5,499.8 535.1,500.8 527.9,515.6 535.4,528.3 	"/>
	<polyline class="st1" points="548,510.7 553.8,519.3 563.7,518.4 	"/>
	<polyline class="st1" points="560.7,502.4 566.8,512.8 577.7,511.4 581.5,502.4 	"/>
	<polyline class="st1" points="541.4,492.4 549.5,474.5 568.3,473.1 577.3,489.5 568.3,507.6 552.4,509.1 	"/>
	<polyline class="st1" points="567.2,458 578,457.3 581.5,463.8 	"/>
	<polyline class="st1" points="555.9,484.3 563.7,468.6 579.1,467.6 581.4,471.9 	"/>
	<circle class="st8" cx="537.5" cy="524" r="1.7"/>
	<circle class="st8" cx="560.7" cy="502.4" r="1.7"/>
	<circle class="st8" cx="551.8" cy="509.8" r="1.7"/>
	<circle class="st8" cx="571.3" cy="550.9" r="1.7"/>
	<circle class="st8" cx="568.6" cy="530.5" r="0.7"/>
	<circle class="st8" cx="565.8" cy="503.1" r="0.7"/>
	<circle class="st8" cx="565.5" cy="478.6" r="0.7"/>
	<circle class="st8" cx="545.7" cy="492.8" r="1.7"/>
	<circle class="st8" cx="567.2" cy="458.1" r="1.7"/>
	<circle class="st8" cx="531.7" cy="532.6" r="1.7"/>
	<polyline class="st1" points="565.8,503.1 572.1,490.1 565.5,478.6 	"/>
	<polygon class="st8" points="545.4,491.2 552.1,477.6 554.5,477.3 546.9,492.8 	"/>
	<polygon class="st8" points="567.2,474 568.8,472 578.7,489.4 568.8,509.4 567.7,506.9 576.2,489.6 	"/>
	<polygon class="st8" points="535.2,526.7 534.8,529.4 550.1,528.1 558.4,511.5 555.9,511.5 549,525.7 	"/>
	<polyline class="st1" points="555.1,525 567.2,524.1 574,535.8 566.9,549.2 	"/>
	<line class="st1" x1="542.1" y1="539.2" x2="549.8" y2="553"/>
	<polyline class="st1" points="568.3,534 560.7,549.5 567.6,562.3 	"/>
	<line class="st1" x1="562" y1="534" x2="568.6" y2="521.3"/>
	<polyline class="st1" points="570.4,520.2 578.7,535 571.8,550.2 	"/>
	<polygon class="st8" points="555.1,549 553.5,551.6 567.9,550.2 567.2,547.6 	"/>
	<text transform="matrix(0.9983 -5.791000e-02 5.791000e-02 0.9983 452.4558 492.4781)"><tspan x="0" y="0" class="st10 st14 st15">Digestive Enzymes</tspan><tspan x="0" y="9" class="st10 st14 st15">with Functional</tspan><tspan x="0" y="17.9" class="st10 st14 st15">Oligosaccharides</tspan></text>
</g>
<g>
	<path class="st7" d="M200.5,559.4c0-3.5,0-13.9,0-13.9s-0.5-2.4,3.8-3.3s33.7-1.9,36.5,2.2c0,0,1.1,0.4,1.2,3.5
		c0.1,3.1,0,11.9,0,11.9s0.4,2.9-2.9,3.4c-0.8,0.1-1.5,0.6-1.8,1.4c-0.3,0.7-0.2,1.7,1.5,1.8c2.1,0.1,0.6,3.4,2.6,5.3
		c3.1,3,2.2,6.4,2.2,6.4l-0.3,104c0,0,0,3.3-4.5,5.1c-4.5,1.8-25.3,3.9-38.4-0.9c0,0-3-0.6-3-5.6s0-104,0-104s-0.2-4,3-6.3
		c0.5-0.4,0.9-1,1-1.6c0.2-1.2,0.7-3.1,2.3-3.3c1.8-0.3,1.9-1.2-0.5-2.2C200.9,562.2,200.5,561.7,200.5,559.4z"/>
	<path class="st1" d="M203.3,563.2c0,0,22.3,2.6,34.6,0.5"/>
	<path class="st1" d="M197.5,580.2c0,0,0.2,3.8,22.2,3.8s23.8-2.3,23.8-2.3"/>
	<path class="st1" d="M197.5,675.6c0,0,1,3.9,23.1,4.1s22.7-3.5,22.7-3.5"/>
	<path class="st1" d="M197.5,590.4c0,0,2.2,1.8,5.6,1.9v2.1c0,0-4.3-0.4-5.6-2V590.4z"/>
	<path class="st1" d="M237.9,593.1c0,0,4.2-0.1,5.7-1.4l0,2.2c0,0-1.7,1.3-5.7,1.2V593.1z"/>
	<rect x="209.1" y="591.7" class="st8" width="0.7" height="4.3"/>
	<path class="st8" d="M212.5,591.7l-2.1,1.8c0,0-0.5,0.5,0,1l2.1,1.9h1.1l-2.4-2.3c0,0-0.2-0.2,0-0.4c0.2-0.2,2.4-2.1,2.4-2.1H212.5
		z"/>
	<path class="st8" d="M214.1,591.8v4.5c0,0,0,0.5,0.7,0.5c0.7,0,3.4,0,3.4,0V596h-2.8c0,0-0.4,0.1-0.4-0.3c0-0.4,0-3.9,0-3.9H214.1z
		"/>
	<rect x="218.7" y="592.1" class="st8" width="0.9" height="4.7"/>
	<rect x="226.6" y="592.1" class="st8" width="0.9" height="4.7"/>
	<path class="st8" d="M220.6,596.7v-4c0,0,0-0.6,0.8-0.6c0.6,0,0.9,0.5,0.9,0.5l2.2,3.2c0,0,0.4,0.4,0.4,0c0-0.4,0-3.6,0-3.6h0.9
		v4.3c0,0-0.1,0.6-0.9,0.6c-0.6,0-0.9-0.5-0.9-0.5l-2.2-3.2c0,0-0.2-0.2-0.3,0v3.3H220.6z"/>
	<polygon class="st8" points="228.1,592.1 229.1,592.1 230.4,593.9 231.7,592.1 232.7,592.1 231,594.6 232.7,596.7 231.4,596.7 
		230.2,595.1 229.2,596.7 228.1,596.7 229.6,594.5 	"/>
	<path class="st1" d="M236.9,678.8l1-74.3c-17.2,2.4-34.8-0.9-34.8-0.9l-0.9,74.3"/>
	<polygon class="st16" points="223.6,608.5 223.6,610.2 225.2,610.8 225.2,613.8 223.2,614.5 223.3,616.3 231.1,613.1 231.1,611.3 	
		"/>
	<polygon class="st16" points="226.8,611.5 226.8,613.2 228.9,612.3 	"/>
	<path class="st16" d="M225.7,621.7c0,0-1.9-2.3,0.3-3.7s5,1,2.7,3.7l1.2,1c0,0,2.8-2.5,0.5-5.4c-2.3-2.9-6.3-1.1-6.8,0.8
		c-0.5,1.9-0.3,3.5,1.1,4.8L225.7,621.7z"/>
	<polygon class="st16" points="229.4,623.2 229.4,625.3 223.2,625.3 223.2,627 229.4,627 229.4,629.1 230.9,629.1 230.9,623.2 	"/>
	<polygon class="st16" points="223.2,632 223.2,633.7 226.6,633.7 230.7,636.4 230.7,634.5 227.8,632.9 230.9,631.1 230.9,629.5 
		226.8,632 	"/>
	<polygon class="st17" points="224.9,636.4 224.9,637.9 222.8,637.9 222.8,639.7 224.9,639.7 224.9,641.4 226.6,641.4 226.6,639.6 
		228.4,639.6 228.4,637.9 226.6,637.9 226.6,636.4 	"/>
	<path class="st16" d="M228.8,637.9h1.8v3.9c0,0-0.2,2.1-2.7,2.1s-2.8-1.8-2.9-2l2,0c0,0,0,0.5,0.8,0.5s1.1-0.6,1.1-0.6L228.8,637.9
		z"/>
	<path class="st16" d="M222.8,644.5h7.6v4.2c0,0-0.4,1.9-2.6,1.9c-2.2,0-2.2-1.6-2.2-1.6l-2.8,1.9v-2l2.4-1.7v-1.2h-2.4V644.5z"/>
	<path class="st16" d="M226.9,646.1h1.9v2.1c0,0-0.1,0.8-1,0.8s-0.9-0.7-0.9-0.7V646.1z"/>
	<circle class="st16" cx="226.6" cy="655.3" r="2.1"/>
	<circle class="st16" cx="226.6" cy="655.3" r="4"/>
	<polyline class="st1" points="213.5,657.4 209.7,660.7 213.5,664.4 	"/>
	<line class="st1" x1="217.9" y1="660.1" x2="222" y2="663.8"/>
	<path class="st1" d="M218.8,660.9l-5.4,5c0,0-3.8,3.1-0.5,6.6l3.2,3.4"/>
	<path class="st1" d="M219.5,661.5l-5.8,5.5c0,0-2.6,2.1-0.3,4.8l3.3,3.5"/>
	<path class="st1" d="M220.6,662.6l-5,5c0,0-2.3,1.7-0.4,3.8s3.1,3.1,3.1,3.1"/>
	<path class="st1" d="M214.8,677.6l6.1-5.7c0,0,1.2-1.2,0.2-2.3c-1-1.2-3.7-3.7-3.7-3.7"/>
	<path class="st1" d="M216.2,679l5.5-5.2c0,0,0.7-0.6,1.2-1.6c0.7-1.4,0.4-3.1-0.8-4.1l-3.6-3.4"/>
	<path class="st1" d="M219.1,664.1l4.4,4.1c0,0,1.4,1.3,0.8,3.5c-0.2,0.8-0.7,1.5-1.2,2l-6,5.9"/>
	<line class="st1" x1="216.6" y1="666.6" x2="220" y2="670"/>
	<line class="st1" x1="218.8" y1="673.8" x2="215.6" y2="670.6"/>
	<path class="st1" d="M214.5,677.3l2.4,2.4L214.5,677.3z"/>
	<polygon class="st8" points="214.5,677.3 215.1,677.8 220.2,673.2 219.8,672.8 219.6,672.6 	"/>
	<polygon class="st8" points="210.5,660.1 214.8,664.7 215.5,664.1 211.1,659.5 	"/>
	<line class="st8" x1="211.9" y1="658.9" x2="216.3" y2="663.3"/>
	<line class="st8" x1="212.5" y1="658.3" x2="216.9" y2="662.7"/>
	<polygon class="st8" points="215.3,667.2 215.9,667.8 221,662.9 220.3,662.3 	"/>
	<polygon class="st8" points="219.9,676.8 222.6,679.7 224.1,679.7 220.6,676.2 	"/>
	<path class="st8" d="M219.1,677.6l1.8,2.1L219.1,677.6z"/>
	<path class="st8" d="M218.3,678.4l1.2,1.3L218.3,678.4z"/>
	<line class="st8" x1="222.2" y1="676.2" x2="225.8" y2="679.7"/>
	<circle class="st8" cx="223.1" cy="664.7" r="0.5"/>
	<circle class="st8" cx="212.5" cy="675.4" r="0.5"/>
	<circle class="st8" cx="208.4" cy="661.9" r="0.5"/>
	<circle class="st8" cx="227.3" cy="678.5" r="0.5"/>
	<circle class="st8" cx="226" cy="677.5" r="0.2"/>
	<circle class="st8" cx="224.5" cy="666" r="0.2"/>
	<circle class="st8" cx="224.8" cy="676.4" r="0.1"/>
	<circle class="st8" cx="225.8" cy="667.1" r="0.1"/>
	<circle class="st8" cx="211.2" cy="674" r="0.2"/>
	<circle class="st8" cx="209.8" cy="663.3" r="0.2"/>
	<circle class="st8" cx="210.1" cy="672.9" r="0.1"/>
	<circle class="st8" cx="211" cy="664.5" r="0.1"/>
</g>
<g>
	<path class="st7" d="M265.8,431.8c0,0,0.7-2.6,2.5-3.7h57.3c0,0,8.3-0.6,12.5,5l-1.2,210l-54.8,2.1l-15.8-10.6L265.8,431.8z"/>
	<path class="st1" d="M281.8,431.4c0,0,0.2-4.2-13.8-1.9l-0.6,0.6L281.8,431.4z"/>
	<polyline class="st1" points="282.1,645.2 281.8,431.4 335.9,432 	"/>
	<polyline class="st1" points="337.1,617.6 331.6,617.6 331.6,643.3 331.6,623.3 282.1,624.8 	"/>
	<line class="st1" x1="331.6" y1="623.3" x2="337.1" y2="623.3"/>
	<path class="st1" d="M282.1,618c0,0,19.3,4.6,31.6,26.1"/>
	<path class="st1" d="M282.1,608.2c0,0,26.7,5.1,42,35.4"/>
	<path class="st1" d="M282.1,604c0,0,29.9,4.6,45.6,39.5"/>
	<polyline class="st1" points="282.1,637.3 285.9,639.6 288.5,645 	"/>
	<polyline class="st1" points="297.9,644.6 294.7,640.3 289.5,636.7 285.9,639.6 	"/>
	<polyline class="st1" points="282.1,629.2 287.7,632.2 289.5,636.7 	"/>
	<path class="st1" d="M308.7,644.2c0,0-12.6-17.6-26.6-21.8"/>
	<path class="st1" d="M282.1,623.9c0,0,7.3,3.5,9.9,7.8l5,3.3l2.2,4.1l2.7,3.5h4.4l0.5-0.8"/>
	<line class="st1" x1="294.7" y1="640.3" x2="299.1" y2="638.9"/>
	<line class="st1" x1="287.7" y1="632.2" x2="292" y2="631.7"/>
	<line class="st1" x1="289.2" y1="628.5" x2="293.1" y2="628.2"/>
	<line class="st1" x1="297.1" y1="635" x2="300.8" y2="635"/>
	<polygon class="st1" points="312.2,442.5 312.2,445.7 315.1,446.9 315.1,448.4 318.1,449.8 318.1,448.1 324,450.7 324,453 
		321.8,453 321.9,455.7 326.9,455.7 326.9,449.1 	"/>
	<polygon class="st8" points="315.2,449.6 315.2,452.6 312.2,452.6 312.2,455.5 315.2,455.5 315.2,458.7 318,458.7 318,455.5 
		320.9,455.5 320.9,452.6 317.8,452.6 317.8,450.7 	"/>
	<polygon class="st1" points="312.2,460.3 326.4,460.3 326.4,463.7 315.3,463.7 315.3,470.8 312.2,470.8 	"/>
	<polygon class="st1" points="312.2,473.4 326.4,473.4 326.4,476.9 315.3,476.9 315.3,484 312.2,484 	"/>
	<circle class="st1" cx="319.3" cy="492.5" r="4.5"/>
	<circle class="st1" cx="319.3" cy="492.5" r="7.5"/>
	<path class="st1" d="M299.3,452.1l-1.6,1.7c0,0-3.4-3-1.8-7.4c1.6-4.4,6.1-3.9,6.1-3.9s5.3,0,5.6,6c0.2,3.6-2,5-2,5L304,452
		c0,0,2.1-2.7,0.3-5.2c-1.8-2.5-5-1-5.7-0.2C297.7,447.8,297.4,450.4,299.3,452.1z"/>
	<polygon class="st1" points="295.7,464.8 295.7,455.7 307.6,455.7 307.6,464.8 305.2,464.8 305.2,458.7 302.8,458.7 302.8,464.1 
		300.6,464.1 300.6,458.7 298,458.7 298,464.8 	"/>
	<polygon class="st1" points="295.7,467.3 295.7,469.7 303,469.7 295.7,475.5 295.7,477.6 307.3,477.6 307.3,475.4 300.5,475.4 
		307.3,469.9 307.3,467.3 	"/>
	<polygon class="st1" points="307.3,480 307.3,489.4 305,489.4 305,486.1 295.7,486.1 295.7,483.4 305.4,483.4 305.4,480 	"/>
	<path class="st1" d="M295.7,491.5v2.4h3.9v2.1l-3.9,2.7v2.8l4.2-2.8c0,0,0.6,2.4,3.6,2.4s3.8-2.4,3.8-2.4v-7.3H295.7z"/>
	<rect x="295.7" y="503.9" class="st1" width="11.6" height="2.1"/>
	<path class="st1" d="M299.3,518.2l-1.6,1.7c0,0-3.4-3-1.8-7.4c1.6-4.4,6.1-3.9,6.1-3.9s5.3,0,5.6,6c0.2,3.6-2,5-2,5l-1.5-1.6
		c0,0,2.1-2.7,0.3-5.2c-1.8-2.5-5-1-5.7-0.2C297.7,513.8,297.4,516.4,299.3,518.2z"/>
	<path class="st1" d="M301.8,493.9h3.4v3.4c0,0-0.1,1.6-1.7,1.6c-1.6,0-1.7-1.9-1.7-1.9V493.9z"/>
	<path class="st1" d="M309.5,531.5v62.8V531.5z"/>
</g>
<g>
	<path class="st7" d="M498.9,356.9c0,0-0.2-4.1,6.3-4.2c6.4-0.2,134.4-1.7,134.4-1.7l34.5,10.5l-0.9,234.1c0,0-0.6,4.6-4.9,5.3
		s-146.2,9.6-146.2,9.6l-23.2-15.4L498.9,356.9z"/>
	<path class="st1" d="M501.1,356c0,0,10.5-3,23.1,6L501.1,356z"/>
	<polyline class="st1" points="522.1,610.5 524.2,361.9 674.1,361.5 	"/>
	<polyline class="st1" points="674.1,372.4 640.2,372.4 640.2,381.1 674.1,381.1 	"/>
	<line class="st1" x1="648.1" y1="381.1" x2="648.1" y2="372.4"/>
	<line class="st1" x1="646" y1="361.5" x2="646" y2="372.4"/>
	<line class="st1" x1="646" y1="381.1" x2="643.5" y2="602.8"/>
	<rect x="537.8" y="373.9" class="st2" width="2.7" height="14.3"/>
	<path class="st2" d="M548.5,373.5l-6.5,6.4c0,0-1.1,1.1,0.2,2.5s6.6,5.7,6.6,5.7h3.6l-7.7-6.8c0,0-0.8-0.9,0-1.5
		c0.7-0.5,7.1-6.3,7.1-6.3H548.5z"/>
	<path class="st2" d="M553.4,373.5h2.9v12.4h9.1v2h-10.8c0,0-1.3,0.2-1.3-1.8C553.4,384.6,553.4,373.5,553.4,373.5z"/>
	<rect x="566.4" y="373.5" class="st2" width="3.1" height="14.4"/>
	<path class="st2" d="M571.9,387.8v-12.4c0-0.6,0.2-1.3,0.6-1.8c0.4-0.5,0.9-0.9,1.8-0.9c0.8,0,1.5,0.5,1.9,1.1l7.4,10.8
		c0,0,0.7,0.5,0.7-0.1s0-11.5,0-11.5h2.7v12.6c0,2-2.1,3.4-3.8,2.5c-0.1,0-0.2-0.1-0.3-0.2c-0.5-0.3-0.9-0.7-1.2-1.2l-6.5-9.6
		c0,0-0.7-0.9-0.8,0l0,10.7H571.9z"/>
	<rect x="588.9" y="372.7" class="st2" width="3.2" height="15.3"/>
	<polygon class="st2" points="593.1,372.7 596.2,372.7 600,378.4 604.4,372.7 607.7,372.7 602.2,380.4 608.3,388.1 604.5,388.1 
		600.1,382.1 596.7,388.1 593.1,388.1 598.1,380.4 	"/>
	<path class="st1" d="M538,422.3v-5.2h12.4c0,0,5.1,1.3,5.1,8.3c0,7.1-6.6,7.8-6.6,7.8v-4.8c0,0,1.5-0.6,1.8-3.5s-3.1-3.6-3.1-3.6
		h-4.9v1.5H538V422.3z"/>
	<polygon class="st2" points="538,423.9 542.7,423.9 542.7,428.8 547.6,428.8 547.6,433.7 542.8,433.7 542.8,439.2 538,439.2 
		538,433.7 533,433.7 533,429 538,429 	"/>
	<path class="st1" d="M557.2,440v-22.9h13.4c0,0,4.3,1.7,4.3,7.4s-4.8,7.1-4.8,7.1l5.5,8.4h-5.4l-4.8-7.7l-3.5,0.1v7.6H557.2z"/>
	<path class="st1" d="M561.7,421.2v6.9h6.1c0,0,2.8-0.3,2.8-3.4s-2.9-3.4-2.9-3.4H561.7z"/>
	<ellipse class="st1" cx="587.2" cy="427.6" rx="6.5" ry="7.6"/>
	<ellipse class="st1" cx="587.2" cy="427.6" rx="10.8" ry="12.5"/>
	<rect x="601" y="426.5" class="st1" width="9.4" height="4.8"/>
	<path class="st1" d="M538.5,444.7V456l2.3,2.3c0,0,4.2-4,7.5,0.9c0,0,1.1,2.4-0.9,3.8c-2,1.4-5.5,1.5-7.7-1.7l-3.1,3.9
		c0,0,5.1,6.9,13.2,1.5c8.2-5.4,0.8-17.2-6.9-13.3l-0.7,0.4V449h9.8v-4.2H538.5z"/>
	<polygon class="st1" points="552.3,467.8 563.2,444.2 563.9,444.2 574.6,467.8 568.3,467.8 564.1,457.4 562.7,457.4 558.5,467.8 	
		"/>
	<polygon class="st1" points="563.4,460.8 561.2,465.2 565.6,465.2 	"/>
	<polygon class="st1" points="544.3,475.9 538.2,475.9 538.2,485.4 539.4,485.4 539.4,481.4 543.8,481.4 543.8,480.3 539.4,480.3 
		539.4,477.1 544.3,477.1 	"/>
	<ellipse class="st1" cx="550" cy="480.5" rx="2.8" ry="3.1"/>
	<ellipse class="st1" cx="550" cy="480.5" rx="4.5" ry="4.9"/>
	<path class="st1" d="M555.7,485v-9.4h5c0,0,2.1,0.4,2.1,2.9c0,2.6-2.3,2.9-2.3,2.9l2.3,3.5h-1.5l-2.1-3.3h-2.3v3.3H555.7z"/>
	<path class="st1" d="M556.9,477v3.2h3c0,0,1.3,0,1.3-1.6c0-1.7-1.3-1.6-1.3-1.6H556.9z"/>
	<path class="st1" d="M566.6,475.6v9.2h4.5c0,0,3.2-0.8,3.2-4.9c0-4-2.9-4.3-2.9-4.3H566.6z"/>
	<path class="st1" d="M568,476.8v6.5h3.1c0,0,1.6-0.3,1.6-3.3c0-3-1.7-3.3-1.7-3.3H568z"/>
	<ellipse class="st1" cx="579.8" cy="479.5" rx="2.7" ry="3.4"/>
	<ellipse class="st1" cx="579.8" cy="479.5" rx="4.1" ry="5"/>
	<path class="st1" d="M591.5,476.6l1-0.5c0,0-2.5-4-6-0.5s-0.3,11.2,6,7.2v-4.3h-3.5v1.4h2.3v1.7c0,0-2.9,2.3-4.3-1
		C585.4,477.1,588.9,473.9,591.5,476.6z"/>
	<path class="st1" d="M598.7,476.1l0.7-0.5c0,0-0.9-2.3-3.7-1.4c-2.8,0.9-3,4.7,0.2,5.5c3.3,0.7,2.8,2.7,0.9,2.8
		c-1.9,0.1-1.6-1.1-1.6-1.1h-1.5c0,0-0.5,2.6,3.7,2.6s3-5.1,0.8-5.5s-3.5-0.7-2.6-2.1C596.5,475,597.3,475.2,598.7,476.1z"/>
	<path class="st1" d="M538,508.4l67.7-2.3L538,508.4z"/>
	<polyline class="st1" points="647.5,482.6 654.9,486 662.7,494.5 669.6,502.8 673.5,507.6 673.5,522.4 659.9,525.5 644.3,536.2 
		659.6,542.6 673.3,543.3 673.3,555.3 661.9,563.6 660.1,572.1 659.9,578.2 654.8,573.7 652.8,569.4 647.2,562.7 644,562.1 	"/>
	<polyline class="st1" points="672,556.3 671.3,564.5 661.9,563.6 659.6,542.6 661.1,525.2 655.8,505.5 651.7,495.7 644.7,495.7 
		654.9,486 	"/>
	<polyline class="st1" points="659.9,578.2 671.3,564.5 673.3,570.7 	"/>
	<polyline class="st1" points="650.4,577.8 654.8,573.7 660.1,572.1 671.3,564.5 	"/>
	<polyline class="st1" points="672,555.9 659.6,542.6 644.7,553.7 647.2,562.7 661.9,563.6 644,553.3 	"/>
	<polyline class="st1" points="673.4,541.6 661.1,525.2 646,513.7 644.7,512.1 	"/>
	<polyline class="st1" points="644.3,536.2 646,513.7 655.8,505.5 669.6,502.8 673.6,499.9 	"/>
	<polyline class="st1" points="644.6,503.6 651.7,495.7 654.9,486 659.1,483.6 666.8,480.7 670.6,483.6 673.5,486.6 	"/>
	<polyline class="st1" points="646,513.7 651.7,495.7 661.9,493.6 	"/>
	<polyline class="st1" points="655.8,505.5 661.9,493.6 668.5,490.8 673.5,495 	"/>
	<polyline class="st1" points="644.8,491.5 650.2,483.9 655.8,479.1 656.4,475.8 654.7,475.2 652.9,473.9 	"/>
	<line class="st1" x1="646" y1="485" x2="650.2" y2="483.9"/>
	<line class="st1" x1="654.9" y1="486" x2="655.8" y2="479.1"/>
	<polyline class="st1" points="661.9,493.6 659.1,483.6 668.5,490.8 666.8,480.7 663.8,473.9 659.1,483.6 	"/>
	<polyline class="st1" points="655.9,478.5 659.1,483.6 659.9,474.6 660.1,470.5 	"/>
	<polyline class="st1" points="673.5,490.2 671.4,484.4 668.5,490.8 669.6,502.8 673.6,517.5 	"/>
	<polyline class="st1" points="666.8,480.7 666.8,473.2 663.8,473.9 661.9,467.1 665.6,470.1 665.6,466.5 	"/>
	<polyline class="st1" points="665.6,470.1 666.8,473.2 672,480.7 673.6,479.8 669.9,473 667,468.5 661.4,460.4 	"/>
	<polyline class="st1" points="647.5,482.6 650.6,480.7 656.4,475.8 658.6,472.6 661.4,468.7 661.9,467.1 661.9,464.6 661.4,460.4 
		644.8,486.9 643.8,575.3 648.5,577.5 653.5,578.2 659.9,578.2 666.1,578.2 671.4,575.7 673.3,573.7 	"/>
	<polyline class="st1" points="661.9,467.1 655.8,469.3 656.4,475.8 	"/>
	<line class="st1" x1="671.4" y1="484.4" x2="672" y2="480.7"/>
	<polyline class="st1" points="651.6,576.7 648.3,573.9 647.2,562.7 643.5,568.8 648.3,573.9 	"/>
	<line class="st1" x1="671.4" y1="575.7" x2="664.4" y2="572.8"/>
	<polyline class="st1" points="646.7,576.7 648.3,573.9 652.8,569.4 660.1,572.1 647.2,562.7 	"/>
	<line class="st1" x1="644" y1="572.8" x2="649.5" y2="577.7"/>
	<polyline class="st1" points="660.1,572.1 664.9,572.1 673.3,572.8 	"/>
</g>
<g>
	<path class="st18" d="M709.7,580.5c-0.2-1.2-0.3-3.7-4.9-3.6c-4.6,0.1-8.9-0.9-10.3,2.8c-1.4,3.8-1.6,15.4-5.9,16.9
		c-4.4,1.5-5.5,26.5-4.8,27.8c0.7,1.4,3,2.2,1.3,3.8c-1.7,1.6-7.2,1.8-9.2,10.3c-2,8.4-0.2,89-0.2,89s-0.6,3.8,7.1,5.6
		c7.7,1.8,39.5,2.8,43.6-2.9c0,0,2.4-1.6,2.4-5.9c0-4.2,0-84.6,0-84.6s-0.9-8-8.8-11c0,0-2-0.6,0.4-4c0,0-0.1-20-3.4-26.9
		C716.2,596,712.1,596.9,709.7,580.5z"/>
	<path class="st19" d="M683.8,624.5c0,0,17.2,5.4,36.6,0.3"/>
	<path class="st19" d="M728.8,643.1c0,0,1.6,2.2-24.1,3c-25.8,0.8-29.6-2.5-29.2-3.8"/>
	<path class="st19" d="M677.6,658.9c0,0,14.6,5.3,44.5,1.6v63.4c0,0-24.3,7.6-44.5-1.6V658.9z"/>
	<polygon class="st20" points="679.2,675.6 682.8,667.4 686.4,667.4 686.4,670.1 684.8,670.1 684.8,668.9 683.7,668.9 682.5,672.2 
		683.2,672.2 682.7,673.9 681.7,673.9 681.1,675.7 	"/>
	<polygon class="st21" points="684.9,670.6 684.9,672.2 683.6,672.2 683.1,673.8 684.7,673.8 684.7,675.5 686.3,675.5 686.4,673.7 
		688,673.8 688,672.1 686.4,672.1 686.4,670.5 	"/>
	<polygon class="st20" points="687.7,667.2 689.8,667.2 691.2,669.7 693,667.2 694.8,667.3 692.3,670.9 695.1,675.3 693,675.3 
		691.3,672.5 689.5,675.5 687.4,675.5 690.2,671.2 	"/>
	<path class="st20" d="M700.6,669.1l1.1-1.1c0,0-2.6-3.1-5.9,0c-3.3,3,0.7,10.6,5.9,5.7l-1-1.3c0,0-2,2-3.6,0
		c-1.4-1.7,0.2-3.9,1.4-4C699.7,668.3,700,668.5,700.6,669.1z"/>
	<polygon class="st20" points="708.5,666.4 702.8,666.7 702.7,674.6 708.4,674.5 708.4,672.9 704.2,673 704.2,671.3 707.8,671.3 
		707.8,669.7 704.3,669.7 704.3,668.1 708.4,668 	"/>
	<polygon class="st20" points="709.4,666.4 709.3,674.5 714.9,674.3 714.9,672.6 711,672.6 711.1,666.4 	"/>
	
		<rect x="716" y="667.8" transform="matrix(1.293470e-02 -0.9999 0.9999 1.293470e-02 38.1513 1377.5814)" class="st20" width="1.7" height="3.4"/>
	<polygon class="st20" points="679,677.6 678.9,685.8 684.6,685.7 684.6,684 680.7,684.1 680.8,677.6 	"/>
	
		<rect x="682.3" y="680.6" transform="matrix(1.293470e-02 -0.9999 0.9999 1.293470e-02 -4.0143 1359.0663)" class="st20" width="8.2" height="1.9"/>
	<path class="st20" d="M694.4,679.3l1.1-1.3c0,0-4-3-6.5,0.8c-2.7,4,2.3,9.5,6.6,5.3l0-3.8l-3.3,0l0,1.6l1.7,0l0,1.1
		c0,0-3.2,2-3.8-1.4C689.6,678.9,693,677.9,694.4,679.3z"/>
	<polygon class="st20" points="696.7,676.9 696.6,684.9 698.5,684.9 698.5,681.7 701.6,681.6 701.6,685 703.3,685 703.4,676.6 
		701.7,676.6 701.6,679.7 698.5,679.7 698.6,676.6 696.7,676.6 	"/>
	<polygon class="st20" points="704,676.6 704,678.2 706.4,678.2 706.3,684.6 708.2,684.7 708.3,678.3 710.5,678.3 710.6,676.7 	"/>
	<path class="st19" d="M722.1,691.9c0,0-17.3-6-19.2,12.4c-1.4,13.3,14.1,18.5,19.2,12.6"/>
	<ellipse class="st22" cx="716.8" cy="705" rx="4" ry="4.4"/>
	<path class="st19" d="M722.1,697.5c0,0-6.7-7.2-13.1,2.7c-6.4,9.8,7.1,20.2,13.1,11.8"/>
	<circle class="st19" cx="708.1" cy="693.3" r="1.6"/>
	<circle class="st19" cx="708.9" cy="717.2" r="1.6"/>
	<circle class="st22" cx="716.9" cy="690.7" r="1.4"/>
	<circle class="st22" cx="703.4" cy="701.5" r="1.4"/>
	<circle class="st22" cx="710.3" cy="698.6" r="1.4"/>
	<circle class="st22" cx="703.4" cy="710.1" r="1.4"/>
	<circle class="st22" cx="716.8" cy="719.4" r="1.4"/>
	<path class="st23" d="M685.1,628.3c0,0,12.7,7.4,34.9,0.4"/>
	<g>
		
			<rect x="681.7" y="652.4" transform="matrix(4.219331e-02 -0.9991 0.9991 4.219331e-02 3.1254 1309.186)" class="st8" width="5.3" height="1.2"/>
		
			<rect x="692.9" y="652.4" transform="matrix(4.219331e-02 -0.9991 0.9991 4.219331e-02 13.8098 1320.4154)" class="st8" width="5.3" height="1.2"/>
		
			<rect x="701.8" y="652.5" transform="matrix(4.219331e-02 -0.9991 0.9991 4.219331e-02 22.1971 1329.3019)" class="st8" width="5.3" height="1.2"/>
		<path class="st8" d="M687.9,650.2l-2.4,2.3c0,0-0.5,0.6,0,0.9c0.4,0.4,2.7,2.3,2.7,2.3l1.5,0.1l-3-2.5c0,0-0.6-0.3-0.1-0.8
			c0.5-0.5,0.5-0.5,0.5-0.5l2.2-1.7L687.9,650.2z"/>
		<path class="st8" d="M690.1,650.3l1.1,0l-0.2,4.1c0,0,0,0.4,0.4,0.4c0.5,0,3.2,0.1,3.2,0.1l0,0.7l-4.1-0.2c0,0-0.5,0-0.5-0.7
			C689.9,653.9,690.1,650.3,690.1,650.3z"/>
		<path class="st8" d="M696.9,655.6l1.2,0.1l0.2-3.8c0,0,0-0.6,0.4,0c0.4,0.6,0.4,0.6,0.4,0.6l0,0l2,3c0,0,0.2,0.4,0.7,0.4
			s0.9-0.2,0.9-0.6c0-0.4,0.2-4.8,0.2-4.8l-1.1,0l-0.2,3.7c0,0,0,0.7-0.5,0c-0.5-0.7-2.3-3.5-2.3-3.5s-0.2-0.3-0.8-0.3
			c-0.6,0-0.9,0.2-0.9,0.5s0,0.3,0,0.3L696.9,655.6z"/>
		<polygon class="st8" points="710.8,650.5 709.5,650.5 705.4,655.5 706.6,655.6 		"/>
		<polygon class="st8" points="705.4,650.5 706.6,650.5 710.8,655.5 709.5,655.6 		"/>
	</g>
</g>
<g>
	<path class="st7" d="M81.9,555.4l-0.2,27.8c0,0,0,1.1,1.5,1.6v0.6c0,0-1.5,0.7-1.5,4c0,3.3,0,128.1,0,128.1s-0.2,3.2,3.5,6.4
		c3.7,3.2,16.7,9.5,41.7,6c0,0,0.5-0.3,1.3,0c0,0,31.2,6.1,40.1-10.2c0,0,0.3-1.3,0.5-2.4c0.2-1.1,0-126.8,0-126.8s0.1-4.2-1.4-4.9
		c0,0-0.5-0.2,0-0.8s1.1-0.7,1.2-2.2s0-25.2,0-25.2s0.5-2.7-2.2-4c-2.7-1.3-12.3-3.6-41.1-3.6S82.9,551.2,81.9,555.4z"/>
	<path class="st1" d="M81.7,590.6c0,0-0.8,4.2,43.6,4.2s43.5-4.5,43.5-4.5"/>
	<path class="st1" d="M81.7,717.7c0,0-0.8,8,43.6,8s43.5-8.2,43.5-8.2"/>
	<path class="st1" d="M163.2,721.5V621.3c-34.4,6.8-71.5,0.8-71.5,0.8V723"/>
	<path class="st1" d="M91.7,624.5c0,0,34.9,5.9,71.5-0.7"/>
	<polygon class="st3" points="96.9,631.7 96.9,633.3 95.6,633.3 95.6,636 96.9,636 96.9,638 99.1,638 99.1,636.4 100.5,636.4 
		100.5,633.8 99.2,633.8 99.2,631.7 	"/>
	<rect x="96.9" y="638.8" class="st16" width="2.1" height="8.2"/>
	<polygon class="st16" points="99.9,637.4 99.9,639.7 101.8,643 103.1,643 105.5,639.4 105.5,647.8 108.3,647.8 108.3,634.4 
		105.5,634.4 102.6,639.3 101.4,637.3 	"/>
	<polygon class="st16" points="109.5,634.4 109.5,648 119.4,648.2 119.4,645.8 112.4,645.7 112.5,643 118.2,643 118.2,640.3 
		112.4,640.2 112.5,637.4 119.4,637.5 119.4,634.8 	"/>
	<path class="st16" d="M130.4,638.7l1.8-2.2c0,0-5.8-4.4-10.4,0.6c-4.6,4.9,0.8,17,10.8,9.5v-5.8h-5.8v2.5h2.9v1.9
		c0,0-4.1,2.7-6.3-1.3C121.3,639.9,126,635.3,130.4,638.7z"/>
	<polygon class="st16" points="133.1,648.3 138.8,634.4 141,634.4 146.4,648.3 143.5,648.3 142.2,645.1 137.5,645.1 136.2,648.3 	
		"/>
	<polygon class="st16" points="138.4,642.3 141.3,642.3 139.8,638.4 	"/>
	<polygon class="st16" points="146.4,638.8 146.6,641.6 151.7,641.3 151.7,638.8 	"/>
	<path class="st16" d="M96.9,650.2v2.5h4.1v0.6l-2.5,2.7l0.5,2.1c0,0,4.1,0,3.2,2.7c-0.9,2.7-3.7-0.2-4.3-1.1l-1.6,2
		c0,0,2.2,4.5,6.2,2.6c4.1-1.8,2.7-7.7-0.7-8.1l3-3.2l-0.1-2.5L96.9,650.2z"/>
	<polygon class="st16" points="104.5,664.8 110.5,651.4 117.3,664.8 113.4,664.8 110.6,659 108.1,664.8 	"/>
	<polygon class="st16" points="110.5,661 109.5,663.9 112,663.9 	"/>
	<path class="st1" d="M149.1,600.7v4.3c0,0,9.1,0.5,14.1-1.8v-3.8C163.2,599.5,157.7,601.2,149.1,600.7z"/>
	<line class="st1" x1="152.8" y1="605.1" x2="152.8" y2="600.8"/>
	<rect x="96.8" y="606" class="st8" width="1.3" height="7.5"/>
	<path class="st8" d="M101.6,606.5l-2.7,2.5c0,0-1,0.8,0,1.8c1,1,2.9,3.1,2.9,3.1h1.5l-3.4-3.7c0,0-0.6-0.4,0-0.8
		c0.6-0.5,3.2-2.9,3.2-2.9H101.6z"/>
	<path class="st8" d="M103.8,606.5h1.2v6.4h4.5v1h-4.9c0,0-0.8,0-0.8-0.9C103.9,612,103.8,606.5,103.8,606.5z"/>
	<rect x="110.1" y="606.8" class="st8" width="1.5" height="7.4"/>
	<path class="st8" d="M113,614.4V608c0-0.4,0.1-0.7,0.4-1c0.2-0.2,0.5-0.3,0.8-0.2c0.4,0.1,0.7,0.3,0.9,0.6l4,5.8c0,0,0.4,0.4,0.5,0
		v-5.9h1.4v6.1c0,0.8-0.6,1.5-1.4,1.6c-0.3,0-0.6,0-0.9-0.2c-0.3-0.2-0.5-0.4-0.7-0.7l-3.2-4.9c0,0-0.3-0.3-0.4,0v5.3H113z"/>
	<rect x="122.3" y="607.2" class="st8" width="1.7" height="7.7"/>
	<polygon class="st8" points="124.7,607.2 126.5,607.2 128.4,610.1 130.5,607.2 132.5,607.2 129.6,611.1 132.8,614.9 130.5,614.9 
		128.5,611.9 126.4,614.9 124.4,614.9 127.3,610.9 	"/>
	<path class="st1" d="M96.8,698.7c0,0,21.8,3.4,47,0.9"/>
</g>
<polygon class="st1" points="643.3,374.3 643.3,375.9 641.8,375.9 641.8,377.6 643.3,377.6 643.3,379.2 645.2,379.2 645.2,377.6 
	646.6,377.5 646.6,375.7 645,375.8 645.1,374.3 "/>
<polygon class="st1" points="551,347.5 551,349.1 549.5,349.1 549.5,350.8 551,350.8 551,352.5 552.8,352.5 552.8,350.8 
	554.2,350.7 554.2,348.9 552.7,349 552.7,347.5 "/>
<polygon class="st1" points="658.2,176.7 658.2,178.3 656.7,178.3 656.7,180 658.2,180 658.2,181.7 660,181.7 660,180 661.5,180 
	661.5,178.2 659.9,178.2 659.9,176.7 "/>
<polygon class="st24" points="333.5,619 333.5,619.9 332.6,619.9 332.6,620.9 333.5,620.9 333.5,621.9 334.6,621.9 334.6,620.9 
	335.5,620.9 335.5,619.8 334.5,619.9 334.5,619 "/>
<polygon class="st25" points="150.5,601.7 150.5,602.5 149.7,602.5 149.7,603.4 150.5,603.4 150.5,604.2 151.4,604.2 151.4,603.4 
	152.1,603.3 152.1,602.4 151.3,602.5 151.4,601.7 "/>
<polygon class="st1" points="180.9,371.5 180.9,373.1 179.4,373.1 179.4,374.8 180.9,374.8 180.9,376.5 182.7,376.5 182.7,374.8 
	184.2,374.7 184.2,372.9 182.6,373 182.6,371.5 "/>
<polygon class="st26" points="332.5,158.3 332.5,160.2 330.7,160.2 330.7,162.4 332.5,162.4 332.5,164.4 334.8,164.4 334.8,162.3 
	336.6,162.3 336.6,160.1 334.6,160.2 334.7,158.3 "/>
<g>
	<g>
		<path class="st27" d="M408.6,556.1c0,0,0.1,1.5,1.3,2.3c1.3,0.8-1.3,2.9-1.3,2.9s-6.8,4.5-7,15c-0.2,10.5,1,52.8,1,52.8
			s1,9.9,9.7,11.3c8.7,1.5,30.4,6,59-1.5c0,0,7-0.8,7-9.3s0-53.3,0-53.3s1.3-9.7-7-15.3c0,0-3.7-1.2-0.6-3.5l3.9-1.7l-20.8-6
			l-34.9,3l-8,1.7l-1.9,1.1L408.6,556.1z"/>
		<path class="st27" d="M473.1,556.1c3.7-0.9,4.2-1.6,4.2-1.6s0-19.8,0-24.7c0-4.8-5.8-5.5-5.8-5.5c-33.6-6.4-61.9-1.5-65.4,0
			c-3.5,1.5-3.4,5-3.4,5v24.2c0,0,0.7,1.3,6.1,2.6"/>
		<path class="st28" d="M401.7,574.2c0,0,3.9,6.8,38.1,6.8c34.6,0,38.3-4.7,38.3-4.7l0.1,54.8c0,0-5,6.3-42.1,5.2
			c-37-1.1-33.6-7.8-33.6-7.8L401.7,574.2z"/>
		
			<rect x="424.8" y="587.3" transform="matrix(4.219371e-02 -0.9991 0.9991 4.219371e-02 -178.095 989.9016)" class="st29" width="4.9" height="1.1"/>
		
			<rect x="435.2" y="587.3" transform="matrix(4.219371e-02 -0.9991 0.9991 4.219371e-02 -168.1082 1000.3772)" class="st29" width="4.9" height="1.1"/>
		
			<rect x="443.5" y="587.4" transform="matrix(4.219371e-02 -0.9991 0.9991 4.219371e-02 -160.2874 1008.7296)" class="st29" width="4.9" height="1.1"/>
		<path class="st30" d="M430.6,585.3l-2.3,2.1c0,0-0.5,0.5-0.1,0.9c0.4,0.3,2.5,2.1,2.5,2.1l1.4,0.1l-2.8-2.4c0,0-0.6-0.3-0.1-0.8
			c0.5-0.5,0.5-0.5,0.5-0.5l2.1-1.6H430.6z"/>
		<path class="st30" d="M432.5,585.4l1,0.1l-0.2,3.8c0,0,0,0.4,0.3,0.4c0.5,0,3,0.1,3,0.1v0.6l-3.9-0.2c0,0-0.5,0-0.4-0.7
			C432.4,588.8,432.5,585.4,432.5,585.4z"/>
		<path class="st30" d="M439,590.3l1.1,0.1l0.2-3.6c0,0,0-0.5,0.4,0c0.4,0.5,0.4,0.5,0.4,0.5l0,0l1.8,2.8c0,0,0.2,0.3,0.7,0.3
			c0.5,0,0.8-0.2,0.8-0.6c0-0.3,0.2-4.5,0.2-4.5l-1-0.1l-0.2,3.5c0,0,0.1,0.6-0.4-0.1c-0.5-0.7-2.1-3.3-2.1-3.3s-0.1-0.3-0.8-0.3
			c-0.6,0-0.9,0.2-0.9,0.5c0,0.3,0,0.3,0,0.3L439,590.3z"/>
		<polygon class="st30" points="447,585.5 448.2,585.5 451.9,590.3 450.7,590.3 		"/>
		<polygon class="st30" points="452,585.5 450.8,585.5 446.9,590.3 448.1,590.3 		"/>
		<polygon class="st31" points="413.8,599 413.6,600.5 412,600.3 411.9,601.7 413.5,601.8 413.4,603.1 414.7,603.2 414.8,601.7 
			416.2,601.9 416.3,600.7 414.9,600.6 415,599.1 		"/>
		
			<rect x="412.5" y="604.7" transform="matrix(8.752465e-02 -0.9962 0.9962 8.752465e-02 -225.2514 964.9119)" class="st32" width="3.2" height="1.5"/>
		<polygon class="st33" points="415.4,602.5 415.2,603.6 417.5,607.4 418.7,607.5 419.3,601.1 418,601 417.7,604.9 416.1,602.5 		
			"/>
		<polygon class="st33" points="424.8,601.2 420.4,601.1 419.9,607.3 424.4,607.6 424.5,606.4 421.2,606.1 421.3,604.8 424.2,605 
			424.2,603.7 421.5,603.6 421.6,602.3 424.8,602.5 		"/>
		<path class="st33" d="M425.5,601.3l1.4,0.1l-0.3,4.2c0,0,0.1,0.8,1,0.9c1,0.1,1.2-0.5,1.3-0.7c0.1-0.3,0.3-4.3,0.3-4.3l1.3,0.1
			l-0.3,4.2c0,0-0.2,2.1-2.6,2c-2.4-0.2-2.6-1.8-2.5-2.1C425.2,605.3,425.5,601.3,425.5,601.3z"/>
		<path class="st33" d="M434.9,605.5c0.2-0.1,1.1-0.2,1.3-2c0.2-1.8-1.7-1.9-2.1-1.9c-0.3,0.1-2.6-0.1-2.6-0.1l-0.5,6.3l1.3,0.1
			l0.2-2l0.1-0.2l0.9,0.1l1,2l1.5,0.1l-1.2-2.3C434.8,605.7,434.7,605.5,434.9,605.5z M434.1,604.7l-1.5-0.1l0.2-1.7l1.5,0.1
			c0,0,0.8,0,0.7,0.9C434.9,604.8,434.1,604.7,434.1,604.7z"/>
		<path class="st33" d="M440.2,601.8c0,0-2.5-0.5-3.4,2.3c-0.9,2.7,1.3,3.9,2,4.1c0.8,0.2,3,0.5,3.8-2.4
			C443.5,602.6,440.9,601.8,440.2,601.8z M441.5,605.1c-0.2,2-1.8,1.8-1.8,1.8s-1.9,0.1-1.7-2c0.2-2.1,2.1-1.9,2.1-1.9
			S441.7,603,441.5,605.1z"/>
		
			<rect x="443.9" y="604" transform="matrix(8.752465e-02 -0.9962 0.9962 8.752465e-02 -197.3421 995.1288)" class="st34" width="1.2" height="2.5"/>
		<path class="st33" d="M418.6,609.6c0,0-1.6-1.9-4.2-0.5c-2.7,1.3-2,4.9-0.1,5.7c1.3,0.6,2.6,0.5,4.1-0.5l0.2-2.7l-2.6-0.2
			l-0.1,1.2l1.1,0.1l-0.1,0.9c0,0-1.5,1-2.6-0.5c-1.1-1.6,0.3-3.3,2-3.1c0.6,0.1,1.3,0.6,1.3,0.6L418.6,609.6z"/>
		<polygon class="st33" points="424.3,609 419.7,608.9 419.2,615.1 423.7,615.3 423.8,614.1 420.5,613.9 420.6,612.6 423.6,612.7 
			423.7,611.5 420.8,611.3 420.9,610.1 424.2,610.2 		"/>
		<polygon class="st33" points="424.5,615.2 425.1,609 426.4,609.1 428.8,613 429.1,609.2 430.5,609.3 429.9,615.5 428.8,615.4 
			426.2,611.4 425.9,615.3 		"/>
		<polygon class="st33" points="431.6,609.3 432.8,609.4 432.3,615.5 431,615.4 		"/>
		<path class="st33" d="M438,611.2c0,0-2.1-1.7-3.1,0.5c-1,2.2,1.6,3.4,2.9,2.1l0.8,0.9c0,0-2,2.1-4.4,0.2c-2.1-1.7-0.1-8,4.6-4.7
			L438,611.2z"/>
		<path class="st33" d="M443.9,610.4l-0.7,0.9c0,0-1.6-1.3-2.1-0.5c-0.5,0.8,0.7,1.2,1.6,1.4c0.9,0.2,1.6,1.3,1,2.5
			c-0.6,1.2-2.5,1.8-4.5,0.1l0.8-0.9c0,0,1.5,1.5,2.3,0.5c0.7-0.8-0.7-1.2-1-1.2s-1.9-0.5-1.6-2c0.2-1.6,1.6-2,2.7-1.6
			S443.9,610.4,443.9,610.4z"/>
		<path class="st35" d="M469.3,556.3c0,0-23.3,2.4-58.6,0"/>
	</g>
	<path class="st28" d="M410.6,633.7v-38.4c0,0,30.6,6.1,59.8,1.1v37.9"/>
	<polygon class="st28" points="470.4,611 468.5,609.4 462.1,609.4 456.2,610.7 449.4,616.7 449.4,622.1 453.4,626.1 456.6,625.5 
		459.5,626.6 462.5,626.6 465.2,629.3 467.7,633.5 468.7,629.3 470.4,627.7 	"/>
	<polyline class="st28" points="456.6,625.5 456.2,610.7 460.8,620.5 462.1,626.6 465.1,623.2 469.2,617.8 470.4,616.6 	"/>
	<polyline class="st28" points="469.8,628.4 468.8,626.6 460.8,620.5 449.4,622.1 456.2,610.7 	"/>
	<polyline class="st28" points="470.4,625 468.8,626.6 465.2,629.3 468.7,629.3 	"/>
	<polyline class="st28" points="468.5,609.4 466.4,611 463.8,611.9 457.9,614.2 456.3,614.8 449.4,616.7 458.6,615.8 466,614.5 
		470.4,613.2 	"/>
	<polyline class="st28" points="459.5,626.6 460.8,620.5 466,614.5 463.8,611.9 462.1,609.4 470.4,612.6 	"/>
	<polyline class="st28" points="470.4,618.4 468.9,618.2 466,614.5 	"/>
	<line class="st28" x1="460.8" y1="620.5" x2="468.9" y2="618.2"/>
	<circle class="st36" cx="449.4" cy="621.9" r="0.5"/>
	<circle class="st36" cx="460.8" cy="620.5" r="0.5"/>
	<circle class="st36" cx="462.1" cy="626.6" r="0.5"/>
	<circle class="st36" cx="464.9" cy="629.3" r="0.5"/>
	<circle class="st36" cx="464.9" cy="629.3" r="0.5"/>
	<circle class="st36" cx="462.1" cy="609.4" r="0.5"/>
	<circle class="st36" cx="456.2" cy="610.7" r="0.5"/>
	<circle class="st36" cx="458.7" cy="615.9" r="0.5"/>
	<circle class="st36" cx="466" cy="614.8" r="0.5"/>
	<circle class="st36" cx="464.9" cy="623.5" r="0.5"/>
</g>
</svg>
