<?xml version="1.0" encoding="utf-8"?>
<!-- Generator: Adobe Illustrator 26.1.0, SVG Export Plug-In . SVG Version: 6.00 Build 0)  -->
<svg version="1.1" id="Layer_1" xmlns="http://www.w3.org/2000/svg" xmlns:xlink="http://www.w3.org/1999/xlink" x="0px" y="0px"
	 viewBox="0 0 1920 800" style="enable-background:new 0 0 1920 800;" xml:space="preserve">
<style type="text/css">
	.st0{fill:#FFFFFF;stroke:#1D1E1C;stroke-width:4.2406;}
	.st1{fill:none;stroke:#1D1E1C;stroke-width:1.0602;}
	.st2{fill:#1D1D1B;stroke:#1D1E1C;stroke-width:1.0602;}
	.st3{fill:#1D1D1B;stroke:#1D1D1B;stroke-width:1.0602;}
	.st4{fill:none;stroke:#1D1D1B;stroke-width:1.0602;}
	.st5{fill:#1D1D1B;}
	.st6{font-family:'Arial-BoldMT';}
	.st7{font-size:14.5989px;}
	.st8{fill:#FFFFFF;stroke:#1D1D1B;stroke-width:3;}
	.st9{fill:none;}
	.st10{fill:none;stroke:#1D1D1B;stroke-width:3;}
	.st11{fill:none;stroke:#1D1D1B;}
	.st12{fill:#1D1E1B;stroke:#1D1D1B;}
	.st13{fill:#FFFFFF;stroke:#1D1D1B;}
	.st14{fill:none;stroke:#1D1D1B;stroke-width:1;}
	.st15{fill:#1D1D1B;stroke:#1D1D1B;}
	.st16{stroke:#1D1D1B;}
	.st17{fill:#FFFFFF;stroke:#000000;stroke-width:0.5;stroke-miterlimit:10.0004;}
	.st18{font-family:'SpoqaHanSansNeo-Bold';}
	.st19{font-size:12.9051px;}
	.st20{fill:#FFFFFF;stroke:#000000;stroke-width:0.5;stroke-miterlimit:9.9998;}
	.st21{font-family:'ArialRoundedMTBold';}
	.st22{font-size:13.2508px;}
	.st23{fill:#FFFFFF;stroke:#1D1D1B;stroke-width:0.5;}
	.st24{fill:none;stroke:#1D1E1B;stroke-miterlimit:10;}
	.st25{fill:#1D1D1B;stroke:#1D1E1B;stroke-miterlimit:10;}
	.st26{fill:#FFFFFF;stroke:#000000;stroke-width:3;stroke-miterlimit:10;}
	.st27{fill:none;stroke:#000000;stroke-miterlimit:10;}
	.st28{fill:none;stroke:#1D1D1B;stroke-miterlimit:10;}
	.st29{fill:#FFFFFF;stroke:#000000;stroke-width:0.5;stroke-miterlimit:10;}
	.st30{fill:#1D1D1B;stroke:#000000;stroke-width:0.5;stroke-miterlimit:10;}
	.st31{fill:#020202;stroke:#000000;stroke-miterlimit:10;}
	.st32{fill:#FFFFFF;stroke:#000000;stroke-miterlimit:10;}
	.st33{fill:#1D1D1B;stroke:#1D1D1B;stroke-width:1;stroke-miterlimit:4;}
	.st34{display:none;fill:#7BCFE7;stroke:#1D1D1B;}
	.st35{fill:none;stroke:#1D1D1B;stroke-width:1.2595;}
	.st36{fill:none;stroke:#1D1D1B;stroke-width:0.4524;}
	.st37{fill:none;stroke:#1D1D1B;stroke-width:0.6383;}
	.st38{fill:none;stroke:#1D1D1B;stroke-width:1.1013;}
	.st39{fill:#FFFFFF;stroke:#1D1D1B;stroke-width:2.67;}
	.st40{fill:none;stroke:#1D1D1B;stroke-width:0.6642;}
	.st41{fill:#1D1D1B;stroke:#1D1D1B;stroke-width:0.89;stroke-miterlimit:4;}
	.st42{fill:#1D1D1B;stroke:#1D1D1B;stroke-width:0.89;}
	.st43{fill:#FFFFFF;stroke:#1D1D1B;stroke-width:0.445;stroke-miterlimit:10;}
	.st44{fill:#FFFFFF;stroke:#1D1D1B;stroke-width:0.445;}
	.st45{fill:#FFFFFF;stroke:#1D1D1B;stroke-width:0.445;stroke-miterlimit:4.0002;}
	.st46{fill:#FFFFFF;stroke:#1D1D1B;stroke-width:0.89;}
	.st47{fill:#1D1E1B;stroke:#1D1D1B;stroke-width:1.0517;}
</style>
<g>
	<path class="st0" d="M307,453l1.1-357.7c0,0,1.8-2.9,4.4-5.5v-4.1l454.7-0.7l28.4,18.4l-4.1,372.8l-444,15.5L307,453z"/>
	<polyline class="st1" points="795.6,103.4 346.8,103 347.6,491.7 	"/>
	<path class="st1" d="M346.8,103c0,0-14.7-20.5-31.9-12.7l-2.8,2.2L346.8,103z"/>
	<line class="st1" x1="731.8" y1="478.3" x2="731.8" y2="103.3"/>
	<polygon class="st1" points="715.6,128.5 715.6,146.2 795.1,145.4 795.3,127.4 	"/>
	<rect x="378.3" y="123.7" class="st2" width="5.5" height="24.1"/>
	<path class="st2" d="M395.9,123.7l-10,9.4c0,0-1.9,2.6,0,5l10.8,9.6h6.3l-12.7-11.3c0,0-1.3-1.3,0-2.6c1.3-1.3,11.8-10.2,11.8-10.2
		H395.9z"/>
	<path class="st2" d="M404.6,123.7v21.9c0,0,0,1.7,2.1,2.1h17.7v-4.3h-15.1v-19.8H404.6z"/>
	<rect x="425.6" y="123.7" class="st2" width="5.6" height="24.1"/>
	<path class="st2" d="M434.9,147.7v-22.4c0,0-0.1-2.4,3.6-2.4c2.9,0,3.8,1.5,3.8,1.5l11.5,17.2c0,0,0.8,1.1,1.2,0v-18.7h4.4v22.5
		c0,0-0.4,2.4-4,2.4c-2.5,0-4.1-2.6-4.1-2.6l-11.1-16.9c0,0-0.7-0.8-1.2,0v19.4H434.9z"/>
	<rect x="463.3" y="122.9" class="st2" width="4.5" height="24"/>
	<polygon class="st2" points="469.8,122.9 475,122.9 481.5,132 488,122.9 493.3,122.9 485.1,134.9 494.7,146.9 488.3,146.9 
		481.7,137.8 475.6,146.9 469.3,146.9 478.5,134.9 	"/>
	<polygon class="st3" points="378.4,210.3 378.4,202 385.5,202 385.5,210.3 393.7,210.3 393.7,217.6 385.4,217.6 385.4,226.3 
		378.4,226.3 378.4,217.5 369.5,217.5 369.5,210.2 	"/>
	<path class="st4" d="M378.2,199.9v-8.6h19.1c0,0,8.9,0.6,8.9,13.3S395.6,217,395.6,217v-8.1c0,0,2.9-1.1,2.9-5.5
		c0-4.4-4.3-4.6-4.3-4.6h-8.4v1.4L378.2,199.9z"/>
	<polygon class="st4" points="410.2,223.9 417.8,223.9 417.8,210.2 431.2,210.2 431.2,223.9 438.6,223.9 438.6,190.1 431.1,190.1 
		431.1,204.1 417.3,204.1 417.3,190.1 410.2,190.1 	"/>
	<polygon class="st4" points="441.6,190.1 454.3,210.2 454.3,223.9 461.9,223.9 461.9,210 474,190.1 466,190.1 457.8,203.1 
		449.8,190.1 	"/>
	<polygon class="st4" points="476.3,190.1 476.3,196.4 485.8,196.4 485.8,222.8 485.8,223.9 493.3,223.9 493.3,196.2 502.5,196.2 
		502.5,190.1 	"/>
	<path class="st4" d="M521.2,189.1c-9.4,0-17,7.8-17,17.5s7.6,17.5,17,17.5s17-7.8,17-17.5S530.6,189.1,521.2,189.1z M521.2,217.2
		c-5.7,0-10.2-4.7-10.2-10.6s4.6-10.6,10.2-10.6c5.7,0,10.2,4.7,10.2,10.6S526.9,217.2,521.2,217.2z"/>
	<polygon class="st4" points="542.8,221.8 542.8,188.4 550.1,188.4 558.7,202.4 567.7,188.4 575.1,188.4 575.1,221.8 567.5,221.8 
		567.5,200.8 559,214.7 549.9,200.9 549.9,221.8 	"/>
	<path class="st4" d="M597.9,188.1h-7.4l-13.5,33.7h8.1l3-8.4h12l2.9,8.4h7.7L597.9,188.1z M589.3,207.5l4.6-10l4.8,10H589.3z"/>
	<polygon class="st4" points="612.7,188.1 620.6,188.1 627.4,198.6 634.4,188.1 641.9,188.1 631.6,203.8 644,221.8 634.5,221.8 
		627.4,209.3 620.7,221.8 612.3,221.8 623.5,203.9 	"/>
	<path class="st4" d="M403.3,242.7l3.9-4.3c0,0-12-12.5-25.6-0.4c-13.6,12.2,2.2,43.4,25.6,24.8l-3.9-4.6c0,0-10.4,10-18.3-0.6
		C377.1,247.1,391.2,230.2,403.3,242.7z"/>
	<polygon class="st4" points="409.1,241.7 414.9,241.7 420.2,250 426.8,241.7 432.7,241.7 423.6,254.3 432.7,267.5 426.3,267.5 
		420.4,258.3 415.1,267.5 408.1,267.5 417.2,254.6 	"/>
	<path class="st4" d="M456.8,259.8l3.8-6.1l-2.8-2.4l-3.8,5.3c-1.6-2.8-4.1-4.3-4.1-4.3c3.4-1,4.9-4.6,4.9-4.6
		c3.9-6.6-5.2-14.4-10.9-8.3c-5.7,6.1-0.4,11.3-0.4,11.3c-10.6,5.4-4.6,16.6,1.6,16.6c6.2,0,9.1-4.4,9.1-4.4l4,4.4l3-3L456.8,259.8z
		 M445.5,244.3c1.3-4.3,5.3-3.6,5.7-1.2c0.5,2.4,0.9,6.1-3.4,6.4C447.8,249.5,444.2,248.7,445.5,244.3z M447.7,263.6
		c-1.8,0.2-5.3,0.1-5.7-4.5c-0.5-4.6,3.7-5.3,3.7-5.3l4.8,4.6C453.6,261.4,449.4,263.4,447.7,263.6z"/>
	<polygon class="st4" points="468.8,232.7 468.8,266.4 490.6,266.4 490.6,260.6 474,260.6 474,232.7 	"/>
	<polygon class="st4" points="492.8,240.6 499.1,240.6 504.3,248.6 509.9,240.6 515.2,240.6 507.4,253 516.2,266.4 510.5,266.4 
		504.3,257.1 498.5,266.4 492.3,266.4 501.2,253.5 	"/>
	<polygon class="st3" points="592,257.1 592,265.3 680.7,237.6 680.7,230 	"/>
	<circle class="st4" cx="588.1" cy="283" r="6.8"/>
	<polyline class="st4" points="629.5,314.8 687.2,297.3 721.3,311.6 	"/>
	<polyline class="st4" points="683.2,426 631.5,367.8 624.6,322.2 	"/>
	<polyline class="st4" points="777.8,289.9 749.5,368.5 691.3,426.4 	"/>
	<polyline class="st4" points="594.6,280.9 688.8,250.9 775.6,282.9 	"/>
	<polyline class="st4" points="683.1,395.9 652.5,360.4 649.1,336.9 	"/>
	<polyline class="st4" points="753.8,305.3 731.8,358.2 691.4,396.5 	"/>
	<polyline class="st4" points="600.8,300.5 688.3,276.2 751.1,297.8 	"/>
	<polyline class="st4" points="683.4,454.8 615.3,381.4 596.6,308.6 	"/>
	<line class="st4" x1="756.1" y1="384.4" x2="690.8" y2="454.9"/>
	<circle class="st4" cx="780.5" cy="285.1" r="5.7"/>
	<circle class="st4" cx="756.1" cy="299.8" r="5.7"/>
	<circle class="st4" cx="725.6" cy="315.7" r="5.7"/>
	<circle class="st4" cx="623.8" cy="317" r="5.7"/>
	<circle class="st4" cx="595.9" cy="303.1" r="5.7"/>
	<circle class="st4" cx="648.1" cy="331.2" r="5.7"/>
	<circle class="st4" cx="687" cy="399.8" r="5.7"/>
	<circle class="st4" cx="759.5" cy="379.8" r="5.7"/>
	<circle class="st4" cx="687" cy="429.9" r="5.7"/>
	<circle class="st4" cx="687" cy="458.9" r="5.7"/>
	<polygon class="st3" points="688.8,250.9 688.8,258.1 774.8,286.6 774.8,283.7 776.4,281.1 	"/>
	<polygon class="st3" points="688.3,276.2 688.3,282.9 751.4,303.1 750.4,300.9 750.4,298.8 751.4,296.5 	"/>
	<polygon class="st3" points="628.7,375.5 635.9,369.4 626.4,322.4 624.5,323.2 622.4,322.7 620.2,321.5 	"/>
	<polygon class="st3" points="593.4,308.6 611.4,385.9 618.8,382.3 599.6,307.5 597.6,308.6 595.9,308.8 	"/>
	<polygon class="st3" points="685.8,424.1 742.6,366.5 748.6,369.4 691.7,426 690.4,425.2 688.3,424.3 	"/>
	<polygon class="st3" points="703.2,455.2 708.8,458.3 753,414.6 745.2,412.3 	"/>
	<polygon class="st3" points="606.1,405.5 613.7,402.8 668.7,456.6 662.8,460.9 	"/>
	<line class="st3" x1="378.2" y1="325.5" x2="557.4" y2="321.5"/>
	<text transform="matrix(0.9997 -2.525000e-02 2.525000e-02 0.9997 379.3906 297.9941)"><tspan x="0" y="0" class="st5 st6 st7">Supplement for </tspan><tspan x="0" y="17.5" class="st5 st6 st7">Cancer Management</tspan></text>
</g>
<g>
	<path class="st8" d="M680.1,151.7c0,0,1.7-4.5,6.9-5.4s255.8-10.6,255.8-10.6l50.3,19.1l-0.5,381.3c0,0-1.2,3.5-4.5,4
		s-239.3,20.1-239.3,20.1s-8.7,0.2-12.5-2.6s-53.9-30.2-53.9-30.2s-0.9,0.2-0.7-7.3C682,512.4,680.1,151.7,680.1,151.7z"/>
	<polygon class="st9" points="744.6,258 993.1,243.9 993.1,541.5 745.1,560.2 	"/>
	<path class="st10" d="M680.1,151.7c0,0,1.7-4.5,6.9-5.4s255.8-10.6,255.8-10.6l50.3,19.1l-0.5,381.3c0,0-1.2,3.5-4.5,4
		s-239.3,20.1-239.3,20.1s-8.7,0.2-12.5-2.6s-53.9-30.2-53.9-30.2s-0.9,0.2-0.7-7.3C682,512.4,680.1,151.7,680.1,151.7z"/>
	<path class="st11" d="M684.1,149.3c0,0,10.6-3.5,30.5,0c19.8,3.5,29.1,14.4,29.1,14.4L684.1,149.3z"/>
	<polyline class="st11" points="745.5,558 743.6,163.7 993.1,154.7 	"/>
	<line class="st11" x1="744.1" y1="250.2" x2="993" y2="237.7"/>
	<line class="st11" x1="744.6" y1="258" x2="993.1" y2="243.9"/>
	<rect x="767.5" y="195.7" class="st12" width="4.7" height="22.8"/>
	<path class="st12" d="M784.9,194.5l-9.7,9.7c0,0-2.5,2.5,0,4.8c3.2,2.9,10.8,9.4,10.8,9.4h5.7l-13-10.5c0,0-1.8-1.3-0.1-2.8
		s11-10.6,11-10.6H784.9z"/>
	<path class="st12" d="M793.1,194.5h4.4v19.3h15.2v3.4h-18c0,0-1.6-0.1-1.6-2S793.1,194.5,793.1,194.5z"/>
	<rect x="814.3" y="193.5" class="st12" width="4.9" height="23.4"/>
	<path class="st12" d="M823.7,216.3v-20.7c0-1,0.4-2,1.2-2.7c0.6-0.5,1.3-0.8,2.4-0.6c1.1,0.2,2.1,0.8,2.7,1.7l12.2,17
		c0,0,1.1,0.9,1.1-0.4s0-18.4,0-18.4h3.8v21.4c0,1.1-0.5,1.7-1.3,2.5c-0.8,0.6-3.1,0.6-4.1-0.2c-0.8-0.6-1.5-1.3-2.1-2.1
		c-2-2.9-8.2-12-10.6-15.5c-0.2-0.3-1.4-0.8-1.4,0c0,1.3,0,18.1,0,18.1L823.7,216.3L823.7,216.3z"/>
	<rect x="851.5" y="192.2" class="st12" width="4.3" height="23.2"/>
	<polygon class="st12" points="857.7,191.5 862.9,191.5 869.4,200.2 875.9,190.3 880.7,190.3 872.2,202.6 881.8,214.2 876,214.2 
		869.8,205.3 863.2,214.6 857.7,214.6 866.8,202.4 	"/>
	<polygon class="st12" points="768,274 768,280.1 762.1,280.1 762.1,289.2 768,289.2 768,295.1 777.1,295.1 777.1,288.3 
		782.9,288.3 782.9,279.8 776.9,279.8 776.9,274 	"/>
	<rect x="768.1" y="297.5" class="st13" width="9" height="26"/>
	<polygon class="st13" points="779.6,290.9 779.6,299.3 785.8,308.4 791.7,308.4 799.8,294.1 799.8,322.4 809.3,322.4 809.3,278 
		799.3,278 788.8,297 784.2,290.8 	"/>
	<polygon class="st13" points="813.4,277.3 842.8,276.6 842.8,284.9 821.7,285.3 821.7,294.3 840.6,293.8 840.6,302 821.7,302.5 
		821.7,312.3 843.5,311.8 843.5,320.4 813.4,321.9 	"/>
	<path class="st13" d="M876,286.4l5.3-7.2c0,0-15.9-13.4-30.4,2.4s1.2,55.1,31.3,29.9v-19l-16.5,0.7l0.2,7.6l8.3-0.2v6.7
		c0,0-12,10.3-18.6-4.1S864,276.8,876,286.4z"/>
	<path class="st13" d="M908.3,272.4h-7.6l-16.5,44.3h9l3.6-10.5l15.6-0.5l3.9,9l8.8-0.3L908.3,272.4z M899.3,296.8l5.4-12.4
		l4.8,12.4H899.3z"/>
	<rect x="925.8" y="286" class="st13" width="16.7" height="8.5"/>
	<path class="st13" d="M768.1,333.5v8.3H784l-8.6,9.9l-0.9,1.1l1.6,6c0,0,12-1.9,11.8,4.4s-8.7,8.9-15.2,1.9l-6.2,6.6
		c0,0,8.6,11.9,23.7,4.4c13.8-6.8,6.2-26.8-4.1-25.2l10.8-10.9l-0.4-7.4L768.1,333.5z"/>
	<polygon class="st13" points="796,376.7 816.5,331.2 836.6,374.1 825.4,374.8 816.3,356.4 807.7,376.7 	"/>
	<polygon class="st13" points="816.3,362.4 811.9,371.4 821.5,371.4 	"/>
	<path class="st11" d="M768.1,481.8l148.7-11.7L768.1,481.8z"/>
	<polygon class="st11" points="941.6,319.7 905.9,340.9 887.5,381.3 895.8,422.9 914.6,443.9 949.9,454.3 982.5,443 992.8,431.4 
		992.8,336.2 979.6,323.9 	"/>
	<polyline class="st11" points="992.8,360.5 989.6,368.1 978,378 951.8,395.7 938.5,404.7 912.8,417.9 895.8,422.9 897.4,410.6 
		895.8,394.3 916.8,383.4 930.7,350.8 	"/>
	<polyline class="st11" points="905.9,340.9 931.9,336.2 954.4,329.1 969.2,323.9 979.6,323.9 980.8,340.9 972.3,355.3 965,387 	"/>
	<polyline class="st11" points="992.8,343.3 980.8,340.9 954.4,329.1 930.7,350.8 931.9,336.2 941.6,319.7 954.4,329.1 972.3,355.3 
		993.1,347.9 	"/>
	<polyline class="st11" points="901.7,360 949.4,370 930.7,350.8 	"/>
	<line class="st11" x1="972.3" y1="355.3" x2="949.4" y2="370"/>
	<polyline class="st11" points="916.8,383.4 914,398.3 912.8,417.9 914.6,443.9 935.7,433.5 	"/>
	<polyline class="st11" points="938.5,404.7 935.7,433.5 949.9,454.3 960.9,444.8 964.8,418.6 969.2,403 987,398.5 992.9,394.3 	"/>
	<polyline class="st11" points="951.8,395.7 928.4,384.1 938.5,404.7 914,398.3 895.8,394.3 900.5,366.6 887.5,381.3 912.8,417.9 
		935.7,433.5 964.8,418.6 989.6,423.3 987,398.5 989.6,368.1 972.3,355.3 930.7,350.8 901.7,360 916.8,383.4 928.4,384.1 949.4,370 
		965,387 951.8,395.7 969.2,403 989.6,423.3 982.5,443 960.9,444.8 980.8,434 989.6,423.3 992.8,423.3 	"/>
	<line class="st11" x1="938.5" y1="404.7" x2="964.8" y2="418.6"/>
	<circle class="st12" cx="899.9" cy="366.4" r="1.8"/>
	<circle class="st12" cx="905.9" cy="340.7" r="1.8"/>
	<circle class="st12" cx="902.8" cy="359.9" r="1.8"/>
	<circle class="st12" cx="928.4" cy="384.2" r="1.8"/>
	<circle class="st12" cx="949.4" cy="370" r="1.8"/>
	<circle class="st12" cx="989.1" cy="367.6" r="1.8"/>
	<circle class="st12" cx="989.1" cy="422.9" r="1.8"/>
	<circle class="st12" cx="964.8" cy="418.6" r="1.8"/>
	<circle class="st12" cx="896.2" cy="394.3" r="1.8"/>
	<circle class="st12" cx="887.5" cy="381.2" r="1.8"/>
	<circle class="st12" cx="930.5" cy="351.3" r="1.8"/>
	<circle class="st12" cx="916.4" cy="383.1" r="1.8"/>
	<circle class="st12" cx="954.7" cy="329.1" r="1.8"/>
	<circle class="st12" cx="972.3" cy="355.3" r="1.8"/>
	<circle class="st12" cx="980.8" cy="339.8" r="1.8"/>
	<circle class="st12" cx="969.4" cy="323.1" r="1.8"/>
	<circle class="st12" cx="932.3" cy="335.7" r="1.8"/>
	<circle class="st12" cx="980.8" cy="323.9" r="1.8"/>
	<circle class="st12" cx="942.6" cy="319" r="1.8"/>
	<circle class="st12" cx="913.9" cy="398.4" r="1.8"/>
	<circle class="st12" cx="969.4" cy="403.6" r="1.8"/>
	<circle class="st12" cx="982.4" cy="443.1" r="1.8"/>
	<circle class="st12" cx="980.8" cy="433.6" r="1.8"/>
	<path class="st12" d="M912.8,416.2c1,0,1.8,0.8,1.8,1.8s-0.8,1.8-1.8,1.8S911,419,911,418S911.8,416.2,912.8,416.2z"/>
	<circle class="st12" cx="961.3" cy="444.8" r="1.8"/>
	<circle class="st12" cx="949.2" cy="454.1" r="1.8"/>
	<circle class="st12" cx="914.6" cy="443.9" r="1.8"/>
	<circle class="st12" cx="935.7" cy="433.6" r="1.8"/>
	<circle class="st12" cx="896.2" cy="422.9" r="1.8"/>
	<circle class="st12" cx="897.8" cy="411.2" r="1.8"/>
	<polygon class="st11" points="933.8,175.5 933.8,188.6 993,185.6 993,173.3 	"/>
	<line class="st11" x1="946.2" y1="175" x2="946.2" y2="187.9"/>
	<polygon class="st14" points="938.2,177.5 938.2,180.3 935.5,180.3 935.5,183.3 938.2,183.3 938.2,186.3 941.5,186.3 941.5,183.3 
		944,183.2 944,180 941.2,180.1 941.3,177.5 	"/>
</g>
<g id="Layer_1_00000019662566389059034470000010457339896356457139_">
</g>
<g>
	<polygon class="st8" points="79.9,222.8 87.5,219 355.9,206.7 394.1,222.8 396.5,227 397,633.8 389.4,639 129.6,658.4 123.9,658.4 
		79.9,627.7 	"/>
	<path class="st11" d="M123.9,658.4l-1.4-423.8C95.1,220.4,80,222.8,80,222.8s22.3-5.9,42.5,11.8l271.7-11.8l0.3,412.8"/>
	<polygon class="st9" points="122.5,326.3 393.8,312.2 394.2,633.8 386.7,639 123.9,658.4 	"/>
	<path class="st11" d="M123.9,658.4l-1.4-423.8C95.1,220.4,80,222.8,80,222.8s22.3-5.9,42.5,11.8l271.7-11.8l0.3,412.8"/>
	<line class="st11" x1="122.5" y1="318.7" x2="394.2" y2="305.9"/>
	<path class="st11" d="M122.8,326.3l271.4-14.1L122.8,326.3z"/>
	<rect x="148.9" y="261.1" class="st15" width="5.5" height="24.6"/>
	<rect x="201.1" y="259.1" class="st15" width="5.5" height="24.6"/>
	<rect x="242.2" y="257.7" class="st15" width="5.5" height="24.6"/>
	<path class="st15" d="M167.7,260.1l-10.8,11c0,0-2.1,2.8,0,4.4s12.9,10.3,12.9,10.3h6.9L162,274.6c0,0-2.8-1.2-0.5-3.7
		s2.3-2.5,2.3-2.5l9.9-8.3H167.7z"/>
	<path class="st15" d="M177.6,260.1h5v19.1c0,0,0,1.9,1.8,1.9c2.3,0,14.9,0,14.9,0v3.2H180c0,0-2.3,0-2.3-3.4
		C177.6,276.9,177.6,260.1,177.6,260.1z"/>
	<path class="st15" d="M210.7,283.2h5.6v-18c0,0-0.1-2.6,1.9,0s2,2.6,2,2.6l0,0l9.7,13.7c0,0,0.8,1.7,3.4,1.7c2.6,0,4-1.2,4-3
		s0-22.6,0-22.6h-5V275c0,0,0.4,3.2-2.1-0.1c-2.5-3.3-11.2-15.7-11.2-15.7s-0.8-1.4-3.9-1.4c-2.8,0-4.3,0.9-4.3,2.4s0,1.4,0,1.4
		L210.7,283.2L210.7,283.2z"/>
	<polygon class="st15" points="249.4,257.4 255.2,257.2 274.6,280.8 268.6,280.9 	"/>
	<polygon class="st15" points="274.1,256.8 268.3,256.9 249.9,281.3 255.8,281.2 	"/>
	<polygon class="st15" points="146.6,341.2 146.6,351.9 134.5,351.9 134.5,361.8 146.6,361.8 146.6,371.7 155.9,371.7 155.9,360.7 
		166.3,361.1 166.3,352.2 155.9,352.2 155.9,341.2 	"/>
	<rect x="145.2" y="374.5" class="st13" width="10.7" height="23.4"/>
	<polygon class="st13" points="157.9,363.6 157.9,371.7 176.7,397.9 185.9,397.9 185.9,350.4 176.7,350.4 176.7,379.5 163.2,362.8 	
		"/>
	<polygon class="st13" points="226.3,348.3 194.1,350.4 194.1,395.8 227.5,394.9 227.5,385.8 203.4,386.5 203.4,376.8 224.2,376.1 
		223.9,367.2 203.4,367.7 203.3,358.5 226.9,357.4 	"/>
	<path class="st13" d="M231.7,348.3h10.1l0.4,30.7c0,0,1,5.9,8.2,5.9c7.2,0,8.8-4,9.3-6.1s0-31.6,0-31.6h9.8v31.2c0,0,0,16-17.5,16
		s-19.8-11.5-19.8-14.2C232.1,377.6,231.7,348.3,231.7,348.3z"/>
	<path class="st13" d="M303.2,374.7c0,0-1-0.8,0.9-1.2c1.9-0.4,8.2-2.1,8.2-15.6s-14-12.7-16.7-12.7c-2.9-0.1-19.5,0.5-19.5,0.5
		l0.4,46.4h9.6v-14.5l0.4-1.2h6.7l9.1,14.2h11.2L303.2,374.7z M297,367.5h-11.3v-12.9v-0.1h11.1c0,0,5.8-0.2,5.8,6.5
		C302.6,367.8,297,367.5,297,367.5z"/>
	<path class="st13" d="M339.7,342.3c0,0-18.5-1.7-23.1,18.6c-4.6,20.3,12,27.7,17.6,28.5c6.1,0.9,22.3,1.6,26.1-20.2
		C364.3,346.5,344.6,342,339.7,342.3z M339,380.2c0,0-13.6,1.5-13.6-14s14.4-14.8,14.4-14.8s11.2-0.7,11.2,14.4
		C351,380.9,339,380.2,339,380.2z"/>
	<rect x="364" y="362.2" class="st13" width="18.5" height="8.9"/>
	<path class="st13" d="M185.9,413.5c0,0-12.8-12.4-31.2-1.2c-18.6,11.3-11.6,37.5,3.2,42.2c10.3,3.3,19.3,1.8,29.8-6.6V428
		l-19.1,0.2l0.2,8.5l8.3-0.2l0.2,6.6c0,0-10.5,8.7-19.3-1.9c-8.9-10.6,0.2-24.3,12.6-24c4.3,0.1,10.1,3.8,10.1,3.8L185.9,413.5z"/>
	<polygon class="st13" points="227.5,405.7 194.1,407.6 194.1,453.6 227.5,452.1 227.5,443.3 203.3,443.8 203.3,434.2 224.9,433.4 
		224.9,424.3 203.8,424.9 203.8,415.8 227.5,414.4 	"/>
	<polygon class="st13" points="233.4,451.1 233.4,405 243.1,405 263,431.8 263,404 272.9,404 272.9,449.1 264.4,449.5 243.3,422 
		243.5,451.1 	"/>
	<polygon class="st13" points="280.9,402.7 290.3,402.7 290.3,447.7 280.9,448.2 	"/>
	<path class="st13" d="M329.6,413.2c0,0-16.2-11.1-22.5,6c-6.1,16.6,14,24.2,22.5,13.3l6.6,5.9c0,0-13,17.1-31.5,4.7
		c-16.5-11-6.2-58.7,30.8-37.4L329.6,413.2z"/>
	<path class="st13" d="M372.1,402.9l-4.6,7.2c0,0-12.5-8.5-16-1.9c-3.4,6.3,5.7,8,12.3,9.2s12.2,8.2,8.8,17.7
		c-3.4,9.4-17.2,14.7-32.6,3.3l5.6-7.4c0,0,11.8,9.7,17,2.5c4.5-6.3-5.7-8-8.2-8.1c-2.4-0.1-14-2.2-13.4-13.9
		c0.6-11.8,10.3-15.4,18.3-13.6C367.4,399.6,372.1,402.9,372.1,402.9z"/>
	<polygon class="st11" points="394.2,237.8 329.9,239.7 329.9,253.7 394.2,251.8 	"/>
	<line class="st11" x1="343.6" y1="253.3" x2="343.6" y2="239.3"/>
	<polygon class="st11" points="335.1,242.5 335.1,245.3 332.4,245.3 332.4,248.3 335.1,248.3 335.1,251.3 338.4,251.3 338.4,248.3 
		340.9,248.2 340.9,245 338.1,245.1 338.2,242.5 	"/>
	<polygon class="st11" points="280.9,508.1 312.1,478.4 343.2,474.5 382.5,475.9 394.4,484.4 394.4,494.3 394.4,566.6 382.5,572.3 
		379.4,589.6 369.1,581.8 360.9,567.3 344.3,557 328.4,556.3 313.5,550.7 298.9,552.4 279.5,532.1 	"/>
	<path class="st11" d="M279.5,532.1l32.5-53.5c0.1-0.1,0.2-0.1,0.3,0l24.7,48.3l7.4,30c0,0,0.1,0.1,0.1,0l16.5-17.3l5.1-42.2
		l28.5-3.2v-3.9l-51.1-15.9l41.5,42.9l9.7,17.7v17l-33.2,15.1c-0.1,0-0.1,0.2,0,0.2l23.5,3.5c0.3,0,0.6-0.2,0.5-0.5l-2.7-94.3
		c0-0.1-0.1-0.1-0.2-0.1l-101.5,32.2l85-10.6"/>
	<line class="st11" x1="313.5" y1="550.7" x2="312.1" y2="478.4"/>
	<line class="st11" x1="394.4" y1="509.9" x2="360.9" y2="539.7"/>
	<polyline class="st11" points="384.8,556.4 336.1,525.4 330.3,556.4 	"/>
	<polyline class="st11" points="280,532.6 336.1,525.4 383.7,517.1 	"/>
	<line class="st11" x1="365.9" y1="497.5" x2="336.1" y2="525.4"/>
	<line class="st11" x1="360.9" y1="567.3" x2="360" y2="540.6"/>
	<line class="st11" x1="385.3" y1="571" x2="394.5" y2="557.3"/>
	<circle class="st16" cx="312.8" cy="478.4" r="2.4"/>
	<circle class="st16" cx="343.1" cy="473.6" r="2.4"/>
	<circle class="st16" cx="384.3" cy="517.1" r="2.4"/>
	<circle class="st16" cx="365.2" cy="498.1" r="2.4"/>
	<circle class="st16" cx="336.5" cy="525.4" r="2.4"/>
	<circle class="st16" cx="324.8" cy="503.1" r="2.4"/>
	<circle class="st16" cx="281.3" cy="507.8" r="2.4"/>
	<circle class="st16" cx="313.5" cy="550.7" r="2.4"/>
	<circle class="st16" cx="279.5" cy="533.5" r="2.4"/>
	<circle class="st16" cx="360.4" cy="540.6" r="2.4"/>
	<circle class="st16" cx="361.6" cy="567.9" r="2.4"/>
	<circle class="st16" cx="384.8" cy="556.4" r="2.4"/>
	<circle class="st16" cx="385.4" cy="571.1" r="2.4"/>
	<circle class="st16" cx="379.1" cy="589" r="2.4"/>
	<text transform="matrix(0.9985 -5.540000e-02 5.540000e-02 0.9985 146.5988 502.6738)" class="st17 st18 st19">Managem ent of</text>
	<text transform="matrix(0.9985 -5.540000e-02 5.540000e-02 0.9985 147.4575 518.1499)" class="st17 st18 st19">Neurobehavioral </text>
	<text transform="matrix(0.9985 -5.540000e-02 5.540000e-02 0.9985 148.3163 533.627)" class="st17 st18 st19">Disorders</text>
</g>
<g>
	<path class="st8" d="M1258.2,101.1c0,0,0.5-6.6,9.9-7.3c9.4-0.7,276.2-13.2,276.2-13.2l43.9,22.4l-0.2,398.5c0,0,1.2,2.4-4,3.1
		s-247.1,25-247.1,25l-78.7-37.6L1258.2,101.1L1258.2,101.1z"/>
	<polygon class="st9" points="1338.6,207.6 1587.3,191.7 1590.3,498.9 1542.8,507.3 1337.5,528 	"/>
	<path class="st11" d="M1261.7,99.2c0,0,2.8-5,21.5-3.3s48,16.1,48,16.1L1261.7,99.2z"/>
	<path class="st11" d="M1334.3,528.4V113.8c0,0,2.4-0.5,4,5l-1.4,410.8"/>
	<line class="st11" x1="1339.4" y1="116.7" x2="1588.2" y2="103"/>
	<polygon class="st11" points="1529.4,123.6 1529.4,137.3 1588.2,134.7 1588.2,121.4 	"/>
	<line class="st11" x1="1542.1" y1="136.7" x2="1542.1" y2="123.1"/>
	<rect x="1359.3" y="142.7" class="st15" width="5.3" height="25.3"/>
	<path class="st15" d="M1376.9,142.7l-10.3,10.4c0,0-2,1.7,0,4.1l11.5,9.6h6l-13.5-11.5c0,0-0.6-1.1-0.1-1.5
		c0.5-0.5,11.3-11.1,11.3-11.1H1376.9z"/>
	<path class="st15" d="M1384.9,142.7h4.8v19.6h15.6v3.3H1388c0,0-3.2,0.5-3.1-2.7C1385,159.7,1384.9,142.7,1384.9,142.7z"/>
	<rect x="1407.1" y="141.5" class="st15" width="4.7" height="24.1"/>
	<path class="st15" d="M1416,165v-22.3c0,0,0.3-2.5,3.5-2.9c2.8-0.4,4.8,3.5,4.8,3.5l9.7,14.4c0,0,1.5,1.3,1.7-0.4
		c0.1-1.7,0-17.8,0-17.8h3.9v22c0,0-0.4,2.4-3.2,2.7c-2.3,0.2-3.4-1.2-3.7-1.8c-0.3-0.5-0.6-1-1-1.4l-10.5-15c0,0-0.5-0.5-1.1,0
		c-0.4,0.4-0.1,0.6-0.1,0.6V165H1416z"/>
	<rect x="1444" y="139.6" class="st15" width="5.1" height="23.8"/>
	<polygon class="st15" points="1450.6,139.6 1455.7,139.6 1462.2,147.2 1468.5,138 1473.3,138 1464.8,150 1474.7,161.8 
		1469.5,161.8 1462.6,153 1455.9,161.8 1450.9,161.8 1459.5,149.9 	"/>
	<polygon class="st11" points="1338.3,199.5 1588.2,183.9 1588.2,191.7 1338,207.7 	"/>
	<path class="st13" d="M1361.2,237.3v-10.6l24.8-0.9c0,0,9.4,1.8,10.3,15.8s-8.7,15.8-8.7,15.8l8.7,13.1h-11.2l-5-8l3.9-0.4l-0.4-14
		c0,0,3.4-0.7,3-6.2s-3-6.9-5.3-6.7s-9.7,0.2-9.7,0.2l-0.2,2.1L1361.2,237.3z"/>
	<polygon class="st15" points="1361.2,240.4 1371.3,240.4 1371.3,250.2 1381.4,250.2 1381.4,260.3 1371.3,260.3 1371.3,272.3 
		1361.2,272.3 1361.2,261.2 1351.1,261.2 1351.1,251.4 1361.2,251.4 	"/>
	<polygon class="st13" points="1433.2,222.2 1401.8,224.3 1401.8,270.4 1433.2,268.6 1433.2,259 1411.4,260.1 1411.4,250.5 
		1430.3,249.5 1430.3,240.4 1411.4,241.3 1411.4,232.3 1433.2,231.2 	"/>
	<polygon class="st13" points="1438.8,267.2 1438.8,222.2 1447.3,222.2 1465.8,248.1 1465.8,221 1475.2,221 1475.2,265.1 
		1466.8,265.1 1447.7,238.1 1447.7,267.2 	"/>
	<path class="st13" d="M1501.7,216c-11.5,0-20.9,10.8-20.9,24.2s9.4,24.2,20.9,24.2s20.9-10.8,20.9-24.2S1513.2,216,1501.7,216z
		 M1501.7,253.9c-6.6,0-11.9-6.1-11.9-13.7c0-7.6,5.3-13.7,11.9-13.7s11.9,6.1,11.9,13.7C1513.6,247.8,1508.3,253.9,1501.7,253.9z"
		/>
	<polygon class="st13" points="1525.5,236.5 1525.5,245.6 1543.4,244.1 1543.4,235.5 	"/>
	<polygon class="st13" points="1361.2,282.8 1361.2,291.3 1382.7,290.6 1359.8,321.8 1359.8,328.7 1395.6,326.7 1395.6,317.7 
		1373.1,318.8 1395.6,288.8 1395.6,281.2 	"/>
	<polygon class="st13" points="1397.6,280.5 1408,280.5 1417.5,296.4 1428.2,278.4 1437.4,278.4 1423.2,305.1 1423.2,324.6 
		1412.4,324.6 1412.4,306.5 	"/>
	<polygon class="st13" points="1440.6,322.8 1440.6,277.5 1450.5,277.5 1461.2,294.7 1471.8,275.4 1481.5,275.4 1481.5,320.5 
		1472.5,320.7 1472.3,292 1461.1,311.3 1449.8,293.4 1449.8,322.8 	"/>
	<polygon class="st13" points="1518.6,272.3 1487.7,274.3 1487.7,319.3 1518.6,317 1518.6,308.1 1496.8,309.5 1496.8,299.1 
		1515.9,298.2 1515.9,289.7 1496.6,290.4 1497,281.9 1518.6,280.3 	"/>
	<line class="st11" x1="1359.8" y1="426" x2="1473.4" y2="416.4"/>
	<polyline class="st11" points="1498.9,391.9 1483.3,424.3 1498.9,452.4 	"/>
	<polyline class="st11" points="1564.8,387.9 1534.1,390.5 1517.1,424.1 1533.9,453.4 1564.8,450.3 	"/>
	<polyline class="st11" points="1509.8,438 1500.6,422.2 1509.8,405.2 1527.8,403 	"/>
	<polyline class="st11" points="1531.4,395.8 1506,397.6 1493.2,423.8 1506.5,446.3 	"/>
	<polyline class="st11" points="1528.9,415.1 1539.1,430.4 1556.8,428.8 	"/>
	<polyline class="st11" points="1551.4,400.4 1562.2,418.9 1581.6,416.4 1588.2,400.4 	"/>
	<polyline class="st11" points="1517.1,382.7 1531.4,350.8 1564.8,348.5 1580.9,377.5 1564.8,409.7 1536.7,412.3 	"/>
	<polyline class="st11" points="1562.9,321.5 1582.1,320.4 1588.2,331.9 	"/>
	<polyline class="st11" points="1542.8,368.3 1556.8,340.4 1584,338.5 1588.1,346.3 	"/>
	<circle class="st15" cx="1510.2" cy="438.8" r="3"/>
	<circle class="st15" cx="1551.4" cy="400.4" r="3"/>
	<circle class="st15" cx="1535.6" cy="413.4" r="3"/>
	<circle class="st15" cx="1570.1" cy="486.5" r="3"/>
	<circle class="st15" cx="1565.4" cy="450.2" r="1.2"/>
	<circle class="st15" cx="1560.4" cy="401.6" r="1.2"/>
	<circle class="st15" cx="1559.9" cy="358.1" r="1.2"/>
	<circle class="st15" cx="1524.7" cy="383.4" r="3"/>
	<circle class="st15" cx="1562.9" cy="321.7" r="3"/>
	<circle class="st15" cx="1499.9" cy="453.9" r="3"/>
	<polyline class="st11" points="1560.4,401.6 1571.6,378.6 1559.9,358.1 	"/>
	<polygon class="st15" points="1524.1,380.4 1536,356.3 1540.4,355.9 1526.9,383.4 	"/>
	<polygon class="st15" points="1562.9,349.9 1565.7,346.5 1583.3,377.2 1565.7,412.8 1563.8,408.3 1578.8,377.7 	"/>
	<polygon class="st15" points="1506.2,443.6 1505.5,448.4 1532.6,446 1547.3,416.5 1542.8,416.5 1530.5,441.8 	"/>
	<polyline class="st11" points="1541.5,440.5 1563,438.9 1574.9,459.6 1562.4,483.5 	"/>
	<line class="st11" x1="1518.3" y1="465.7" x2="1532" y2="490.1"/>
	<polyline class="st11" points="1564.8,456.5 1551.4,484 1563.6,506.7 	"/>
	<line class="st11" x1="1553.7" y1="456.5" x2="1565.4" y2="433.9"/>
	<polyline class="st11" points="1568.6,431.9 1583.3,458.2 1571.1,485.1 	"/>
	<polygon class="st15" points="1541.5,483.1 1538.7,487.6 1564.2,485.1 1562.9,480.5 	"/>
	<text transform="matrix(0.9983 -5.791000e-02 5.791000e-02 0.9983 1359.3452 382.8268)" class="st20 st21 st22">Digestive Enzymes</text>
	<text transform="matrix(0.9983 -5.791000e-02 5.791000e-02 0.9983 1360.266 398.6998)" class="st20 st21 st22">with Functional</text>
	<text transform="matrix(0.9983 -5.791000e-02 5.791000e-02 0.9983 1361.1868 414.5727)" class="st20 st21 st22">Oligosaccharides</text>
</g>
<path class="st8" d="M300.5,418.6l-0.3,49.3c0,0,0.1,2,2.7,2.9v1c0,0-2.7,1.2-2.7,7s0,227.3,0,227.3s-0.3,5.6,6.3,11.4
	s29.6,16.9,74,10.6c0,0,0.9-0.6,2.3,0c0,0,55.3,10.8,71.2-18.2c0,0,0.6-2.3,0.9-4.2c0.3-2,0-225,0-225s0.2-7.5-2.6-8.7
	c0,0-0.8-0.4,0-1.4s2-1.2,2.1-3.9s0-44.7,0-44.7s0.9-4.8-3.9-7.1c-4.8-2.3-21.9-6.3-72.9-6.3S302.3,411.1,300.5,418.6z"/>
<path class="st11" d="M300.2,481.2c0,0-1.4,7.5,77.4,7.5s77.3-8,77.3-8"/>
<path class="st11" d="M300.2,706.6c0,0-1.4,14.1,77.4,14.1s77.3-14.6,77.3-14.6"/>
<path class="st11" d="M444.7,713.4V535.6c-61,12-126.8,1.5-126.8,1.5v179c0,0,16,2.8,23.5,3.3c7.5,0.5,37.4,1.3,37.4,1.3l40.7-1.9
	C419.5,718.8,435.4,716.9,444.7,713.4z"/>
<path class="st11" d="M317.9,541.3c0,0,61.9,10.5,126.8-1.2"/>
<polygon class="st13" points="327.2,554 327.2,556.9 324.8,556.9 324.8,561.6 327.2,561.6 327.2,565.2 331,565.2 331,562.3 
	333.6,562.3 333.6,557.7 331.2,557.7 331.2,554 "/>
<rect x="327.1" y="566.7" class="st13" width="3.8" height="14.6"/>
<polygon class="st13" points="332.4,564.1 332.4,568.2 335.8,574 338.1,574 342.3,567.7 342.3,582.6 347.4,582.6 347.4,558.9 
	342.3,558.9 337.3,567.5 335.1,564 "/>
<polygon class="st13" points="349.5,558.9 349.5,583 367,583.3 367,579 354.7,578.9 354.7,574 364.9,574 364.9,569.3 354.6,569.1 
	354.7,564.1 367,564.3 367,559.6 "/>
<path class="st13" d="M386.5,566.5l3.3-3.9c0,0-10.3-7.7-18.5,1c-8.1,8.8,1.5,30.2,19.2,16.9v-10.3h-10.2v4.5h5.2v3.4
	c0,0-7.3,4.8-11.2-2.3C370.4,568.6,378.7,560.4,386.5,566.5z"/>
<polygon class="st13" points="391.3,583.4 401.4,558.8 405.5,558.8 415,583.4 409.9,583.4 407.5,577.9 399.3,577.9 396.8,583.4 "/>
<polygon class="st13" points="400.8,572.8 406,572.8 403.2,565.9 "/>
<polygon class="st13" points="415,566.6 415.2,571.5 424.3,571.1 424.3,566.6 "/>
<path class="st13" d="M327.1,587v4.4h7.3v1l-4.4,4.9l0.9,3.7c0,0,7.3,0.1,5.7,4.8s-6.6-0.3-7.6-2l-2.9,3.5c0,0,3.9,7.9,11.1,4.7
	c7.2-3.3,4.8-13.7-1.3-14.4l5.3-5.8l-0.1-4.4L327.1,587z"/>
<polygon class="st13" points="340.6,612.7 351.2,589 363.2,612.7 356.5,612.7 351.4,602.5 347.1,612.7 "/>
<polygon class="st13" points="351.3,606.1 349.5,611.2 353.9,611.2 "/>
<path class="st11" d="M419.7,499.1v7.7c0,0,16.2,0.9,24.9-3.1v-6.8C444.7,496.9,435.1,499.9,419.7,499.1z"/>
<line class="st11" x1="426.4" y1="506.9" x2="426.4" y2="499.2"/>
<rect x="326.9" y="508.4" class="st15" width="2.3" height="13.2"/>
<path class="st15" d="M335.4,509.3l-4.7,4.4c0,0-1.8,1.4,0,3.2s5.2,5.5,5.2,5.5h2.6l-6.1-6.6c0,0-1-0.7,0-1.5s5.7-5.1,5.7-5.1
	L335.4,509.3L335.4,509.3z"/>
<path class="st15" d="M339.4,509.3h2.2v11.3h7.9v1.8h-8.7c0,0-1.5,0.1-1.4-1.7C339.5,519,339.4,509.3,339.4,509.3z"/>
<rect x="350.5" y="509.9" class="st15" width="2.7" height="13.1"/>
<path class="st15" d="M355.8,523.4v-11.5c0-0.7,0.2-1.3,0.7-1.7c0.3-0.3,0.8-0.5,1.5-0.4s1.3,0.5,1.6,1.1l7.1,10.3
	c0,0,0.6,0.7,0.9-0.1v-10.6h2.4v10.9c0,1.4-1,2.7-2.5,2.8c-0.5,0-1.1,0-1.6-0.4c-0.5-0.3-0.9-0.7-1.2-1.2l-5.7-8.7
	c0,0-0.6-0.5-0.8,0v9.4h-2.4V523.4z"/>
<rect x="372.1" y="510.5" class="st15" width="3" height="13.7"/>
<polygon class="st15" points="376.5,510.5 379.7,510.5 383,515.8 386.7,510.5 390.2,510.5 385.1,517.5 390.8,524.2 386.7,524.2 
	383.1,518.9 379.4,524.2 376,524.2 381,517.2 "/>
<path class="st11" d="M327,672.9c0,0,38.6,6,83.4,1.6"/>
<path class="st8" d="M529.1,551.7c0-6.2,0-24.7,0-24.7s-0.9-4.3,6.7-5.8c7.6-1.5,59.9-3.4,64.7,4c0,0,2,0.8,2.1,6.2s0,21.2,0,21.2
	s0.8,5.1-5.1,6c-1.4,0.2-2.7,1.1-3.2,2.4c-0.5,1.2-0.3,3.1,2.7,3.2c3.7,0.2,1.1,6.1,4.6,9.4c5.5,5.3,4,11.4,4,11.4l-0.5,184.6
	c0,0,0,5.8-7.9,9s-44.8,7-68.1-1.7c0,0-5.3-1.1-5.3-9.9c0-8.8,0-184.6,0-184.6s-0.4-7,5.3-11.2c0.9-0.7,1.5-1.7,1.7-2.9
	c0.3-2.2,1.3-5.5,4.1-5.9c3.2-0.5,3.4-2.1-0.9-3.9C529.8,556.8,529.1,555.8,529.1,551.7z"/>
<path class="st9" d="M533.8,630.4c0,0,30.2,5.8,61.7,1.5l-1.8,131.8c0,0-34.7,4.7-61.5-1.4L533.8,630.4z"/>
<path class="st10" d="M529.1,551.7c0-6.2,0-24.7,0-24.7s-0.9-4.3,6.7-5.8c7.6-1.5,59.9-3.4,64.7,4c0,0,2,0.8,2.1,6.2s0,21.2,0,21.2
	s0.8,5.1-5.1,6c-1.4,0.2-2.7,1.1-3.2,2.4c-0.5,1.2-0.3,3.1,2.7,3.2c3.7,0.2,1.1,6.1,4.6,9.4c5.5,5.3,4,11.4,4,11.4l-0.5,184.6
	c0,0,0,5.8-7.9,9s-44.8,7-68.1-1.7c0,0-5.3-1.1-5.3-9.9c0-8.8,0-184.6,0-184.6s-0.4-7,5.3-11.2c0.9-0.7,1.5-1.7,1.7-2.9
	c0.3-2.2,1.3-5.5,4.1-5.9c3.2-0.5,3.4-2.1-0.9-3.9C529.8,556.8,529.1,555.8,529.1,551.7z"/>
<path class="st11" d="M534,558.6c0,0,39.6,4.5,61.4,1"/>
<path class="st11" d="M523.8,588.7c0,0,0.3,6.7,39.4,6.7s42.3-4.1,42.3-4.1"/>
<path class="st11" d="M523.8,757.9c0,0,1.7,6.9,41,7.3c39.3,0.5,40.4-6.2,40.4-6.2"/>
<path class="st11" d="M523.8,606.8c0,0,4,3.2,10,3.4v3.7c0,0-7.7-0.7-10-3.5V606.8z"/>
<path class="st11" d="M595.5,611.7c0,0,7.5-0.2,10.1-2.4v3.9c0,0-3.1,2.4-10.1,2.1V611.7z"/>
<rect x="544.4" y="609.2" class="st15" width="1.3" height="7.6"/>
<path class="st15" d="M550.5,609.2l-3.7,3.1c0,0-0.8,1,0,1.9l3.7,3.5h2l-4.3-4c0,0-0.3-0.4,0-0.8c0.3-0.4,4.2-3.7,4.2-3.7H550.5z"/>
<path class="st15" d="M553.3,609.4v8c0,0,0.1,0.8,1.2,0.8c1.2,0,6.1,0,6.1,0v-1.3h-5c0,0-0.8,0.2-0.8-0.6s0.1-6.9,0.1-6.9H553.3z"/>
<rect x="561.4" y="609.8" class="st15" width="1.7" height="8.3"/>
<rect x="575.4" y="609.8" class="st15" width="1.7" height="8.3"/>
<path class="st15" d="M564.7,618.1v-7c0,0,0-1,1.4-1c1,0,1.6,0.8,1.6,0.8l3.9,5.6c0,0,0.8,0.6,0.8-0.1c0-0.7,0-6.4,0-6.4h1.6v7.7
	c0,0-0.1,1.1-1.7,1.1c-1.1,0-1.7-0.9-1.7-0.9l-3.9-5.7c0,0-0.3-0.3-0.5,0v5.8h-1.5V618.1z"/>
<polygon class="st15" points="578.1,609.8 579.8,609.8 582.1,613.1 584.5,609.8 586.3,609.8 583.2,614.2 586.3,618.1 583.9,618.1 
	581.9,615.3 580.1,618.1 578.1,618.1 580.8,614.1 "/>
<path class="st11" d="M593.7,763.7l1.8-131.8c-30.5,4.3-61.7-1.5-61.7-1.5l-1.6,131.9"/>
<path class="st23" d="M570,639v3l3,1.1v5.2l-3.6,1.4l0.2,3l13.8-5.6v-3.3L570,639z M575.8,647.3v-3.1l3.8,1.6L575.8,647.3z"/>
<path class="st23" d="M573.7,662.3c0,0-3.4-4,0.5-6.6s8.8,1.8,4.7,6.6l2.1,1.8c0,0,5-4.5,1-9.7s-11.2-1.9-12.1,1.5
	c-0.9,3.4-0.6,6.2,1.9,8.5L573.7,662.3z"/>
<polygon class="st23" points="580.3,665 580.3,668.7 569.4,668.7 569.4,671.8 580.3,671.8 580.3,675.5 583,675.5 583,665 "/>
<polygon class="st23" points="569.4,680.7 569.4,683.7 575.3,683.7 582.6,688.5 582.6,685 577.6,682.2 583,679.1 583,676.2 
	575.7,680.7 "/>
<polygon class="st23" points="572.4,688.5 572.4,691.1 568.7,691.1 568.7,694.3 572.4,694.3 572.4,697.3 575.4,697.3 575.4,694.2 
	578.5,694.2 578.5,691.2 575.3,691.2 575.3,688.5 "/>
<path class="st23" d="M579.4,691.2h3.2v6.9c0,0-0.4,3.8-4.8,3.8c-4.4,0-4.9-3.1-5.1-3.6l3.6-0.1c0,0,0,0.8,1.4,0.8s1.9-1.1,1.9-1.1
	L579.4,691.2z"/>
<path class="st23" d="M568.7,702.9L568.7,702.9l-0.1,2.9h4.3v2.2l-4.3,2.9v3.5l4.9-3.4c0,0,0.1,2.8,4,2.8s4.6-3.4,4.6-3.4v-7.5
	H568.7z M579.5,709.5c0,0-0.1,1.5-1.8,1.5s-1.6-1.3-1.6-1.3v-4h3.4V709.5z"/>
<path class="st23" d="M575.4,714.9c-3.9,0-7.1,3.2-7.1,7.1s3.2,7.1,7.1,7.1s7.1-3.2,7.1-7.1S579.3,714.9,575.4,714.9z M575.4,725.8
	c-2.1,0-3.8-1.7-3.8-3.8s1.7-3.8,3.8-3.8s3.8,1.7,3.8,3.8S577.5,725.8,575.4,725.8z"/>
<polyline class="st11" points="552.1,725.8 545.4,731.7 552.1,738.1 "/>
<line class="st11" x1="560" y1="730.5" x2="567.2" y2="737"/>
<path class="st11" d="M561.7,732l-9.5,8.8c0,0-6.7,5.4-1,11.8l5.7,6.1"/>
<path class="st11" d="M562.9,733.1l-10.3,9.8c0,0-4.6,3.8-0.5,8.5l5.9,6.2"/>
<path class="st11" d="M564.8,734.9l-8.8,8.8c0,0-4.1,3.1-0.8,6.7c3.3,3.6,5.5,5.5,5.5,5.5"/>
<path class="st11" d="M554.5,761.6l10.7-10.1c0,0,2.1-2.1,0.3-4.2c-1.8-2.1-6.6-6.6-6.6-6.6"/>
<path class="st11" d="M556.9,764l9.8-9.3c0,0,1.2-1.1,2.1-2.8c1.2-2.4,0.6-5.4-1.4-7.3l-6.4-6"/>
<path class="st11" d="M562.1,737.6l7.9,7.3c0,0,2.5,2.3,1.4,6.2c-0.4,1.4-1.2,2.6-2.2,3.6l-10.7,10.5"/>
<line class="st11" x1="557.6" y1="742" x2="563.8" y2="748.2"/>
<line class="st11" x1="561.7" y1="754.9" x2="555.9" y2="749.1"/>
<path class="st11" d="M554,761.1l4.2,4.2L554,761.1z"/>
<polygon class="st15" points="553.9,761 554.9,762 564.1,753.8 563.4,753.1 563,752.7 "/>
<polygon class="st15" points="546.8,730.5 554.5,738.6 555.7,737.6 547.9,729.5 "/>
<line class="st11" x1="549.3" y1="728.3" x2="557.1" y2="736.2"/>
<line class="st11" x1="550.4" y1="727.3" x2="558.2" y2="735.2"/>
<polygon class="st15" points="555.4,743.1 556.5,744.2 565.4,735.5 564.3,734.4 "/>
<polygon class="st15" points="563.6,760.2 568.3,765.3 571,765.3 564.8,759 "/>
<path class="st15" d="M562.2,761.6l3.3,3.7L562.2,761.6z"/>
<path class="st15" d="M560.7,763l2.2,2.2L560.7,763z"/>
<line class="st11" x1="567.7" y1="759" x2="573.9" y2="765.3"/>
<circle class="st15" cx="569.2" cy="738.6" r="0.9"/>
<circle class="st15" cx="550.4" cy="757.8" r="0.9"/>
<circle class="st15" cx="543.2" cy="733.8" r="0.9"/>
<circle class="st15" cx="576.7" cy="763.2" r="0.9"/>
<circle class="st15" cx="574.4" cy="761.4" r="0.4"/>
<circle class="st15" cx="571.7" cy="741" r="0.4"/>
<circle class="st15" cx="572.3" cy="759.4" r="0.2"/>
<circle class="st15" cx="573.9" cy="743" r="0.2"/>
<circle class="st15" cx="548.1" cy="755.2" r="0.4"/>
<circle class="st15" cx="545.6" cy="736.2" r="0.4"/>
<circle class="st15" cx="546.1" cy="753.3" r="0.2"/>
<circle class="st15" cx="547.7" cy="738.4" r="0.2"/>
<path class="st8" d="M663.7,291.3c0,0,1.2-4.6,4.4-6.6h101.7c0,0,14.7-1.1,22.1,8.9l-2.1,372.6l-97.3,3.7l-28-18.8L663.7,291.3z"/>
<polygon class="st9" points="692.5,633.8 692.6,669.9 789.8,666.2 790.1,631.1 "/>
<path class="st10" d="M663.7,291.3c0,0,1.2-4.6,4.4-6.6h101.7c0,0,14.7-1.1,22.1,8.9l-2.1,372.6l-97.3,3.7l-28-18.8L663.7,291.3z"/>
<path class="st11" d="M692.1,290.6c0,0,0.4-7.4-24.5-3.4l-1.1,1.1L692.1,290.6z"/>
<polyline class="st11" points="692.6,669.9 692.1,290.6 788.1,291.6 "/>
<polyline class="st11" points="790.1,620.8 780.5,620.8 780.5,666.5 780.5,631.1 692.5,633.8 "/>
<line class="st11" x1="780.5" y1="631.1" x2="790.1" y2="631.1"/>
<path class="st11" d="M692.5,621.5c0,0,34.2,8.1,56,46.2"/>
<path class="st11" d="M692.5,604.2c0,0,47.4,9,74.5,62.9"/>
<path class="st11" d="M692.5,596.7c0,0,53,8.2,80.8,70.1"/>
<polyline class="st11" points="692.6,655.9 699.3,660 703.9,669.5 "/>
<polyline class="st11" points="720.6,668.8 714.9,661.2 705.7,654.8 699.3,660 "/>
<polyline class="st11" points="692.6,641.5 702.5,646.9 705.7,654.8 "/>
<path class="st11" d="M739.7,668.1c0,0-22.4-31.2-47.1-38.8"/>
<path class="st11" d="M692.6,632.1c0,0,13,6.2,17.6,13.9l8.9,5.8l3.9,7.3l4.8,6.1h7.7l0.8-1.5"/>
<line class="st11" x1="714.9" y1="661.2" x2="722.7" y2="658.7"/>
<line class="st11" x1="702.5" y1="646.9" x2="710.2" y2="646"/>
<line class="st11" x1="705.1" y1="640.3" x2="712" y2="639.8"/>
<line class="st11" x1="719.1" y1="651.8" x2="725.7" y2="651.8"/>
<polygon class="st24" points="745.9,310.2 745.9,315.9 751.1,318 751.1,320.7 756.4,323.2 756.4,320.1 766.8,324.8 766.8,328.8 
	762.9,328.8 763.1,333.6 772,333.6 772,321.9 "/>
<polygon class="st25" points="751.3,322.8 751.3,328.1 745.9,328.1 745.9,333.2 751.3,333.2 751.3,338.8 756.3,338.8 756.3,333.2 
	761.4,333.2 761.4,328 756,328 756,324.7 "/>
<polygon class="st24" points="745.9,341.7 771.2,341.7 771.2,347.9 751.4,347.9 751.4,360.4 745.9,360.4 "/>
<polygon class="st24" points="745.9,365.1 771.2,365.1 771.2,371.3 751.4,371.3 751.4,383.8 745.9,383.8 "/>
<circle class="st24" cx="758.5" cy="399" r="13.3"/>
<circle class="st11" cx="758.5" cy="399" r="7.9"/>
<path class="st24" d="M723.1,327.2l-2.9,3.1c0,0-6.1-5.3-3.2-13.2s10.9-6.9,10.9-6.9s9.3-0.1,9.9,10.7c0.4,6.4-3.5,8.9-3.5,8.9
	l-2.7-2.8c0,0,3.8-4.9,0.6-9.3s-8.9-1.7-10.1-0.3C720.2,319.5,719.7,324.1,723.1,327.2z"/>
<polygon class="st24" points="716.7,349.7 716.7,333.6 737.8,333.6 737.8,349.7 733.5,349.7 733.5,338.8 729.2,338.8 729.2,348.6 
	725.3,348.6 725.3,338.8 720.7,338.8 720.7,349.7 "/>
<polygon class="st24" points="716.7,354.2 716.7,358.5 729.6,358.5 716.7,368.8 716.7,372.5 737.2,372.5 737.2,368.5 725.2,368.5 
	737.2,358.7 737.2,354.2 "/>
<polygon class="st24" points="737.2,376.7 737.2,393.4 733.2,393.4 733.2,387.5 716.7,387.5 716.7,382.8 733.8,382.8 733.8,376.7 
	"/>
<path class="st24" d="M716.7,397.1v4.3h6.9v3.8l-6.9,4.8v5l7.4-5c0,0,1.1,4.3,6.4,4.3c5.3,0,6.7-4.3,6.7-4.3v-12.9L716.7,397.1
	L716.7,397.1z"/>
<rect x="716.7" y="419.1" class="st24" width="20.6" height="3.7"/>
<path class="st24" d="M723.1,444.5l-2.9,3.1c0,0-6.1-5.3-3.2-13.2c2.9-7.9,10.9-6.9,10.9-6.9s9.3-0.1,9.9,10.7
	c0.4,6.4-3.5,8.9-3.5,8.9l-2.7-2.8c0,0,3.8-4.9,0.6-9.3s-8.9-1.7-10.1-0.3C720.2,436.8,719.7,441.4,723.1,444.5z"/>
<path class="st13" d="M727.4,401.4h6v6c0,0-0.2,2.8-3,2.8s-3-3.3-3-3.3V401.4z"/>
<path class="st11" d="M741.1,468.1v111.4V468.1z"/>
<g>
	<path class="st26" d="M1473.9,475.8c-0.3-2.1-0.6-6.6-8.7-6.4s-15.7-1.7-18.2,5s-2.8,27.4-10.6,30c-7.8,2.6-9.8,46.9-8.6,49.4
		s5.4,4,2.3,6.7c-3.1,2.8-12.8,3.2-16.4,18.2c-3.5,15-0.3,158-0.3,158s-1.1,6.7,12.5,9.9s70,5,77.4-5.2c0,0,4.3-2.9,4.3-10.4
		s0-150.2,0-150.2s-1.7-14.2-15.6-19.6c0,0-3.5-1.1,0.8-7c0,0-0.2-35.4-6-47.8C1485.4,503.3,1478,504.8,1473.9,475.8z"/>
	<path class="st27" d="M1427.9,553.8c0,0,30.6,9.6,65,0.5"/>
	<path class="st27" d="M1507.7,586.8c0,0,2.9,4-42.8,5.4c-45.7,1.4-52.5-4.5-51.8-6.7"/>
	<path class="st28" d="M1416.4,614.2c0,0,26,9.5,78.9,2.8v112.5c0,0-43.1,13.5-78.9-2.8V614.2z"/>
	<polygon class="st29" points="1419.8,644.5 1426.1,629.8 1432.6,629.9 1432.5,634.6 1429.6,634.7 1429.7,632.6 1427.8,632.7 
		1425.5,638.5 1426.8,638.5 1425.9,641.4 1424.2,641.4 1423.1,644.6 	"/>
	<polygon class="st30" points="1429.9,635.7 1429.9,638.5 1427.5,638.5 1426.7,641.3 1429.6,641.3 1429.5,644.2 1432.4,644.3 
		1432.4,641.1 1435.3,641.2 1435.3,638.3 1432.5,638.3 1432.5,635.5 	"/>
	<polygon class="st29" points="1434.8,629.5 1438.5,629.6 1441,634 1444.2,629.6 1447.4,629.7 1443,636.2 1447.9,643.9 
		1444.2,643.9 1441.2,639 1438,644.3 1434.2,644.3 1439.2,636.6 	"/>
	<path class="st29" d="M1457.8,633l2-2c0,0-4.7-5.5-10.5-0.1s1.2,18.9,10.4,10.1l-1.8-2.2c0,0-3.5,3.6-6.4,0.1c-2.5-3,0.4-7,2.5-7.2
		C1456.2,631.5,1456.6,631.9,1457.8,633z"/>
	<polygon class="st29" points="1471.6,628.1 1461.6,628.6 1461.4,642.7 1471.5,642.5 1471.5,639.7 1464.1,639.8 1464.2,636.9 
		1470.5,636.9 1470.5,634 1464.2,634 1464.3,631.2 1471.6,630.9 	"/>
	<polygon class="st29" points="1473.4,628.2 1473.2,642.4 1483.1,642.1 1483.2,639.2 1476.1,639.2 1476.3,628.2 	"/>
	
		<rect x="1485" y="630.6" transform="matrix(1.293491e-02 -0.9999 0.9999 1.293491e-02 833.7727 2111.7754)" class="st20" width="3.1" height="6"/>
	<polygon class="st29" points="1419.3,648 1419.2,662.6 1429.3,662.4 1429.4,659.4 1422.3,659.5 1422.6,648.1 	"/>
	
		<rect x="1425.2" y="653.4" transform="matrix(1.293491e-02 -0.9999 0.9999 1.293491e-02 758.8799 2078.938)" class="st20" width="14.5" height="3.3"/>
	<path class="st29" d="M1446.7,651l1.9-2.3c0,0-7.1-5.3-11.5,1.4c-4.7,7.2,4.1,16.8,11.7,9.4l0.1-6.7l-5.9-0.1v2.9h3v2
		c0,0-5.8,3.5-6.8-2.5C1438.2,650.4,1444.2,648.5,1446.7,651z"/>
	<polygon class="st29" points="1450.8,646.8 1450.6,661 1453.9,661.1 1454,655.2 1459.5,655.2 1459.4,661.1 1462.5,661.2 
		1462.7,646.3 1459.6,646.3 1459.5,651.8 1454,651.7 1454.1,646.2 1450.8,646.2 	"/>
	<polygon class="st29" points="1463.7,646.3 1463.7,649.1 1467.9,649.1 1467.8,660.5 1471.2,660.6 1471.4,649.2 1475.3,649.2 
		1475.4,646.5 	"/>
	<path class="st27" d="M1495.8,673.3c0,0-30.7-10.6-34.1,22c-2.4,23.5,25.1,32.8,34.1,22.3"/>
	<ellipse class="st31" cx="1486.4" cy="696.7" rx="7" ry="7.7"/>
	<path class="st27" d="M1495.8,683.3c0,0-11.9-12.8-23.2,4.7c-11.3,17.5,12.5,35.8,23.2,21"/>
	<circle class="st27" cx="1471" cy="675.9" r="2.9"/>
	<circle class="st27" cx="1472.4" cy="718.2" r="2.9"/>
	<circle class="st31" cx="1486.7" cy="671.3" r="2.5"/>
	<circle class="st31" cx="1462.7" cy="690.5" r="2.5"/>
	<circle class="st31" cx="1475" cy="685.3" r="2.5"/>
	<circle class="st31" cx="1462.7" cy="705.7" r="2.5"/>
	<circle class="st31" cx="1486.4" cy="722.2" r="2.5"/>
	<path class="st32" d="M1430.2,560.5c0,0,22.5,13.1,61.9,0.8"/>
	<g>
		
			<rect x="1424.3" y="603.3" transform="matrix(4.219371e-02 -0.9991 0.9991 4.219371e-02 764.8794 2006.5427)" class="st33" width="9.4" height="2.1"/>
		
			<rect x="1444.1" y="603.3" transform="matrix(4.219371e-02 -0.9991 0.9991 4.219371e-02 783.7985 2026.3689)" class="st33" width="9.4" height="2.1"/>
		
			<rect x="1459.7" y="603.4" transform="matrix(4.219371e-02 -0.9991 0.9991 4.219371e-02 798.6967 2042.0862)" class="st33" width="9.4" height="2.1"/>
		<path class="st15" d="M1435.2,599.5l-4.3,4c0,0-0.9,1-0.1,1.7s4.8,4.1,4.8,4.1l2.6,0.1l-5.4-4.5c0,0-1.1-0.5-0.1-1.4
			c0.9-0.9,0.9-0.9,0.9-0.9l3.9-3L1435.2,599.5z"/>
		<path class="st15" d="M1439,599.6l1.9,0.1l-0.3,7.3c0,0,0,0.7,0.6,0.8c0.9,0,5.7,0.2,5.7,0.2l-0.1,1.2l-7.3-0.3c0,0-0.9,0-0.8-1.3
			C1438.7,606,1439,599.6,1439,599.6z"/>
		<path class="st15" d="M1451.2,609l2.1,0.1l0.3-6.8c0,0,0-1,0.7,0s0.7,1,0.7,1l0,0l3.5,5.4c0,0,0.3,0.6,1.3,0.7
			c1,0,1.5-0.4,1.6-1.1s0.4-8.6,0.4-8.6l-1.9-0.1l-0.3,6.6c0,0,0.1,1.2-0.8-0.1s-4-6.2-4-6.2s-0.3-0.6-1.4-0.6s-1.6,0.3-1.7,0.8
			c0,0.5,0,0.5,0,0.5L1451.2,609z"/>
		<polygon class="st15" points="1475.8,599.9 1473.6,599.9 1466.1,608.9 1468.4,608.9 		"/>
		<polygon class="st15" points="1466.1,599.9 1468.3,599.9 1475.8,608.9 1473.5,608.9 		"/>
	</g>
</g>
<path class="st34" d="M1242.2,745.2c-38-0.6-49.9-4.7-49.9-4.7v-69.2c0,0,47,11.7,101.3,1.9l1.2,68.3
	C1287.4,743.5,1280.2,745.7,1242.2,745.2z"/>
<g id="Layer_2">
</g>
<path class="st8" d="M1551.7,306.1c0,0-0.3-7.2,11.1-7.5s238.6-3.1,238.6-3.1l61.3,18.7l-1.7,415.5c0,0-1.1,8.1-8.6,9.5
	s-259.5,17-259.5,17l-41.2-27.3L1551.7,306.1z"/>
<polygon class="st9" points="1810.6,311.8 1806.2,742.6 1852,739.2 1858.1,735.4 1860.6,726.6 1862.3,314.2 1850.4,310.6 "/>
<path class="st10" d="M1551.7,306.1c0,0-0.3-7.2,11.1-7.5s238.6-3.1,238.6-3.1l61.3,18.7l-1.7,415.5c0,0-1.1,8.1-8.6,9.5
	s-259.5,17-259.5,17l-41.2-27.3L1551.7,306.1z"/>
<path class="st11" d="M1553.9,301.8c0,0,18.7-5.3,41,10.6L1553.9,301.8z"/>
<polyline class="st11" points="1591.2,753.6 1594.8,312.4 1855.4,311.6 "/>
<polyline class="st11" points="1861,331.1 1800.8,331.1 1800.8,346.4 1861,346.4 "/>
<line class="st11" x1="1814.7" y1="346.4" x2="1814.7" y2="331.1"/>
<line class="st11" x1="1811.1" y1="311.8" x2="1811.1" y2="331.1"/>
<line class="st11" x1="1811.1" y1="346.4" x2="1806.7" y2="739.9"/>
<rect x="1619.1" y="333.6" class="st15" width="4.7" height="25.4"/>
<path class="st15" d="M1638.1,333.1l-11.6,11.3c0,0-2,2,0.3,4.5c2.3,2.4,11.8,10.2,11.8,10.2h6.3l-13.7-12.1c0,0-1.4-1.7-0.1-2.6
	s12.5-11.1,12.5-11.1h-5.5V333.1z"/>
<path class="st15" d="M1646.8,333.1h5.2V355h16.1v3.6H1649c0,0-2.4,0.3-2.4-3.1C1646.7,352.6,1646.8,333.1,1646.8,333.1z"/>
<rect x="1669.7" y="333.1" class="st15" width="5.5" height="25.6"/>
<path class="st15" d="M1679.5,358.4v-22c0-1.1,0.3-2.3,1-3.1c0.6-0.8,1.7-1.6,3.2-1.6c1.4,0,2.6,0.8,3.4,2l13.2,19.2
	c0,0,1.3,0.8,1.3-0.2s0-20.5,0-20.5h4.8v22.3c0,3.5-3.7,6-6.8,4.4c-0.2-0.1-0.3-0.2-0.5-0.3c-0.8-0.5-1.5-1.3-2.1-2.1l-11.5-17.1
	c0,0-1.3-1.5-1.4,0.1l0.1,19L1679.5,358.4L1679.5,358.4z"/>
<rect x="1709.8" y="331.6" class="st15" width="5.7" height="27.2"/>
<polygon class="st15" points="1717.2,331.6 1722.7,331.6 1729.4,341.7 1737.2,331.6 1743,331.6 1733.3,345.2 1744.2,358.8 
	1737.4,358.8 1729.6,348.2 1723.6,358.8 1717.2,358.8 1726.1,345.2 "/>
<path class="st11" d="M1619.3,419.6v-9.3h22c0,0,9.1,2.2,9.1,14.8c0,12.5-11.7,13.8-11.7,13.8v-8.5c0,0,2.6-1,3.2-6.1
	s-5.5-6.3-5.5-6.3h-8.7v2.6h-8.4V419.6z"/>
<polygon class="st15" points="1619.3,422.4 1627.8,422.4 1627.8,431.2 1636.4,431.2 1636.4,439.8 1627.9,439.8 1627.9,449.6 
	1619.3,449.6 1619.3,439.9 1610.5,439.9 1610.5,431.4 1619.3,431.4 "/>
<path class="st11" d="M1653.4,450.9v-40.6h23.8c0,0,7.7,3.1,7.7,13.1s-8.5,12.5-8.5,12.5l9.8,15h-9.7l-8.5-13.7l-6.1,0.1v13.6
	H1653.4z"/>
<path class="st13" d="M1661.5,417.7v12.2h10.8c0,0,4.9-0.6,4.9-6.1s-5.2-6.1-5.2-6.1H1661.5z"/>
<path class="st11" d="M1706.7,406.9c-10.5,0-19.1,9.9-19.1,22.2c0,12.3,8.6,22.2,19.1,22.2s19.1-9.9,19.1-22.2
	C1725.8,416.8,1717.2,406.9,1706.7,406.9z M1706.7,442.5c-6.4,0-11.6-6-11.6-13.4c0-7.4,5.2-13.4,11.6-13.4s11.6,6,11.6,13.4
	C1718.3,436.5,1713.1,442.5,1706.7,442.5z"/>
<rect x="1731.2" y="411.5" class="st11" width="16.6" height="8.5"/>
<path class="st11" d="M1620.3,459.4v20.1l4.1,4c0,0,7.5-7.2,13.4,1.6c0,0,2,4.3-1.7,6.8c-3.6,2.5-9.8,2.7-13.7-3.1l-5.5,6.9
	c0,0,9,12.3,23.5,2.6c14.5-9.7,1.4-30.6-12.3-23.7l-1.3,0.7V467h17.5v-7.5h-24V459.4z"/>
<polygon class="st11" points="1644.7,500.3 1664.1,458.4 1665.4,458.4 1684.4,500.3 1673.2,500.3 1665.7,481.8 1663.3,481.8 
	1655.8,500.3 "/>
<polygon class="st11" points="1664.5,487.9 1660.5,495.7 1668.4,495.7 "/>
<polygon class="st11" points="1630.5,514.8 1619.8,514.8 1619.8,531.5 1621.9,531.5 1621.9,524.5 1629.7,524.5 1629.7,522.4 
	1621.9,522.4 1621.9,516.9 1630.5,516.9 "/>
<ellipse class="st11" cx="1640.7" cy="522.8" rx="5" ry="5.5"/>
<ellipse class="st11" cx="1640.7" cy="522.8" rx="7.9" ry="8.7"/>
<path class="st11" d="M1650.8,530.8v-16.7h8.8c0,0,3.8,0.6,3.8,5.2s-4.1,5.2-4.1,5.2l4.1,6.3h-2.6l-3.7-5.9h-4.1v5.9H1650.8z"/>
<path class="st11" d="M1652.9,516.7v5.7h5.4c0,0,2.2,0.1,2.2-2.9s-2.3-2.9-2.3-2.9h-5.3V516.7z"/>
<path class="st11" d="M1670.1,514.1v16.3h8c0,0,5.7-1.5,5.7-8.6s-5.1-7.7-5.1-7.7H1670.1z"/>
<path class="st11" d="M1672.6,516.3v11.6h5.5c0,0,2.9-0.5,2.9-5.8s-3.1-5.8-3.1-5.8H1672.6z"/>
<ellipse class="st11" cx="1693.6" cy="521.1" rx="4.9" ry="6"/>
<ellipse class="st11" cx="1693.6" cy="521.1" rx="7.2" ry="8.8"/>
<path class="st11" d="M1714.3,515.9l1.7-0.8c0,0-4.5-7.1-10.6-0.8c-6.1,6.3-0.5,19.9,10.6,12.7v-7.6h-6.3v2.5h4v3.1
	c0,0-5.2,4.1-7.7-1.7C1703.5,516.9,1709.8,511.2,1714.3,515.9z"/>
<path class="st11" d="M1727.2,515.1l1.3-0.9c0,0-1.5-4.1-6.5-2.5c-5,1.5-5.4,8.4,0.4,9.7s5,4.8,1.7,5s-2.8-1.9-2.8-1.9h-2.7
	c0,0-0.8,4.6,6.5,4.5s5.4-9.1,1.4-9.8s-6.2-1.3-4.7-3.7C1723.3,513.1,1724.6,513.4,1727.2,515.1z"/>
<path class="st11" d="M1619.3,572.5l120.2-4.1L1619.3,572.5z"/>
<polyline class="st11" points="1813.7,526.6 1826.8,532.6 1840.7,547.7 1853,562.4 1859.9,571 1859.9,597.2 1835.7,602.7 
	1808,621.7 1835.1,633 1859.5,634.3 1859.5,655.7 1839.2,670.4 1836.1,685.4 1835.7,696.2 1826.6,688.2 1823.1,680.6 1813.2,668.7 
	1807.5,667.6 "/>
<polyline class="st11" points="1857.1,657.4 1856,671.8 1839.2,670.4 1835.1,633 1837.8,602.2 1828.5,567.2 1821.2,549.8 
	1808.8,549.8 1826.8,532.6 "/>
<polyline class="st11" points="1835.7,696.2 1856,671.8 1859.5,683 "/>
<polyline class="st11" points="1818.9,695.5 1826.6,688.2 1836.1,685.4 1856,671.8 "/>
<polyline class="st11" points="1857.1,656.6 1835.1,633 1808.8,652.7 1813.2,668.7 1839.2,670.4 1807.5,652 "/>
<polyline class="st11" points="1859.7,631.3 1837.8,602.2 1811.1,581.7 1808.8,579 "/>
<polyline class="st11" points="1808,621.7 1811.1,581.7 1828.5,567.2 1853,562.4 1860,557.2 "/>
<polyline class="st11" points="1808.6,563.9 1821.2,549.8 1826.8,532.6 1834.2,528.4 1848,523.3 1854.7,528.4 1859.9,533.6 "/>
<polyline class="st11" points="1811.1,581.7 1821.2,549.8 1839.2,546.1 "/>
<polyline class="st11" points="1828.5,567.2 1839.2,546.1 1850.9,541.1 1859.9,548.7 "/>
<polyline class="st11" points="1808.9,542.4 1818.5,528.8 1828.5,520.4 1829.6,514.5 1826.4,513.4 1823.4,511.1 "/>
<line class="st11" x1="1811.1" y1="530.8" x2="1818.5" y2="528.8"/>
<line class="st11" x1="1826.8" y1="532.6" x2="1828.5" y2="520.4"/>
<polyline class="st11" points="1839.2,546.1 1834.2,528.4 1850.9,541.1 1848,523.3 1842.6,511.1 1834.2,528.4 "/>
<polyline class="st11" points="1828.7,519.3 1834.2,528.4 1835.7,512.4 1836,505.1 "/>
<polyline class="st11" points="1859.9,540.1 1856.1,529.8 1850.9,541.1 1853,562.4 1860,588.4 "/>
<polyline class="st11" points="1848,523.3 1848,509.8 1842.6,511.1 1839.2,499.1 1845.9,504.4 1845.9,498 "/>
<polyline class="st11" points="1845.9,504.4 1848,509.8 1857.1,523.3 1860,521.5 1853.5,509.5 1848.3,501.5 1838.3,487.2 "/>
<polyline class="st11" points="1813.7,526.6 1819.2,523.3 1829.6,514.5 1833.3,508.9 1838.3,501.9 1839.2,499.1 1839.2,494.6 
	1838.3,487.2 1809,534.2 1807.2,691.2 1815.5,695.1 1824.4,696.2 1835.7,696.2 1846.7,696.2 1856.1,691.7 1859.5,688.2 "/>
<polyline class="st11" points="1839.2,499.1 1828.5,503 1829.6,514.5 "/>
<line class="st11" x1="1856.1" y1="529.8" x2="1857.1" y2="523.3"/>
<polyline class="st11" points="1821,693.6 1815.1,688.6 1813.2,668.7 1806.7,679.5 1815.1,688.6 "/>
<line class="st11" x1="1856.1" y1="691.7" x2="1843.6" y2="686.6"/>
<polyline class="st11" points="1812.2,693.6 1815.1,688.6 1823.1,680.6 1836.1,685.4 1813.2,668.7 "/>
<line class="st11" x1="1807.5" y1="686.6" x2="1817.2" y2="695.3"/>
<polyline class="st11" points="1836.1,685.4 1844.7,685.4 1859.5,686.6 "/>
<path class="st11" d="M1850.7,736.6"/>
<polygon class="st35" points="721.7,131.9 721.7,135.4 718.3,135.4 718.3,139.2 721.7,139.2 721.7,143 725.8,143 725.8,139.2 
	729,139.1 729,135.1 725.4,135.2 725.6,131.9 "/>
<polygon class="st36" points="422.5,501.1 422.5,502.3 421.2,502.3 421.2,503.7 422.5,503.7 422.5,505 424,505 424,503.7 
	425.1,503.6 425.1,502.2 423.8,502.2 423.9,501.1 "/>
<polygon class="st37" points="783.9,623.4 783.9,625.2 782.1,625.2 782.1,627.1 783.9,627.1 783.9,629 786,629 786,627.1 787.6,627 
	787.6,625 785.8,625 785.8,623.4 "/>
<polygon class="st14" points="1534,125.9 1534,128.7 1531.3,128.7 1531.3,131.7 1534,131.7 1534,134.7 1537.3,134.7 1537.3,131.7 
	1539.8,131.6 1539.8,128.4 1537,128.5 1537.1,125.9 "/>
<polygon class="st14" points="1806.2,334.4 1806.2,337.1 1803.4,337.1 1803.4,340.1 1806.2,340.1 1806.2,343.1 1809.4,343.1 
	1809.4,340.1 1811.9,340 1811.9,336.9 1809.1,337 1809.2,334.4 "/>
<g>
	<g>
		<path class="st8" d="M889.9,225.1c0,0,2.5-7.4,11-8.5l265.1-0.4l41.5,23.4l-1.4,408.6c0,0-0.7,4.6-4.6,5.3L941,663.8l-51-33.7
			v-405H889.9z"/>
		<polygon class="st9" points="1151,238.7 1152.1,655.5 1204.6,652.5 1207.5,239.6 		"/>
		<path class="st10" d="M889.9,225.1c0,0,2.5-7.4,11-8.5l265.1-0.4l41.5,23.4l-1.4,408.6c0,0-0.7,4.6-4.6,5.3L941,663.8l-51-33.7
			v-405H889.9z"/>
		<path class="st11" d="M939.8,235.4c0,0-30.1-23.7-45-13.5L939.8,235.4z"/>
		<polyline class="st11" points="940.9,663.8 939.8,235.4 1207.4,239.6 		"/>
		<line class="st11" x1="1151.1" y1="266.7" x2="1152.1" y2="655.5"/>
		<line class="st11" x1="1151" y1="238.7" x2="1151.1" y2="251.9"/>
		<line class="st11" x1="1205.7" y1="239.6" x2="1204.6" y2="651.3"/>
		<line class="st11" x1="889.9" y1="225.1" x2="938" y2="237.1"/>
		<polygon class="st11" points="1143.9,252 1143.9,266.4 1205.6,266.4 1205.7,252 		"/>
		<line class="st11" x1="1157.2" y1="266.4" x2="1157.2" y2="252"/>
		<rect x="967.1" y="256.7" class="st16" width="4.8" height="25.9"/>
		<path class="st16" d="M986,256.7l-11.8,11c0,0-1.5,2.5,0,4s12.9,11.3,12.9,11.3h6.5l-14.1-12c0,0-1.8-1.1-0.4-2.6
			c1.5-1.5,12.6-11.7,12.6-11.7H986z"/>
		<path class="st16" d="M994.6,256.7h5.4v22.1h17.1v3.8h-20.3c0,0-2.3,0.1-2.3-2.9S994.6,256.7,994.6,256.7z"/>
		<polygon class="st16" points="1018.4,256.7 1024.1,256.7 1024.1,282.7 1018.7,282.7 		"/>
		<path class="st16" d="M1028.6,282.7v-22.6c0-1.2,0.3-1.7,1.1-2.5c0.6-0.5,1.4-0.9,2.4-0.9c1.1,0,2.3,0.1,3,1l13.8,19.3
			c0,0,0.8,0.9,1.4-0.1v-20h4.6v23.7c0,0-0.5,2.5-3.7,2.5c-3.2,0-4-1.9-4-1.9l-12.4-18.1c0,0-0.8-1-1.5,0.2v19.2h-4.7V282.7z"/>
		<rect x="1059.3" y="256.7" class="st16" width="5.1" height="26.3"/>
		<polygon class="st16" points="1066.3,256.7 1072.1,256.7 1093.2,283 1086.6,283 		"/>
		<polygon class="st16" points="1086.3,256.7 1066,283.3 1072.1,283.3 1092.3,256.7 		"/>
		<polygon class="st15" points="966.7,324.8 975.4,324.8 975.4,330.3 981.4,330.3 981.4,339.8 975.6,339.8 975.6,345.6 966.7,345.6 
			966.7,339.5 960.3,339.5 960.3,330.7 966.9,330.7 		"/>
		<path class="st11" d="M966.7,348.2h9v18h8.9c1.5,0,2.9-0.4,4.1-1.2c2.8-1.7,7.1-5.4,7.1-11.6c0-9-6.3-14.1-11.8-14.1v-8.7
			c0,0,20.4,1.2,20.4,22.1c0,10.9-5.7,16.4-10.8,19.1c-3.3,1.7-6.9,2.6-10.6,2.7l-16.3,0.3L966.7,348.2L966.7,348.2z"/>
		<path class="st11" d="M1007.1,330.6h8.6v27.8c0,0,0.5,8.5,8.9,8.5c8.4,0,8.9-8.4,8.9-8.4v-27.9h8.4v29.6c0,0,0.9,15.2-17.4,15.2
			c-18.3,0-17.4-16.5-17.4-16.5V330.6z"/>
		<path class="st11" d="M1065.6,329.5c-11.5,0-20.9,10.1-20.9,22.6s9.4,22.6,20.9,22.6s20.9-10.1,20.9-22.6
			S1077.2,329.5,1065.6,329.5z M1065.8,365.9c-6.8,0-12.3-6.2-12.3-13.9s5.5-13.9,12.3-13.9s12.3,6.2,12.3,13.9
			S1072.6,365.9,1065.8,365.9z"/>
		<polygon class="st11" points="997.8,386.1 966.7,386.1 966.7,430.1 975.7,430.1 975.7,412.8 995.5,412.8 995.5,404.3 975.5,404.3 
			975.5,394.6 997.8,394.6 		"/>
		<polygon class="st11" points="1001,386.1 1009.9,386.1 1009.9,420.7 1030.1,420.7 1030.1,429.4 1001,429.4 		"/>
		<polygon class="st11" points="1063,386.1 1033.7,386.1 1033.7,429.4 1063,429.4 1063,420.8 1041.2,420.8 1041.2,411 1060.2,411 
			1060.2,402.9 1041.3,402.9 1041.3,393.9 1063,393.9 		"/>
		<polygon class="st11" points="1067.4,385.6 1077.1,385.6 1084.9,399.2 1093.7,385.6 1102.6,385.6 1090.4,406 1104.1,428.1 
			1093.7,428.1 1085.8,413.5 1076.1,429.4 1065.8,429.4 1080,406.8 		"/>
		<line class="st11" x1="966.7" y1="492.5" x2="1104.1" y2="489.7"/>
		<path class="st11" d="M1206.7,416.7c0,0-8.4,12.8-25.8,9.7c-17.5-3.1-31.7,23.2-25.3,40.9c6.4,17.7,20.6,16.8,20.6,16.8
			s1.5,26.9,30.3,22.2"/>
		<path class="st11" d="M1139.6,521.1c0,0-5.2-5.7-11.8-5.9c-6.6-0.2-5.9-20.1,2.8-31.2c8.7-11.1,11.9-18.7,21-5.9s16.6,9.4,19,16.8
			c2.4,7.3,11.3,10.6,8,17c-3.3,6.4-5.7,10.9-15.1,5C1154,510.9,1139.8,519.4,1139.6,521.1z"/>
		<path class="st11" d="M1134.1,656.2l-4.7-80.5c0,0-5.9-8.5-8.7-11.3c-2.8-2.8-8.7-3.8-6.6-19.4c2.1-15.6,8-23.4,17.5-16.5
			c9.4,6.9,16.8-1.7,19.5-3.5c2.7-1.9,10-0.2,15.5,5c5.4,5.2,12.8-15.1,21-7.6c8.3,7.6,11.8,19.6,9.4,27.2
			c-2.4,7.6-15.8,18.9-14.6,27.2c1.2,8.3-4.7,77.8-4.7,77.8L1134.1,656.2z"/>
		<polyline class="st11" points="1206.7,427.8 1197.7,446.3 1176.2,484 1205.2,485 		"/>
		<polyline class="st11" points="1206.7,443.6 1197.7,446.3 1161,476.7 1168.9,461.1 1173.9,447.2 1172.8,427 1197.7,446.3 
			1197.7,506.8 1205.2,499.5 		"/>
		<polyline class="st11" points="1206.6,452.6 1197.7,446.3 1174.5,447.1 1155.1,449.6 1197.7,485 1205.1,478.8 		"/>
		<polyline class="st11" points="1172.8,427 1203.7,433.9 1206.7,433.9 		"/>
		<polyline class="st11" points="1170.2,519.6 1170.2,494.1 1143.8,486.3 1123.6,502 1178.9,511 		"/>
		<polyline class="st11" points="1145.3,471.9 1143.8,486.3 1139.6,521.1 1170.2,494.1 		"/>
		<line class="st11" x1="1131.7" y1="482.6" x2="1143.8" y2="486.3"/>
		<polyline class="st11" points="1176.2,654.5 1163.4,582 1131.1,605.2 		"/>
		<line class="st11" x1="1113.8" y1="547.5" x2="1137.7" y2="531"/>
		<line class="st11" x1="1167.7" y1="530.6" x2="1152.1" y2="559.5"/>
		<line class="st11" x1="1129.4" y1="575.7" x2="1195.3" y2="533.3"/>
		<polyline class="st11" points="1132.5,629.3 1180.6,616.1 1137.7,531 1129.4,575.7 1182.3,588.4 1167.7,530.6 1195.3,533.3 
			1132.5,629.3 1167.2,654.9 		"/>
		<line class="st11" x1="1141.7" y1="655.5" x2="1170.2" y2="618.9"/>
	</g>
	<polygon class="st38" points="1148.9,254.4 1148.9,257.4 1145.9,257.4 1145.9,260.7 1148.9,260.7 1148.9,264 1152.5,264 
		1152.5,260.7 1155.2,260.6 1155.2,257.1 1152.2,257.2 1152.3,254.4 	"/>
</g>
<g>
	<g>
		<path class="st39" d="M1202,607.9c0,0,0.1,2.3,2,3.6c2,1.2-2,4.4-2,4.4s-10.5,6.9-10.8,23c-0.3,16.1,1.5,81,1.5,81
			s1.5,15.1,14.9,17.4c13.3,2.2,46.5,9.2,90.4-2.2c0,0,10.7-1.2,10.7-14.3c0-13.1,0-81.8,0-81.8s2-14.9-10.7-23.5c0,0-5.6-1.9-1-5.4
			l6-2.6l-31.9-9.3l-53.6,4.5l-12.2,2.7l-2.8,1.7L1202,607.9z"/>
		<path class="st39" d="M1300.8,608c5.6-1.3,6.4-2.5,6.4-2.5s0-30.4,0-37.9c0-7.4-8.9-8.5-8.9-8.5c-51.5-9.9-94.9-2.2-100.3,0
			c-5.4,2.2-5.2,7.7-5.2,7.7v37.1c0,0,1.1,2,9.3,3.9"/>
		<path class="st40" d="M1191.5,635.7c0,0,6,10.5,58.5,10.5c53,0,58.7-7.2,58.7-7.2l0.1,84c0,0-7.7,9.7-64.5,7.9
			c-56.7-1.7-51.5-11.9-51.5-11.9L1191.5,635.7z"/>
		
			<rect x="1226.8" y="655.8" transform="matrix(4.219371e-02 -0.9991 0.9991 4.219371e-02 522.6228 1858.4305)" class="st41" width="7.6" height="1.7"/>
		
			<rect x="1242.8" y="655.8" transform="matrix(4.219371e-02 -0.9991 0.9991 4.219371e-02 537.9371 1874.4944)" class="st41" width="7.6" height="1.7"/>
		
			<rect x="1255.5" y="656" transform="matrix(4.219371e-02 -0.9991 0.9991 4.219371e-02 549.9298 1887.3022)" class="st41" width="7.6" height="1.7"/>
		<path class="st42" d="M1235.7,652.7l-3.5,3.2c0,0-0.7,0.8-0.1,1.3s3.8,3.3,3.8,3.3l2.1,0.1l-4.4-3.6c0,0-0.9-0.4-0.1-1.2
			s0.7-0.7,0.7-0.7l3.2-2.4H1235.7z"/>
		<path class="st42" d="M1238.7,652.9l1.5,0.1l-0.3,5.9c0,0,0,0.6,0.5,0.6c0.7,0,4.5,0.2,4.5,0.2v1l-6-0.3c0,0-0.7,0-0.6-1.1
			C1238.5,658.1,1238.7,652.9,1238.7,652.9z"/>
		<path class="st42" d="M1248.6,660.4l1.7,0.1l0.3-5.5c0,0,0-0.8,0.6,0c0.6,0.8,0.6,0.8,0.6,0.8l0,0l2.8,4.4c0,0,0.3,0.5,1.1,0.5
			s1.2-0.4,1.2-0.9c0-0.5,0.3-6.9,0.3-6.9l-1.5-0.1l-0.3,5.3c0,0,0.1,1-0.6-0.1c-0.7-1.1-3.3-5-3.3-5s-0.2-0.4-1.2-0.4
			c-0.9,0-1.3,0.3-1.3,0.7c0,0.4,0,0.4,0,0.4L1248.6,660.4z"/>
		<polygon class="st42" points="1260.9,653 1262.7,653 1268.4,660.5 1266.5,660.5 		"/>
		<polygon class="st42" points="1268.5,653.1 1266.7,653.1 1260.7,660.4 1262.6,660.4 		"/>
		<polygon class="st5" points="1210,673.8 1209.7,676 1207.2,675.7 1207,677.9 1209.5,678 1209.3,680.1 1211.3,680.3 1211.5,677.9 
			1213.6,678.2 1213.8,676.4 1211.6,676.3 1211.8,673.9 		"/>
		
			<rect x="1208" y="682.5" transform="matrix(8.752465e-02 -0.9962 0.9962 8.752465e-02 423.5045 1829.5105)" class="st43" width="4.9" height="2.2"/>
		<polygon class="st44" points="1212.4,679.1 1212.2,680.8 1215.7,686.6 1217.5,686.7 1218.4,676.9 1216.5,676.7 1215.9,682.8 
			1213.4,679.1 		"/>
		<polygon class="st44" points="1226.9,677.2 1220.1,677 1219.3,686.4 1226.3,686.9 1226.4,685 1221.4,684.7 1221.5,682.7 
			1225.9,682.9 1226,681 1221.7,680.8 1221.9,678.9 1226.8,679.1 		"/>
		<path class="st44" d="M1227.9,677.3l2.1,0.2l-0.4,6.4c0,0,0.1,1.2,1.6,1.4c1.5,0.1,1.9-0.7,2-1.1c0.2-0.4,0.5-6.6,0.5-6.6l2,0.2
			l-0.5,6.5c0,0-0.3,3.3-3.9,3c-3.6-0.4-3.9-2.8-3.8-3.3C1227.5,683.4,1227.9,677.3,1227.9,677.3z"/>
		<path class="st44" d="M1242.4,683.7c0.4-0.1,1.7-0.3,2-3.1c0.3-2.8-2.7-2.8-3.2-2.9c-0.4,0.1-3.9-0.1-3.9-0.1l-0.8,9.6l2,0.2
			l0.3-3l0.1-0.3l1.4,0.1l1.6,3.1l2.3,0.2l-1.9-3.5C1242.2,684,1242,683.8,1242.4,683.7z M1241.1,682.4l-2.3-0.2l0.3-2.7l2.2,0.2
			c0,0,1.2,0,1.1,1.4C1242.3,682.6,1241.1,682.4,1241.1,682.4z"/>
		<path class="st44" d="M1250.5,678c0,0-3.8-0.7-5.2,3.5c-1.3,4.1,2,6,3.1,6.2c1.2,0.3,4.6,0.7,5.8-3.7
			C1255.5,679.3,1251.5,678,1250.5,678z M1252.4,683.1c-0.3,3.1-2.8,2.8-2.8,2.8s-2.8,0.1-2.6-3.1c0.4-3.3,3.3-2.8,3.3-2.8
			S1252.7,679.9,1252.4,683.1z"/>
		
			<rect x="1256.2" y="681.5" transform="matrix(8.752465e-02 -0.9962 0.9962 8.752465e-02 466.3019 1875.8467)" class="st45" width="1.9" height="3.8"/>
		<path class="st44" d="M1217.3,690c0,0-2.4-2.8-6.5-0.8c-4.1,2-3.1,7.6-0.1,8.8c2,0.9,4,0.7,6.3-0.8l0.4-4.1l-4-0.3l-0.1,1.8
			l1.7,0.1l-0.1,1.3c0,0-2.3,1.6-4-0.8s0.4-5.1,3-4.7c0.9,0.1,2,1,2,1L1217.3,690z"/>
		<polygon class="st44" points="1226.1,689.1 1219,688.9 1218.2,698.5 1225.2,698.7 1225.4,696.9 1220.3,696.6 1220.5,694.6 
			1225,694.8 1225.2,692.9 1220.7,692.7 1220.9,690.8 1225.9,690.9 		"/>
		<polygon class="st44" points="1226.4,698.6 1227.2,689.1 1229.3,689.3 1232.9,695.2 1233.5,689.4 1235.5,689.6 1234.7,699 
			1232.9,698.9 1229,692.8 1228.6,698.8 		"/>
		<polygon class="st44" points="1237.2,689.5 1239.2,689.7 1238.3,699 1236.3,698.9 		"/>
		<path class="st44" d="M1247.1,692.5c0,0-3.2-2.6-4.8,0.8c-1.6,3.4,2.5,5.3,4.4,3.2l1.2,1.3c0,0-3,3.3-6.7,0.4
			c-3.2-2.6-0.2-12.3,7.1-7.2L1247.1,692.5z"/>
		<path class="st44" d="M1256.2,691.2l-1.1,1.4c0,0-2.4-2-3.3-0.7c-0.8,1.2,1.1,1.8,2.4,2.1c1.3,0.4,2.4,2,1.5,3.8
			c-0.9,1.9-3.8,2.8-6.9,0.1l1.2-1.4c0,0,2.3,2.2,3.5,0.8c1.1-1.2-1.1-1.8-1.5-1.9c-0.4-0.1-2.8-0.7-2.5-3.1c0.4-2.4,2.4-3,4.1-2.5
			C1255.4,690.4,1256.2,691.2,1256.2,691.2z"/>
		<path class="st46" d="M1295.1,608.3c0,0-35.7,3.7-89.9,0"/>
	</g>
	<path class="st40" d="M1205,726.9V668c0,0,46.9,9.4,91.8,1.7v58.1"/>
	<polygon class="st40" points="1296.8,692.2 1293.9,689.7 1284,689.7 1275,691.7 1264.6,701 1264.6,709.2 1270.7,715.3 
		1275.6,714.4 1280,716.1 1284.6,716.1 1288.8,720.2 1292.6,726.7 1294.2,720.2 1296.8,717.8 	"/>
	<polyline class="st40" points="1275.6,714.4 1275,691.7 1282.1,706.7 1284,716.1 1288.7,710.9 1294.9,702.6 1296.8,700.8 	"/>
	<polyline class="st40" points="1295.8,718.8 1294.3,716.1 1282.1,706.7 1264.6,709.2 1275,691.7 	"/>
	<polyline class="st40" points="1296.8,713.6 1294.3,716.1 1288.8,720.2 1294.2,720.2 	"/>
	<polyline class="st40" points="1293.9,689.7 1290.7,692.2 1286.6,693.5 1277.6,697 1275.2,698 1264.6,701 1278.7,699.5 1290,697.5 
		1296.8,695.6 	"/>
	<polyline class="st40" points="1280,716.1 1282.1,706.7 1290,697.5 1286.6,693.5 1284,689.7 1296.8,694.6 	"/>
	<polyline class="st40" points="1296.8,703.5 1294.5,703.2 1290,697.5 	"/>
	<line class="st40" x1="1282.1" y1="706.7" x2="1294.5" y2="703.2"/>
	<circle class="st47" cx="1264.6" cy="708.9" r="0.8"/>
	<circle class="st47" cx="1282.1" cy="706.7" r="0.8"/>
	<circle class="st47" cx="1284" cy="716.1" r="0.8"/>
	<circle class="st47" cx="1288.3" cy="720.2" r="0.8"/>
	<circle class="st47" cx="1288.4" cy="720.2" r="0.8"/>
	<circle class="st47" cx="1284" cy="689.7" r="0.8"/>
	<circle class="st47" cx="1275" cy="691.7" r="0.8"/>
	<circle class="st47" cx="1278.8" cy="699.6" r="0.8"/>
	<circle class="st47" cx="1290" cy="698" r="0.8"/>
	<circle class="st47" cx="1288.3" cy="711.3" r="0.8"/>
</g>
<line class="st11" x1="143.5" y1="544.8" x2="262.6" y2="536.4"/>
</svg>
