<?xml version="1.0" encoding="utf-8"?>
<!-- Generator: Adobe Illustrator 26.1.0, SVG Export Plug-In . SVG Version: 6.00 Build 0)  -->
<svg version="1.1" xmlns="http://www.w3.org/2000/svg" xmlns:xlink="http://www.w3.org/1999/xlink" x="0px" y="0px"
	 viewBox="0 0 1442 1000" style="enable-background:new 0 0 1442 1000;" xml:space="preserve">
<style type="text/css">
	.st0{fill:#FFFFFF;stroke:#1E1E1C;stroke-width:4;}
	.st1{fill:none;stroke:#1E1E1C;}
	.st2{stroke:#1E1E1C;}
	.st3{stroke:#000000;}
	.st4{fill:none;stroke:#000000;}
	.st5{font-family:'Arial-BoldMT';}
	.st6{font-size:13.7706px;}
	.st7{fill:#FFFFFF;stroke:#1E1E1C;stroke-width:3;}
	.st8{fill:#1E1E1C;stroke:#1E1E1C;}
	.st9{fill:#020203;stroke:#1E1E1C;}
	.st10{fill:none;stroke:#020203;stroke-width:0.5;stroke-miterlimit:10;}
	.st11{font-family:'SpoqaHanSansNeo-Bold';}
	.st12{font-size:11.7442px;}
	.st13{fill:#1E1F1C;stroke:#1E1E1C;}
	.st14{font-family:'ArialRoundedMTBold';}
	.st15{font-size:12.0593px;}
	.st16{fill:none;stroke:#1E1E1C;stroke-width:0.75;}
	.st17{fill:none;stroke:#1E1E1C;stroke-width:0.5;}
	.st18{fill:#1E1E1C;stroke:#1E1E1C;stroke-width:0.5;}
	.st19{fill:#FFFFFF;stroke:#020203;stroke-width:3;stroke-miterlimit:10;}
	.st20{fill:none;stroke:#020203;stroke-miterlimit:10;}
	.st21{stroke:#020203;stroke-width:0.5;stroke-miterlimit:10;}
	.st22{fill:#030304;stroke:#020203;stroke-miterlimit:10;}
	.st23{fill:#FFFFFF;stroke:#020203;stroke-miterlimit:10;}
	.st24{fill:#FFFFFF;stroke:#1E1E1C;stroke-width:2.67;}
	.st25{fill:none;stroke:#1E1E1C;stroke-width:0.6642;}
	.st26{fill:#1E1E1C;stroke:#1E1E1C;stroke-width:0.89;stroke-miterlimit:4;}
	.st27{fill:#1E1E1C;stroke:#1E1E1C;stroke-width:0.89;}
	.st28{fill:#1E1E1C;}
	.st29{fill:#FFFFFF;stroke:#1E1E1C;stroke-width:0.445;stroke-miterlimit:10;}
	.st30{fill:#FFFFFF;stroke:#1E1E1C;stroke-width:0.445;}
	.st31{fill:#FFFFFF;stroke:#1E1E1C;stroke-width:0.445;stroke-miterlimit:4.0002;}
	.st32{fill:#FFFFFF;stroke:#1E1E1C;stroke-width:0.89;}
	.st33{fill:#1E1F1C;stroke:#1E1E1C;stroke-width:1.0517;}
	.st34{fill:none;stroke:#1E1E1C;stroke-width:1.3617;}
	.st35{fill:none;stroke:#1E1E1C;stroke-width:0.4897;}
	.st36{fill:none;stroke:#1E1E1C;stroke-width:0.5891;}
</style>
<g id="Layer_2">
	<g>
		<path class="st0" d="M211,456.8l1-337.4c0,0,1.7-2.8,4.2-5.2v-3.8l428.9-0.7l26.8,17.4L668,478.7l-418.8,14.6L211,456.8z"/>
		<polyline class="st1" points="671.9,127.1 248.6,126.7 249.3,493.3 		"/>
		<path class="st1" d="M248.6,126.7c0,0-13.9-19.3-30.1-12l-2.6,2.1L248.6,126.7z"/>
		<line class="st1" x1="611.7" y1="480.7" x2="611.7" y2="127"/>
		<polygon class="st1" points="596.4,150.7 596.4,167.4 671.4,166.7 671.6,149.7 		"/>
		<rect x="278.2" y="146.2" class="st2" width="5.2" height="22.7"/>
		<path class="st2" d="M294.9,146.2l-9.5,8.9c0,0-1.8,2.5,0,4.8l10.2,9.1h5.9l-11.9-10.6c0,0-1.2-1.2,0-2.4
			c1.2-1.2,11.2-9.7,11.2-9.7H294.9z"/>
		<path class="st2" d="M303,146.2v20.7c0,0,0,1.6,2,2h16.7v-4h-14.2v-18.7H303z"/>
		<rect x="322.9" y="146.2" class="st2" width="5.3" height="22.7"/>
		<path class="st2" d="M331.6,168.9v-21.1c0,0-0.1-2.3,3.4-2.3c2.7,0,3.6,1.4,3.6,1.4l10.8,16.2c0,0,0.8,1,1.2,0v-17.7h4.2v21.2
			c0,0-0.4,2.2-3.8,2.2c-2.3,0-3.9-2.4-3.9-2.4l-10.5-15.9c0,0-0.7-0.7-1.1,0v18.3H331.6z"/>
		<rect x="358.4" y="145.5" class="st2" width="4.2" height="22.6"/>
		<polygon class="st2" points="364.5,145.5 369.5,145.5 375.6,154.1 381.7,145.5 386.7,145.5 379,156.8 388,168.1 382,168.1 
			375.7,159.5 370.1,168.1 364.1,168.1 372.7,156.8 		"/>
		<polygon class="st3" points="278.3,228 278.3,220.1 285,220.1 285,228 292.8,228 292.8,234.9 285,234.9 285,243 278.3,243 
			278.3,234.7 270,234.7 270,227.8 		"/>
		<path class="st4" d="M278.2,218.2V210h18c0,0,8.4,0.5,8.4,12.6s-10,11.6-10,11.6v-7.6c0,0,2.7-1,2.7-5.2c0-4.2-4-4.4-4-4.4h-7.9
			v1.3L278.2,218.2z"/>
		<polygon class="st4" points="308.4,240.8 315.5,240.8 315.5,227.9 328.1,227.9 328.1,240.8 335.2,240.8 335.2,208.8 328.1,208.8 
			328.1,222.1 315,222.1 315,208.8 308.4,208.8 		"/>
		<polygon class="st4" points="337.9,208.8 350,227.8 350,240.8 357.1,240.8 357.1,227.7 368.6,208.8 360.9,208.8 353.2,221.2 
			345.7,208.8 		"/>
		<polygon class="st4" points="370.6,208.8 370.6,214.8 379.6,214.8 379.6,239.7 379.6,240.8 386.8,240.8 386.8,214.6 395.4,214.6 
			395.4,208.8 		"/>
		<path class="st4" d="M413.1,207.9c-8.8,0-16,7.4-16,16.5s7.2,16.5,16,16.5s16-7.4,16-16.5S421.9,207.9,413.1,207.9z M413.1,234.4
			c-5.3,0-9.7-4.5-9.7-10s4.3-10,9.7-10s9.7,4.5,9.7,10S418.4,234.4,413.1,234.4z"/>
		<polygon class="st4" points="433.4,238.8 433.4,207.3 440.3,207.3 448.4,220.5 456.9,207.3 463.9,207.3 463.9,238.8 456.7,238.8 
			456.7,219 448.6,232.1 440.1,219.1 440.1,238.8 		"/>
		<path class="st4" d="M485.4,207h-7l-12.7,31.8h7.6l2.8-8h11.3l2.7,8h7.2L485.4,207z M477.3,225.3l4.3-9.5l4.5,9.5H477.3z"/>
		<polygon class="st4" points="499.3,207 506.8,207 513.2,216.9 519.8,207 526.9,207 517.2,221.8 528.9,238.8 519.9,238.8 
			513.2,227 506.9,238.8 499,238.8 509.6,221.9 		"/>
		<path class="st4" d="M301.9,258.5l3.7-4.1c0,0-11.3-11.8-24.2-0.3c-12.9,11.5,2.1,41,24.2,23.4l-3.7-4.3c0,0-9.8,9.4-17.3-0.5
			C277.1,262.6,290.4,246.7,301.9,258.5z"/>
		<polygon class="st4" points="307.3,257.5 312.7,257.5 317.8,265.3 324,257.5 329.5,257.5 321,269.4 329.5,281.9 323.5,281.9 
			318,273.3 313,281.9 306.4,281.9 314.9,269.7 		"/>
		<path class="st4" d="M352.3,274.6l3.6-5.7l-2.6-2.3l-3.5,5c-1.5-2.6-3.9-4-3.9-4c3.2-0.9,4.6-4.3,4.6-4.3
			c3.7-6.3-4.9-13.6-10.3-7.8c-5.4,5.7-0.3,10.7-0.3,10.7c-10,5.1-4.3,15.7,1.5,15.7c5.8,0,8.6-4.2,8.6-4.2l3.7,4.2l2.9-2.9
			L352.3,274.6z M341.6,260c1.2-4.1,5-3.4,5.4-1.1c0.4,2.3,0.9,5.7-3.2,6C343.8,264.9,340.4,264.1,341.6,260z M343.7,278.2
			c-1.7,0.2-5,0.1-5.4-4.3c-0.4-4.3,3.5-5,3.5-5l4.5,4.3C349.3,276.2,345.3,278,343.7,278.2z"/>
		<polygon class="st4" points="363.6,249.1 363.6,280.8 384.2,280.8 384.2,275.3 368.6,275.3 368.6,249.1 		"/>
		<polygon class="st4" points="386.2,256.5 392.2,256.5 397.1,264 402.4,256.5 407.3,256.5 400,268.2 408.3,280.8 402.9,280.8 
			397.1,272.1 391.6,280.8 385.8,280.8 394.1,268.6 		"/>
		<polygon class="st3" points="479.9,272.1 479.9,279.8 563.5,253.7 563.5,246.6 		"/>
		<circle class="st4" cx="476.2" cy="296.5" r="6.4"/>
		<polyline class="st4" points="515.2,326.5 569.6,310 601.8,323.5 		"/>
		<polyline class="st4" points="565.8,431.4 517.1,376.5 510.6,333.5 		"/>
		<polyline class="st4" points="655.1,303 628.4,377.2 573.5,431.7 		"/>
		<polyline class="st4" points="482.3,294.5 571.2,266.2 653,296.4 		"/>
		<polyline class="st4" points="565.8,403 536.9,369.5 533.7,347.3 		"/>
		<polyline class="st4" points="632.4,317.5 611.7,367.4 573.6,403.6 		"/>
		<polyline class="st4" points="488.1,313 570.6,290.1 629.9,310.5 		"/>
		<polyline class="st4" points="566,458.6 501.8,389.3 484.1,320.6 		"/>
		<line class="st4" x1="634.6" y1="392.1" x2="573.1" y2="458.6"/>
		<circle class="st4" cx="657.7" cy="298.5" r="5.4"/>
		<circle class="st4" cx="634.6" cy="312.4" r="5.4"/>
		<circle class="st4" cx="605.8" cy="327.4" r="5.4"/>
		<circle class="st4" cx="509.8" cy="328.6" r="5.4"/>
		<circle class="st4" cx="483.5" cy="315.5" r="5.4"/>
		<circle class="st4" cx="532.7" cy="342" r="5.4"/>
		<circle class="st4" cx="569.5" cy="406.7" r="5.4"/>
		<circle class="st4" cx="637.8" cy="387.9" r="5.4"/>
		<circle class="st4" cx="569.5" cy="435" r="5.4"/>
		<circle class="st4" cx="569.5" cy="462.4" r="5.4"/>
		<polygon class="st3" points="571.2,266.2 571.2,273 652.3,300 652.3,297.2 653.8,294.7 		"/>
		<polygon class="st3" points="570.6,290.1 570.6,296.4 630.2,315.5 629.2,313.4 629.2,311.4 630.2,309.3 		"/>
		<polygon class="st3" points="514.5,383.8 521.3,378 512.3,333.7 510.5,334.4 508.5,334 506.4,332.8 		"/>
		<polygon class="st3" points="481.1,320.6 498.1,393.6 505.1,390.2 487,319.6 485.1,320.6 483.5,320.9 		"/>
		<polygon class="st3" points="568.3,429.6 621.9,375.3 627.6,378 573.8,431.4 572.6,430.6 570.6,429.8 		"/>
		<polygon class="st3" points="584.7,459 590,461.8 631.6,420.6 624.3,418.5 		"/>
		<polygon class="st3" points="493.1,412.1 500.3,409.5 552.2,460.3 546.6,464.3 		"/>
		<line class="st3" x1="278.2" y1="336.6" x2="447.2" y2="332.8"/>
		<text transform="matrix(0.9997 -2.525000e-02 2.525000e-02 0.9997 279.2841 310.6632)"><tspan x="0" y="0" class="st5 st6">Supplement for </tspan><tspan x="0" y="16.5" class="st5 st6">Cancer Management</tspan></text>
	</g>
</g>
<g id="Layer_1">
	<g>
		<polygon class="st7" points="501.6,241.2 508.5,237.8 752.8,226.6 787.6,241.2 789.7,245.1 790.2,615.3 783.3,620 546.8,637.7 
			541.6,637.7 501.6,609.7 		"/>
		<g>
			<path class="st1" d="M541.6,637.7l-1.3-385.7c-24.9-12.9-38.7-10.7-38.7-10.7s20.3-5.4,38.7,10.7l247.2-10.7l0.3,375.7"/>
			<line class="st1" x1="540.3" y1="328.5" x2="787.7" y2="316.9"/>
			<path class="st1" d="M540.6,335.5l247-12.8L540.6,335.5z"/>
			<rect x="564.4" y="276.1" class="st8" width="5" height="22.4"/>
			<rect x="611.9" y="274.3" class="st8" width="5" height="22.4"/>
			<rect x="649.4" y="273" class="st8" width="5" height="22.4"/>
			<path class="st8" d="M581.5,275.2l-9.8,10c0,0-1.9,2.6,0,4c1.9,1.5,11.8,9.4,11.8,9.4h6.3l-13.4-10.2c0,0-2.6-1.1-0.5-3.4
				c2.1-2.3,2.1-2.3,2.1-2.3l9-7.6H581.5z"/>
			<path class="st8" d="M590.5,275.2h4.5v17.4c0,0,0,1.8,1.6,1.8c2.1,0,13.5,0,13.5,0v2.9h-17.6c0,0-2.1,0-2.1-3.1
				C590.5,290.5,590.5,275.2,590.5,275.2z"/>
			<path class="st8" d="M620.6,296.2h5.1v-16.3c0,0-0.1-2.4,1.7,0c1.8,2.4,1.8,2.4,1.8,2.4l0,0l8.8,12.5c0,0,0.8,1.5,3.1,1.5
				s3.6-1.1,3.6-2.7c0-1.6,0-20.5,0-20.5h-4.6v15.7c0,0,0.3,2.9-1.9-0.1c-2.3-3-10.2-14.3-10.2-14.3s-0.7-1.3-3.5-1.3
				c-2.6,0-3.9,0.9-3.9,2.1s0,1.3,0,1.3V296.2z"/>
			<polygon class="st8" points="655.9,272.7 661.1,272.6 678.8,294 673.4,294.1 			"/>
			<polygon class="st8" points="678.4,272.2 673.1,272.3 656.3,294.5 661.7,294.4 			"/>
			<polygon class="st8" points="562.3,349 562.3,358.7 551.3,358.7 551.3,367.7 562.3,367.7 562.3,376.8 570.8,376.8 570.8,366.8 
				580.2,367.1 580.2,359 570.8,359 570.8,349 			"/>
			<rect x="561" y="379.3" class="st1" width="9.8" height="21.3"/>
			<polygon class="st1" points="572.6,369.3 572.6,376.8 589.7,400.6 598.1,400.6 598.1,357.4 589.7,357.4 589.7,383.8 577.4,368.7 
							"/>
			<polygon class="st1" points="634.8,355.5 605.5,357.4 605.5,398.7 636,397.9 636,389.6 614,390.2 614,381.4 632.9,380.8 
				632.7,372.6 614,373.1 613.9,364.7 635.4,363.7 			"/>
			<path class="st1" d="M639.8,355.5h9.2l0.3,28c0,0,0.9,5.4,7.4,5.4s8-3.6,8.5-5.6c0.5-1.9,0-28.8,0-28.8h8.9v28.4
				c0,0,0,14.6-16,14.6c-16,0-18-10.5-18-12.9C640.2,382.2,639.8,355.5,639.8,355.5z"/>
			<path class="st1" d="M680.1,353l0.3,42.2h8.7v-13.2l0.4-1.1h6.1l8.3,12.9h10.2l-9.4-14.4c0,0-0.9-0.7,0.8-1.1
				c1.7-0.4,7.4-1.9,7.4-14.2s-12.7-11.5-15.2-11.5C695.3,352.6,680.1,353,680.1,353z"/>
			<path class="st1" d="M688.9,361.2V373h10.2c0,0,5.1,0.2,5.1-5.9s-5.3-5.9-5.3-5.9H688.9z"/>
			<path class="st1" d="M738.1,358.3c0,0-13.1-0.6-13.1,13.5c0,14.1,12.4,12.7,12.4,12.7s11,0.7,11-13.1S738.1,358.3,738.1,358.3z"
				/>
			<path class="st1" d="M738,350c0,0-16.9-1.5-21,16.9c-4.2,18.5,10.9,25.2,16,26c5.6,0.8,20.3,1.5,23.8-18.4
				C760.5,353.9,742.5,349.7,738,350z"/>
			<rect x="760.1" y="368.1" class="st1" width="16.9" height="8.1"/>
			<path class="st1" d="M598.1,414.8c0,0-11.6-11.3-28.4-1.1c-16.9,10.3-10.5,34.1,2.9,38.4c9.4,3,17.6,1.6,27.1-6V428l-17.4,0.2
				l0.2,7.7l7.6-0.2l0.2,6c0,0-9.5,7.9-17.6-1.8s0.2-22.1,11.5-21.8c3.9,0.1,9.2,3.4,9.2,3.4L598.1,414.8z"/>
			<polygon class="st1" points="636,407.7 605.5,409.4 605.5,451.2 636,450 636,441.9 613.9,442.4 613.9,433.7 633.5,432.9 
				633.5,424.6 614.4,425.1 614.4,416.9 636,415.6 			"/>
			<polygon class="st1" points="641.3,449 641.3,407.1 650.2,407.1 668.2,431.5 668.2,406.1 677.2,406.1 677.2,447.2 669.5,447.5 
				650.3,422.5 650.5,449 			"/>
			<polygon class="st1" points="684.5,405 693.1,405 693.1,445.9 684.5,446.4 			"/>
			<path class="st1" d="M728.8,414.5c0,0-14.8-10.1-20.5,5.5c-5.5,15.1,12.7,22,20.5,12.1l6,5.3c0,0-11.8,15.5-28.7,4.3
				c-15-10-5.7-53.4,28.1-34L728.8,414.5z"/>
			<path class="st1" d="M767.5,405.2l-4.2,6.5c0,0-11.4-7.7-14.5-1.7c-3.1,5.8,5.2,7.3,11.2,8.4c6,1.1,11.1,7.5,8,16.1
				c-3.1,8.6-15.7,13.4-29.7,3l5.1-6.7c0,0,10.7,8.8,15.4,2.3c4.1-5.7-5.2-7.3-7.4-7.4c-2.2-0.1-12.7-2-12.2-12.7
				c0.5-10.7,9.4-14,16.7-12.4S767.5,405.2,767.5,405.2z"/>
			<polygon class="st1" points="787.6,254.8 729.2,256.6 729.2,269.4 787.6,267.6 			"/>
			<line class="st1" x1="741.6" y1="269" x2="741.6" y2="256.2"/>
			<polygon class="st1" points="733.8,259.1 733.8,261.7 731.4,261.7 731.4,264.5 733.8,264.5 733.8,267.2 736.9,267.2 736.9,264.4 
				739.2,264.4 739.2,261.5 736.6,261.6 736.6,259.1 			"/>
			<polygon class="st1" points="684.5,500.9 712.9,473.8 741.3,470.3 777,471.6 787.8,479.3 787.8,488.3 787.8,554.1 777,559.3 
				774.2,575.1 764.8,568 757.3,554.8 742.2,545.4 727.7,544.8 714.2,539.6 701,541.2 683.2,522.7 			"/>
			<path class="st1" d="M683.2,522.7l29.5-48.6c0.1-0.1,0.2-0.1,0.2,0l22.5,44l6.7,27.3c0,0,0.1,0,0.1,0l15-15.7l4.6-38.4l25.9-2.9
				v-3.5l-46.5-14.5l37.7,39l8.8,16.1v15.5l-30.2,13.7c-0.1,0-0.1,0.2,0,0.2L779,558c0.3,0,0.5-0.2,0.5-0.4l-2.5-85.9
				c0-0.1-0.1-0.1-0.1-0.1l-92.3,29.3l77.4-9.7"/>
			<line class="st1" x1="714.2" y1="539.6" x2="712.9" y2="473.8"/>
			<line class="st1" x1="787.8" y1="502.5" x2="757.3" y2="529.6"/>
			<polyline class="st1" points="779.1,544.9 734.8,516.6 729.5,544.9 			"/>
			<polyline class="st1" points="683.7,523.2 734.8,516.6 778.1,509.1 			"/>
			<line class="st1" x1="761.9" y1="491.2" x2="734.8" y2="516.6"/>
			<line class="st1" x1="757.3" y1="554.8" x2="756.5" y2="530.4"/>
			<line class="st1" x1="779.5" y1="558.1" x2="787.9" y2="545.6"/>
			<circle class="st9" cx="713.5" cy="473.8" r="2.2"/>
			<circle class="st9" cx="741.2" cy="469.5" r="2.2"/>
			<circle class="st9" cx="778.7" cy="509.1" r="2.2"/>
			<circle class="st9" cx="761.3" cy="491.8" r="2.2"/>
			<circle class="st9" cx="735.1" cy="516.6" r="2.2"/>
			<circle class="st9" cx="724.5" cy="496.3" r="2.2"/>
			<circle class="st9" cx="684.9" cy="500.6" r="2.2"/>
			<circle class="st9" cx="714.2" cy="539.6" r="2.2"/>
			<circle class="st9" cx="683.2" cy="524" r="2.2"/>
			<circle class="st9" cx="756.9" cy="530.4" r="2.2"/>
			<circle class="st9" cx="758" cy="555.3" r="2.2"/>
			<circle class="st9" cx="779.1" cy="544.9" r="2.2"/>
			<circle class="st9" cx="779.6" cy="558.2" r="2.2"/>
			<circle class="st9" cx="773.9" cy="574.5" r="2.2"/>
			<text transform="matrix(0.9985 -5.540000e-02 5.540000e-02 0.9985 562.2535 495.9127)"><tspan x="0" y="0" class="st10 st11 st12">Managem ent of</tspan><tspan x="0" y="14.1" class="st10 st11 st12">Neurobehavioral </tspan><tspan x="0" y="28.2" class="st10 st11 st12">Disorders</tspan></text>
		</g>
	</g>
	<g>
		<path class="st7" d="M198.2-469.4c0,0,0.4-5.6,8.3-6.2c8-0.6,232.4-11.1,232.4-11.1l37,18.9l-0.2,335.3c0,0,1,2-3.4,2.6
			s-207.9,21.1-207.9,21.1l-66.2-31.6V-469.4z"/>
		<path class="st1" d="M201.2-471c0,0,2.4-4.2,18.1-2.8s40.3,13.5,40.3,13.5L201.2-471z"/>
		<path class="st1" d="M262.2-109.9l0-348.8c0,0,2-0.4,3.4,4.2l-1.2,345.7"/>
		<line class="st1" x1="266.6" y1="-456.3" x2="475.9" y2="-467.8"/>
		<polygon class="st1" points="426.4,-450.5 426.4,-439 475.9,-441.2 475.9,-452.3 		"/>
		<line class="st1" x1="437.1" y1="-439.5" x2="437.1" y2="-450.9"/>
		<rect x="283.3" y="-434.4" class="st8" width="4.5" height="21.3"/>
		<path class="st8" d="M298.1-434.4l-8.6,8.7c0,0-1.7,1.4,0,3.5l9.6,8.1h5.1l-11.3-9.6c0,0-0.5-0.9-0.1-1.3c0.4-0.4,9.5-9.3,9.5-9.3
			H298.1z"/>
		<path class="st8" d="M304.8-434.4h4.1v16.5H322v2.8h-14.6c0,0-2.7,0.4-2.6-2.3C304.9-420.1,304.8-434.4,304.8-434.4z"/>
		<rect x="323.5" y="-435.4" class="st8" width="4" height="20.3"/>
		<path class="st8" d="M331-415.6v-18.8c0,0,0.2-2.1,3-2.4c2.3-0.3,4.1,2.9,4.1,2.9l8.1,12.1c0,0,1.3,1.1,1.4-0.3c0.1-1.4,0-15,0-15
			h3.3v18.6c0,0-0.3,2-2.7,2.3c-1.9,0.2-2.8-1-3.1-1.5c-0.2-0.4-0.5-0.8-0.8-1.2l-8.9-12.7c0,0-0.4-0.4-0.9,0
			c-0.4,0.3-0.1,0.5-0.1,0.5v15.5H331z"/>
		<rect x="354.5" y="-437.1" class="st8" width="4.3" height="20"/>
		<polygon class="st8" points="360.1,-437.1 364.4,-437.1 369.8,-430.7 375.2,-438.4 379.2,-438.4 372,-428.3 380.4,-418.3 
			376,-418.3 370.2,-425.8 364.6,-418.3 360.4,-418.3 367.5,-428.4 		"/>
		<polygon class="st1" points="265.6,-386.6 475.9,-399.7 475.8,-393.2 265.3,-379.8 		"/>
		<path class="st1" d="M284.9-354.9v-8.9l20.9-0.7c0,0,7.9,1.5,8.6,13.3c0.7,11.8-7.3,13.3-7.3,13.3l7.4,11H305l-4.2-6.7l3.3-0.3
			l-0.3-11.8c0,0,2.8-0.6,2.5-5.2c-0.3-4.6-2.5-5.8-4.5-5.7c-1.9,0.1-8.2,0.1-8.2,0.1l-0.1,1.8L284.9-354.9z"/>
		<polygon class="st1" points="284.9,-352.2 293.4,-352.2 293.4,-344 301.9,-344 301.9,-335.5 293.4,-335.5 293.4,-325.4 
			284.9,-325.4 284.9,-334.7 276.4,-334.7 276.4,-342.9 284.9,-342.9 		"/>
		<polygon class="st1" points="345.4,-367.5 319,-365.8 319,-327 345.4,-328.5 345.4,-336.5 327.1,-335.6 327.1,-343.7 343,-344.6 
			343,-352.2 327.1,-351.4 327.1,-359 345.4,-359.9 		"/>
		<polygon class="st1" points="350.2,-329.7 350.2,-367.5 357.4,-367.5 372.9,-345.8 372.9,-368.6 380.8,-368.6 380.8,-331.5 
			373.8,-331.5 357.7,-354.1 357.7,-329.7 		"/>
		<ellipse class="st1" cx="403.1" cy="-352.4" rx="10" ry="11.6"/>
		<ellipse class="st1" cx="403.1" cy="-352.4" rx="17.6" ry="20.3"/>
		<polygon class="st1" points="423.1,-355.5 423.1,-347.9 438.2,-349.1 438.2,-356.4 		"/>
		<polygon class="st1" points="284.9,-316.6 284.9,-309.4 302.9,-310 283.7,-283.8 283.7,-277.9 313.8,-279.6 313.8,-287.2 
			294.9,-286.3 313.8,-311.5 313.8,-317.9 		"/>
		<polygon class="st1" points="315.5,-318.5 324.3,-318.5 332.2,-305.1 341.3,-320.3 349,-320.3 337,-297.8 337,-281.4 328,-281.4 
			328,-296.6 		"/>
		<polygon class="st1" points="351.7,-282.9 351.7,-321 360,-321 369,-306.6 377.9,-322.8 386.1,-322.8 386.1,-284.8 378.5,-284.7 
			378.4,-308.8 368.9,-292.6 359.4,-307.6 359.4,-282.9 		"/>
		<polygon class="st1" points="417.3,-325.4 391.3,-323.7 391.3,-285.8 417.3,-287.8 417.3,-295.2 398.9,-294 398.9,-302.8 
			415,-303.6 415,-310.7 398.8,-310.1 399.1,-317.3 417.3,-318.6 		"/>
		<line class="st1" x1="283.7" y1="-196.1" x2="379.3" y2="-204.2"/>
		<polyline class="st1" points="400.7,-224.7 387.6,-197.5 400.7,-173.8 		"/>
		<polyline class="st1" points="456.2,-228.1 430.4,-225.9 416,-197.7 430.2,-173 456.2,-175.6 		"/>
		<polyline class="st1" points="409.9,-186 402.1,-199.3 409.9,-213.6 425,-215.4 		"/>
		<polyline class="st1" points="428.1,-221.5 406.7,-220 396,-197.9 407.1,-179 		"/>
		<polyline class="st1" points="426,-205.2 434.5,-192.3 449.4,-193.7 		"/>
		<polyline class="st1" points="444.9,-217.6 454,-202.1 470.3,-204.2 475.9,-217.6 		"/>
		<polyline class="st1" points="416,-232.5 428.1,-259.3 456.2,-261.3 469.7,-236.9 456.2,-209.8 432.5,-207.6 		"/>
		<polyline class="st1" points="454.6,-284 470.7,-285 475.9,-275.2 		"/>
		<polyline class="st1" points="437.7,-244.6 449.4,-268.1 472.3,-269.7 475.7,-263.1 		"/>
		<circle class="st8" cx="410.3" cy="-185.3" r="2.5"/>
		<circle class="st8" cx="444.9" cy="-217.6" r="2.5"/>
		<circle class="st8" cx="431.6" cy="-206.6" r="2.5"/>
		<circle class="st8" cx="460.7" cy="-145.1" r="2.5"/>
		<circle class="st8" cx="456.7" cy="-175.7" r="1"/>
		<circle class="st8" cx="452.5" cy="-216.6" r="1"/>
		<circle class="st8" cx="452.1" cy="-253.2" r="1"/>
		<circle class="st8" cx="422.5" cy="-231.9" r="2.5"/>
		<circle class="st8" cx="454.6" cy="-283.8" r="2.5"/>
		<circle class="st8" cx="401.6" cy="-172.6" r="2.5"/>
		<polyline class="st1" points="452.5,-216.6 461.9,-236 452.1,-253.2 		"/>
		<polygon class="st8" points="422,-234.4 432,-254.7 435.6,-255.1 424.3,-231.9 		"/>
		<polygon class="st8" points="454.6,-260.1 457,-263 471.8,-237.1 457,-207.1 455.3,-210.9 468,-236.7 		"/>
		<polygon class="st8" points="406.8,-181.3 406.3,-177.2 429.1,-179.3 441.4,-204.1 437.7,-204.1 427.3,-182.8 		"/>
		<polyline class="st1" points="436.6,-183.9 454.6,-185.2 464.7,-167.8 454.2,-147.7 		"/>
		<line class="st1" x1="417.1" y1="-162.6" x2="428.6" y2="-142.1"/>
		<polyline class="st1" points="456.2,-170.4 444.9,-147.3 455.2,-128.1 		"/>
		<line class="st1" x1="446.9" y1="-170.4" x2="456.7" y2="-189.4"/>
		<polyline class="st1" points="459.4,-191.1 471.8,-169 461.5,-146.3 		"/>
		<polygon class="st8" points="436.6,-148 434.2,-144.2 455.7,-146.3 454.6,-150.2 		"/>
		<text transform="matrix(0.9983 -5.791000e-02 5.791000e-02 0.9983 283.2943 -232.4069)"><tspan x="0" y="0" class="st10 st14" style="font-size:11.1489px;">Digestive Enzymes</tspan><tspan x="0" y="13.4" class="st10 st14" style="font-size:11.1489px;">with Functional</tspan><tspan x="0" y="26.8" class="st10 st14" style="font-size:11.1489px;">Oligosaccharides</tspan></text>
	</g>
	<g>
		<path class="st7" d="M99.1,297.8c0,0,2.3-6.8,10-7.7l241.2-0.3l37.7,21.3l-1.3,371.8c0,0-0.6,4.2-4.2,4.8l-237,9.4l-46.4-30.6
			V297.8z"/>
		<path class="st1" d="M144.6,307.2c0,0-27.4-21.6-41-12.3L144.6,307.2z"/>
		<polyline class="st1" points="145.6,697.1 144.6,307.2 388.1,311 		"/>
		<line class="st1" x1="336.9" y1="335.3" x2="337.8" y2="689.5"/>
		<line class="st1" x1="336.8" y1="310.2" x2="336.9" y2="322.3"/>
		<line class="st1" x1="386.6" y1="311" x2="385.6" y2="685.7"/>
		<line class="st1" x1="99.1" y1="297.8" x2="143" y2="308.8"/>
		<polygon class="st1" points="330.4,322.3 330.4,335.4 386.5,335.4 386.6,322.3 		"/>
		<line class="st1" x1="342.5" y1="335.4" x2="342.5" y2="322.3"/>
		<rect x="169.4" y="326.6" class="st9" width="4.4" height="23.5"/>
		<path class="st9" d="M186.6,326.6l-10.7,10c0,0-1.4,2.3,0,3.7c1.4,1.4,11.7,10.3,11.7,10.3h5.9l-12.8-11c0,0-1.7-1-0.3-2.4
			c1.3-1.3,11.4-10.6,11.4-10.6H186.6z"/>
		<path class="st9" d="M194.5,326.6h4.9v20.2H215v3.5h-18.4c0,0-2.1,0.1-2.1-2.6S194.5,326.6,194.5,326.6z"/>
		<polygon class="st9" points="216.2,326.6 221.3,326.6 221.3,350.3 216.4,350.3 		"/>
		<path class="st9" d="M225.4,350.3v-20.5c0-1.1,0.2-1.6,1-2.3c0.5-0.5,1.2-0.9,2.2-0.8c1,0,2.1,0.1,2.7,0.9l12.5,17.6
			c0,0,0.7,0.9,1.2-0.1v-18.2h4.2v21.6c0,0-0.5,2.3-3.4,2.3s-3.7-1.7-3.7-1.7L231,332.6c0,0-0.8-0.9-1.3,0.2v17.5H225.4z"/>
		<rect x="253.3" y="326.6" class="st9" width="4.7" height="23.9"/>
		<polygon class="st9" points="259.7,326.6 265,326.6 284.2,350.5 278.2,350.5 		"/>
		<polygon class="st9" points="278,326.6 259.4,350.8 265,350.8 283.4,326.6 		"/>
		<polygon class="st9" points="169.1,388.5 177,388.5 177,393.6 182.5,393.6 182.5,402.2 177.2,402.2 177.2,407.5 169.1,407.5 
			169.1,402 163.2,402 163.2,393.9 169.2,393.9 		"/>
		<path class="st1" d="M169.1,409.8h8.2v16.3h8.1c1.3,0,2.6-0.4,3.8-1.1c2.5-1.6,6.5-4.9,6.5-10.5c0-8.2-5.7-12.8-10.7-12.8v-8
			c0,0,18.6,1.1,18.6,20.1c0,9.9-5.2,14.9-9.9,17.4c-3,1.6-6.3,2.4-9.7,2.4l-14.8,0.3V409.8z"/>
		<path class="st1" d="M205.9,393.8h7.8v25.3c0,0,0.4,7.7,8.1,7.7c7.6,0,8.1-7.6,8.1-7.6v-25.4h7.6v27c0,0,0.9,13.9-15.8,13.9
			s-15.8-15-15.8-15V393.8z"/>
		<ellipse class="st1" cx="259.3" cy="413.3" rx="11.2" ry="12.7"/>
		<ellipse class="st1" cx="259" cy="413.4" rx="19" ry="20.5"/>
		<polygon class="st1" points="197.4,444.3 169.1,444.3 169.1,484.4 177.3,484.4 177.3,468.6 195.2,468.6 195.2,460.9 177.1,460.9 
			177.1,452.1 197.4,452.1 		"/>
		<polygon class="st1" points="200.3,444.3 208.4,444.3 208.4,475.8 226.7,475.8 226.7,483.8 200.3,483.8 		"/>
		<polygon class="st1" points="256.7,444.3 230.1,444.3 230.1,483.8 256.7,483.8 256.7,475.9 236.8,475.9 236.8,467 254.2,467 
			254.2,459.6 237,459.6 237,451.4 256.7,451.4 		"/>
		<polygon class="st1" points="260.7,443.9 269.5,443.9 276.6,456.3 284.7,443.9 292.7,443.9 281.7,462.5 294.1,482.6 284.7,482.6 
			277.4,469.3 268.7,483.8 259.3,483.8 272.2,463.1 		"/>
		<line class="st1" x1="169.1" y1="541.2" x2="294.1" y2="538.6"/>
		<path class="st1" d="M387.5,472.2c0,0-7.6,11.6-23.5,8.8c-15.9-2.8-28.8,21.1-23,37.2c5.8,16.1,18.7,15.3,18.7,15.3
			s1.3,24.5,27.5,20.2"/>
		<path class="st1" d="M326.4,567.2c0,0-4.7-5.2-10.7-5.4c-6-0.2-5.4-18.3,2.6-28.4c8-10.1,10.9-17,19.1-5.4
			c8.2,11.6,15.1,8.6,17.2,15.3c2.1,6.7,10.3,9.7,7.3,15.5s-5.2,9.9-13.8,4.5S326.6,565.7,326.4,567.2z"/>
		<path class="st1" d="M321.4,690.1l-4.3-73.3c0,0-5.4-7.7-8-10.3c-2.6-2.6-8-3.4-6-17.6c1.9-14.2,7.3-21.3,15.9-15
			c8.6,6.2,15.3-1.5,17.7-3.2c2.5-1.7,9.1-0.2,14.1,4.5s11.6-13.8,19.1-6.9s10.7,17.8,8.6,24.7c-2.1,6.9-14.4,17.2-13.3,24.7
			c1.1,7.5-4.3,70.8-4.3,70.8L321.4,690.1z"/>
		<polyline class="st1" points="387.5,482.3 379.3,499.2 359.7,533.5 386.1,534.3 		"/>
		<polyline class="st1" points="387.5,496.7 379.3,499.2 345.9,526.8 353.1,512.6 357.6,499.9 356.7,481.6 379.3,499.2 379.3,554.2 
			386.1,547.5 		"/>
		<polyline class="st1" points="387.4,504.9 379.3,499.2 358.2,499.9 340.5,502.1 379.3,534.3 386,528.7 		"/>
		<polyline class="st1" points="356.7,481.6 384.8,487.8 387.5,487.8 		"/>
		<polyline class="st1" points="354.3,565.8 354.3,542.6 330.3,535.5 311.8,549.8 362.2,558 		"/>
		<polyline class="st1" points="331.6,522.4 330.3,535.5 326.4,567.2 354.3,542.6 		"/>
		<line class="st1" x1="319.2" y1="532.2" x2="330.3" y2="535.5"/>
		<polyline class="st1" points="359.7,688.6 348.1,622.6 318.7,643.7 		"/>
		<line class="st1" x1="302.9" y1="591.3" x2="324.7" y2="576.2"/>
		<line class="st1" x1="352" y1="575.8" x2="337.8" y2="602.1"/>
		<line class="st1" x1="317.1" y1="616.9" x2="377.1" y2="578.3"/>
		<polyline class="st1" points="320,665.7 363.7,653.6 324.7,576.2 317.1,616.9 365.3,628.4 352,575.8 377.1,578.3 320,665.7 
			351.5,688.9 		"/>
		<line class="st1" x1="328.3" y1="689.5" x2="354.3" y2="656.2"/>
	</g>
	<g>
		<path class="st7" d="M934.5,170.5c0,0,1.5-4.1,6.2-4.9c4.7-0.9,232.8-9.7,232.8-9.7l45.8,17.4l-0.4,347c0,0-1.1,3.2-4.1,3.7
			s-217.8,18.3-217.8,18.3s-8,0.2-11.4-2.4c-3.4-2.6-49-27.5-49-27.5s-0.9,0.2-0.6-6.7C936.2,498.8,934.5,170.5,934.5,170.5z"/>
		<path class="st1" d="M938.2,168.3c0,0,9.7-3.2,27.7,0c18.1,3.2,26.4,13.1,26.4,13.1L938.2,168.3z"/>
		<polyline class="st1" points="994.1,540.3 992.3,181.4 1219.4,173.3 		"/>
		<line class="st1" x1="992.7" y1="260.1" x2="1219.3" y2="248.7"/>
		<line class="st1" x1="993.2" y1="267.2" x2="1219.4" y2="254.4"/>
		<rect x="1014.1" y="210.6" class="st13" width="4.3" height="20.7"/>
		<path class="st13" d="M1029.9,209.5l-8.9,8.9c0,0-2.2,2.3,0,4.4c2.9,2.6,9.8,8.6,9.8,8.6h5.2l-11.8-9.6c0,0-1.6-1.2-0.1-2.6
			c1.5-1.4,10-9.7,10-9.7H1029.9z"/>
		<path class="st13" d="M1037.4,209.5h4V227h13.9v3.1h-16.4c0,0-1.5-0.1-1.5-1.8S1037.4,209.5,1037.4,209.5z"/>
		<rect x="1056.6" y="208.6" class="st13" width="4.5" height="21.3"/>
		<path class="st13" d="M1065.2,229.3v-18.9c0-0.9,0.4-1.9,1.1-2.5c0.5-0.4,1.2-0.7,2.2-0.6c1,0.1,1.9,0.7,2.5,1.6l11.1,15.5
			c0,0,1,0.9,1-0.4s0-16.7,0-16.7h3.5v19.5c0,1-0.4,1.6-1.2,2.2c-0.7,0.6-2.8,0.6-3.7-0.2c-0.7-0.6-1.4-1.2-1.9-1.9
			c-1.8-2.6-7.5-10.9-9.7-14.1c-0.2-0.3-1.3-0.8-1.3,0c0,1.2,0,16.4,0,16.4H1065.2z"/>
		<rect x="1090.5" y="207.3" class="st13" width="3.9" height="21.1"/>
		<polygon class="st13" points="1096.2,206.7 1100.9,206.7 1106.8,214.6 1112.7,205.6 1117,205.6 1109.3,216.8 1118.1,227.3 
			1112.8,227.3 1107.2,219.3 1101.2,227.7 1096.2,227.7 1104.5,216.7 		"/>
		<polygon class="st13" points="1014.5,281.8 1014.5,287.3 1009.2,287.3 1009.2,295.6 1014.5,295.6 1014.5,301 1022.8,301 
			1022.8,294.8 1028.1,294.8 1028.1,287.1 1022.6,287.1 1022.6,281.8 		"/>
		<rect x="1014.6" y="303.2" class="st1" width="8.2" height="23.7"/>
		<polygon class="st1" points="1025.1,297.2 1025.1,304.8 1030.7,313.1 1036.1,313.1 1043.4,300.1 1043.4,325.9 1052.1,325.9 
			1052.1,285.4 1043,285.4 1033.4,302.7 1029.2,297.1 		"/>
		<polygon class="st1" points="1055.9,284.8 1082.6,284.2 1082.6,291.7 1063.3,292.1 1063.4,300.2 1080.6,299.8 1080.6,307.3 
			1063.4,307.7 1063.4,316.7 1083.3,316.2 1083.3,324 1055.9,325.4 		"/>
		<path class="st1" d="M1112.9,293.1l4.8-6.5c0,0-14.4-12.2-27.7,2.2c-13.2,14.4,1,50.1,28.5,27.3v-17.3l-15,0.6l0.2,6.9l7.6-0.2
			v6.1c0,0-11,9.4-16.9-3.7C1088.3,295.5,1101.9,284.4,1112.9,293.1z"/>
		<polygon class="st1" points="1135.3,280.3 1120.3,320.6 1128.5,320.6 1131.7,311.1 1145.9,310.6 1149.5,318.9 1157.5,318.5 
			1142.2,280.3 		"/>
		<polygon class="st1" points="1138.9,291.3 1134,302.6 1143.3,302.6 		"/>
		<rect x="1158.2" y="292.7" class="st1" width="15.2" height="7.7"/>
		<path class="st1" d="M1014.6,336v7.6h14.4l-7.9,9l-0.8,1l1.5,5.5c0,0,10.9-1.8,10.8,4c-0.2,5.8-7.9,8.1-13.9,1.8l-5.6,6
			c0,0,7.8,10.8,21.6,4c12.6-6.2,5.6-24.4-3.7-23l9.8-9.9l-0.3-6.8L1014.6,336z"/>
		<polygon class="st1" points="1040,375.3 1058.7,333.9 1076.9,372.9 1066.7,373.5 1058.5,356.8 1050.6,375.3 		"/>
		<polygon class="st1" points="1058.5,362.2 1054.5,370.5 1063.2,370.5 		"/>
		<path class="st1" d="M1014.6,470.9l135.4-10.6L1014.6,470.9z"/>
		<polygon class="st1" points="1172.5,323.4 1140,342.7 1123.3,379.4 1130.8,417.3 1147.9,436.4 1180,445.9 1209.7,435.6 
			1219.1,425 1219.1,338.4 1207.1,327.2 		"/>
		<polyline class="st1" points="1219.1,360.5 1216.2,367.4 1205.6,376.4 1181.8,392.6 1169.7,400.7 1146.3,412.8 1130.8,417.3 
			1132.3,406.1 1130.8,391.3 1149.9,381.4 1162.6,351.7 		"/>
		<polyline class="st1" points="1140,342.7 1163.7,338.4 1184.1,331.9 1197.7,327.2 1207.1,327.2 1208.2,342.7 1200.5,355.8 
			1193.8,384.6 		"/>
		<polyline class="st1" points="1219.1,344.8 1208.2,342.7 1184.1,331.9 1162.6,351.7 1163.7,338.4 1172.5,323.4 1184.1,331.9 
			1200.5,355.8 1219.4,349 		"/>
		<polyline class="st1" points="1136.2,360.1 1179.6,369.1 1162.6,351.7 		"/>
		<line class="st1" x1="1200.5" y1="355.8" x2="1179.6" y2="369.1"/>
		<polyline class="st1" points="1149.9,381.4 1147.4,394.9 1146.3,412.8 1147.9,436.4 1167.1,427 		"/>
		<polyline class="st1" points="1169.7,400.7 1167.1,427 1180,445.9 1190,437.3 1193.6,413.4 1197.7,399.2 1213.8,395.1 
			1219.2,391.3 		"/>
		<polyline class="st1" points="1181.8,392.6 1160.5,382 1169.7,400.7 1147.4,394.9 1130.8,391.3 1135.1,366.1 1123.3,379.4 
			1146.3,412.8 1167.1,427 1193.6,413.4 1216.2,417.7 1213.8,395.1 1216.2,367.4 1200.5,355.8 1162.6,351.7 1136.2,360.1 
			1149.9,381.4 1160.5,382 1179.6,369.1 1193.8,384.6 1181.8,392.6 1197.7,399.2 1216.2,417.7 1209.7,435.6 1190,437.3 
			1208.2,427.4 1216.2,417.7 1219.1,417.7 		"/>
		<line class="st1" x1="1169.7" y1="400.7" x2="1193.6" y2="413.4"/>
		<circle class="st13" cx="1134.5" cy="365.8" r="1.7"/>
		<circle class="st13" cx="1140" cy="342.5" r="1.7"/>
		<circle class="st13" cx="1137.2" cy="359.9" r="1.7"/>
		<circle class="st13" cx="1160.5" cy="382.1" r="1.7"/>
		<circle class="st13" cx="1179.6" cy="369.1" r="1.7"/>
		<circle class="st13" cx="1215.8" cy="367" r="1.7"/>
		<circle class="st13" cx="1215.8" cy="417.3" r="1.7"/>
		<circle class="st13" cx="1193.6" cy="413.4" r="1.7"/>
		<circle class="st13" cx="1131.2" cy="391.3" r="1.7"/>
		<circle class="st13" cx="1123.3" cy="379.4" r="1.7"/>
		<circle class="st13" cx="1162.4" cy="352.2" r="1.7"/>
		<circle class="st13" cx="1149.6" cy="381" r="1.7"/>
		<circle class="st13" cx="1184.4" cy="332" r="1.7"/>
		<circle class="st13" cx="1200.5" cy="355.8" r="1.7"/>
		<circle class="st13" cx="1208.2" cy="341.6" r="1.7"/>
		<circle class="st13" cx="1197.8" cy="326.4" r="1.7"/>
		<circle class="st13" cx="1164.1" cy="337.9" r="1.7"/>
		<circle class="st13" cx="1208.2" cy="327.2" r="1.7"/>
		<circle class="st13" cx="1173.4" cy="322.7" r="1.7"/>
		<circle class="st13" cx="1147.3" cy="395" r="1.7"/>
		<circle class="st13" cx="1197.8" cy="399.8" r="1.7"/>
		<circle class="st13" cx="1209.7" cy="435.6" r="1.7"/>
		<circle class="st13" cx="1208.2" cy="427" r="1.7"/>
		<circle class="st13" cx="1146.3" cy="412.8" r="1.7"/>
		<circle class="st13" cx="1190.5" cy="437.3" r="1.7"/>
		<circle class="st13" cx="1179.4" cy="445.7" r="1.7"/>
		<circle class="st13" cx="1148" cy="436.4" r="1.7"/>
		<circle class="st13" cx="1167.1" cy="427" r="1.7"/>
		<circle class="st13" cx="1131.2" cy="417.3" r="1.7"/>
		<circle class="st13" cx="1132.6" cy="406.7" r="1.7"/>
		<polygon class="st1" points="1165.4,192.1 1165.4,204.1 1219.3,201.3 1219.3,190.2 		"/>
		<line class="st1" x1="1176.7" y1="191.7" x2="1176.7" y2="203.5"/>
	</g>
	<g>
		<path class="st7" d="M762.8,377c0,0,0.4-6,9-6.7s251.3-12,251.3-12l40,20.4l-0.2,362.7c0,0,1.1,2.2-3.7,2.8
			c-4.7,0.6-224.9,22.8-224.9,22.8l-71.6-34.2V377z"/>
		<path class="st1" d="M766,375.3c0,0,2.6-4.5,19.6-3c17,1.5,43.6,14.6,43.6,14.6L766,375.3z"/>
		<path class="st1" d="M832,765.9l0-377.3c0,0,2.1-0.4,3.7,4.5L834.3,767"/>
		<line class="st1" x1="836.7" y1="391.2" x2="1063.1" y2="378.7"/>
		<polygon class="st1" points="1009.6,397.4 1009.6,409.9 1063.1,407.5 1063.1,395.5 		"/>
		<line class="st1" x1="1021.2" y1="409.4" x2="1021.2" y2="397"/>
		<rect x="854.8" y="414.8" class="st8" width="4.8" height="23"/>
		<path class="st8" d="M870.8,414.8l-9.4,9.5c0,0-1.8,1.5,0,3.8l10.4,8.7h5.5l-12.3-10.4c0,0-0.5-1-0.1-1.4s10.3-10.1,10.3-10.1
			H870.8z"/>
		<path class="st8" d="M878.1,414.8h4.4v17.8h14.2v3h-15.8c0,0-2.9,0.4-2.8-2.5C878.2,430.3,878.1,414.8,878.1,414.8z"/>
		<rect x="898.3" y="413.8" class="st8" width="4.3" height="22"/>
		<path class="st8" d="M906.4,435.2v-20.3c0,0,0.2-2.3,3.2-2.6c2.5-0.3,4.4,3.2,4.4,3.2l8.8,13.1c0,0,1.4,1.2,1.5-0.3s0-16.2,0-16.2
			h3.5V432c0,0-0.3,2.2-2.9,2.5c-2,0.2-3.1-1.1-3.4-1.7c-0.3-0.5-0.6-0.9-0.9-1.3l-9.6-13.7c0,0-0.4-0.5-1,0
			c-0.4,0.4-0.1,0.5-0.1,0.5v16.8H906.4z"/>
		<rect x="931.8" y="412" class="st8" width="4.6" height="21.7"/>
		<polygon class="st8" points="937.9,412 942.5,412 948.4,418.9 954.2,410.5 958.5,410.5 950.8,421.5 959.8,432.2 955.1,432.2 
			948.8,424.2 942.7,432.2 938.2,432.2 945.9,421.4 		"/>
		<polygon class="st1" points="835.6,466.5 1063.1,452.4 1063.1,459.4 835.4,474 		"/>
		<path class="st1" d="M856.5,500.9v-9.7l22.6-0.8c0,0,8.5,1.6,9.4,14.4c0.8,12.7-7.9,14.4-7.9,14.4l8,11.9h-10.2l-4.5-7.3l3.5-0.3
			l-0.3-12.7c0,0,3.1-0.6,2.7-5.6s-2.7-6.3-4.8-6.1c-2.1,0.2-8.9,0.2-8.9,0.2l-0.2,1.9L856.5,500.9z"/>
		<polygon class="st2" points="856.5,503.8 865.7,503.8 865.7,512.7 874.9,512.7 874.9,521.8 865.7,521.8 865.7,532.8 856.5,532.8 
			856.5,522.7 847.4,522.7 847.4,513.8 856.5,513.8 		"/>
		<polygon class="st1" points="922,487.2 893.5,489.1 893.5,531 922,529.4 922,520.7 902.2,521.7 902.2,513 919.4,512 919.4,503.8 
			902.2,504.6 902.2,496.4 922,495.4 		"/>
		<polygon class="st1" points="927.2,528.1 927.2,487.2 934.9,487.2 951.7,510.7 951.7,486.1 960.2,486.1 960.2,526.2 952.6,526.2 
			935.2,501.7 935.2,528.1 		"/>
		<ellipse class="st1" cx="984.4" cy="503.5" rx="10.8" ry="12.5"/>
		<ellipse class="st1" cx="984.4" cy="503.5" rx="19" ry="22"/>
		<polygon class="st1" points="1006,500.2 1006,508.5 1022.3,507.1 1022.3,499.3 		"/>
		<polygon class="st1" points="856.5,542.3 856.5,550.1 876.1,549.4 855.3,577.8 855.3,584.1 887.8,582.3 887.8,574.1 867.3,575.1 
			887.8,547.8 887.8,540.9 		"/>
		<polygon class="st1" points="889.6,540.2 899.1,540.2 907.7,554.7 917.5,538.3 925.9,538.3 912.9,562.6 912.9,580.4 903.1,580.4 
			903.1,563.9 		"/>
		<polygon class="st1" points="928.8,578.8 928.8,537.5 937.8,537.5 947.5,553.1 957.2,535.6 966,535.6 966,576.7 957.8,576.8 
			957.6,550.7 947.4,568.2 937.2,552 937.2,578.8 		"/>
		<polygon class="st1" points="999.7,532.8 971.7,534.6 971.7,575.5 999.7,573.4 999.7,565.4 979.9,566.7 979.9,557.2 997.3,556.4 
			997.3,548.6 979.7,549.3 980.1,541.5 999.7,540.1 		"/>
		<line class="st1" x1="855.3" y1="672.6" x2="958.6" y2="663.9"/>
		<polyline class="st1" points="981.8,641.7 967.6,671.1 981.8,696.7 		"/>
		<polyline class="st1" points="1041.8,638 1013.9,640.4 998.4,670.9 1013.7,697.6 1041.8,694.8 		"/>
		<polyline class="st1" points="991.7,683.6 983.3,669.2 991.7,653.7 1008.1,651.8 		"/>
		<polyline class="st1" points="1011.4,645.2 988.3,646.8 976.7,670.7 988.7,691.1 		"/>
		<polyline class="st1" points="1009.1,662.7 1018.4,676.7 1034.5,675.2 		"/>
		<polyline class="st1" points="1029.6,649.4 1039.5,666.2 1057.1,663.9 1063.1,649.4 		"/>
		<polyline class="st1" points="998.4,633.3 1011.4,604.2 1041.8,602.1 1056.4,628.5 1041.8,657.8 1016.2,660.1 		"/>
		<polyline class="st1" points="1040.1,577.6 1057.5,576.5 1063.1,587 		"/>
		<polyline class="st1" points="1021.8,620.2 1034.5,594.8 1059.2,593.1 1063,600.2 		"/>
		<circle class="st8" cx="992.1" cy="684.3" r="2.7"/>
		<circle class="st8" cx="1029.6" cy="649.4" r="2.7"/>
		<circle class="st8" cx="1015.2" cy="661.2" r="2.7"/>
		<circle class="st8" cx="1046.7" cy="727.7" r="2.7"/>
		<circle class="st8" cx="1042.3" cy="694.7" r="1.1"/>
		<circle class="st8" cx="1037.8" cy="650.5" r="1.1"/>
		<circle class="st8" cx="1037.4" cy="610.9" r="1.1"/>
		<circle class="st8" cx="1005.3" cy="633.9" r="2.7"/>
		<circle class="st8" cx="1040.1" cy="577.7" r="2.7"/>
		<circle class="st8" cx="982.8" cy="698.1" r="2.7"/>
		<polyline class="st1" points="1037.8,650.5 1047.9,629.5 1037.4,610.9 		"/>
		<polygon class="st8" points="1004.8,631.2 1015.6,609.2 1019.6,608.8 1007.3,633.9 		"/>
		<polygon class="st8" points="1040,603.4 1042.7,600.3 1058.7,628.3 1042.7,660.7 1040.9,656.6 1054.6,628.7 		"/>
		<polygon class="st8" points="988.4,688.7 987.8,693 1012.5,690.8 1025.9,664 1021.8,664 1010.6,687 		"/>
		<polyline class="st1" points="1020.6,685.8 1040.1,684.4 1051,703.3 1039.6,725 		"/>
		<line class="st1" x1="999.5" y1="708.8" x2="1012" y2="731"/>
		<polyline class="st1" points="1041.8,700.4 1029.6,725.4 1040.7,746.1 		"/>
		<line class="st1" x1="1031.7" y1="700.4" x2="1042.3" y2="679.9"/>
		<polyline class="st1" points="1045.3,678 1058.7,702 1047.5,726.5 		"/>
		<polygon class="st8" points="1020.6,724.6 1018,728.7 1041.3,726.5 1040,722.3 		"/>
		<text transform="matrix(0.9983 -5.791000e-02 5.791000e-02 0.9983 854.7891 633.3373)"><tspan x="0" y="0" class="st10 st14 st15">Digestive Enzymes</tspan><tspan x="0" y="14.5" class="st10 st14 st15">with Functional</tspan><tspan x="0" y="28.9" class="st10 st14 st15">Oligosaccharides</tspan></text>
	</g>
	<g>
		<path class="st7" d="M61.8,603l-0.3,44.9c0,0,0,1.8,2.4,2.6v0.9c0,0-2.4,1.1-2.4,6.4c0,5.3,0,206.9,0,206.9s-0.3,5.1,5.7,10.3
			c6,5.2,26.9,15.4,67.4,9.6c0,0,0.8-0.5,2.1,0c0,0,50.3,9.8,64.8-16.5c0,0,0.5-2.1,0.8-3.8s0-204.7,0-204.7s0.1-6.8-2.3-7.9
			c0,0-0.8-0.4,0-1.3c0.7-0.9,1.8-1.1,1.9-3.6c0.1-2.5,0-40.7,0-40.7s0.9-4.4-3.5-6.4c-4.4-2.1-19.9-5.7-66.4-5.7
			S63.4,596.2,61.8,603z"/>
		<path class="st1" d="M61.5,659.9c0,0-1.2,6.8,70.4,6.8s70.3-7.2,70.3-7.2"/>
		<path class="st1" d="M61.5,865.1c0,0-1.2,12.9,70.4,12.9s70.3-13.3,70.3-13.3"/>
		<path class="st1" d="M193,871.3V709.4c-55.5,10.9-115.4,1.4-115.4,1.4v162.9"/>
		<path class="st1" d="M77.6,714.6c0,0,56.3,9.6,115.4-1.1"/>
		<polygon points="86.1,726.2 86.1,728.8 83.9,728.8 83.9,733.1 86.1,733.1 86.1,736.4 89.5,736.4 89.5,733.8 91.9,733.8 
			91.9,729.6 89.7,729.6 89.7,726.2 		"/>
		<rect x="86" y="737.8" class="st16" width="3.5" height="13.3"/>
		<polygon class="st16" points="90.8,735.4 90.8,739.1 93.9,744.4 96,744.4 99.8,738.7 99.8,752.3 104.5,752.3 104.5,730.7 
			99.8,730.7 95.3,738.5 93.3,735.3 		"/>
		<polygon class="st16" points="106.4,730.7 106.4,752.6 122.3,752.9 122.3,749 111.1,748.8 111.1,744.4 120.4,744.4 120.4,740.1 
			111,740 111.1,735.4 122.3,735.6 122.3,731.3 		"/>
		<path class="st16" d="M140,737.6l3-3.6c0,0-9.4-7-16.8,0.9c-7.4,8,1.4,27.4,17.5,15.4v-9.4h-9.3v4.1h4.7v3.1c0,0-6.6,4.3-10.2-2.1
			C125.4,739.5,133,732.1,140,737.6z"/>
		<polygon class="st16" points="144.4,753 153.6,730.5 157.3,730.5 166,753 161.3,753 159.2,747.9 151.7,747.9 149.4,753 		"/>
		<polygon class="st16" points="153.1,743.3 157.8,743.3 155.2,737 		"/>
		<polygon class="st16" points="166,737.7 166.2,742.2 174.5,741.8 174.5,737.7 		"/>
		<path class="st16" d="M86,756.2v4h6.7v0.9l-4,4.4l0.8,3.4c0,0,6.7,0,5.2,4.4c-1.5,4.3-6-0.3-6.9-1.8l-2.6,3.2
			c0,0,3.5,7.2,10.1,4.2c6.6-3,4.4-12.5-1.2-13.1l4.8-5.2l-0.1-4L86,756.2z"/>
		<polygon class="st16" points="98.3,779.7 107.9,758 118.9,779.7 112.7,779.7 108.1,770.3 104.2,779.7 		"/>
		<polygon class="st16" points="108,773.6 106.4,778.3 110.4,778.3 		"/>
		<path class="st1" d="M170.3,676.2v7c0,0,14.8,0.8,22.7-2.8v-6.2C193,674.2,184.3,677,170.3,676.2z"/>
		<line class="st1" x1="176.3" y1="683.3" x2="176.3" y2="676.3"/>
		<rect x="85.8" y="684.7" class="st8" width="2.1" height="12"/>
		<path class="st8" d="M93.5,685.5l-4.3,4c0,0-1.6,1.3,0,2.9c1.6,1.6,4.7,5,4.7,5h2.4l-5.6-6c0,0-0.9-0.6,0-1.3
			c0.9-0.7,5.2-4.6,5.2-4.6H93.5z"/>
		<path class="st8" d="M97.2,685.5h2v10.3h7.2v1.6h-7.9c0,0-1.4,0.1-1.3-1.5C97.3,694.3,97.2,685.5,97.2,685.5z"/>
		<rect x="107.3" y="686" class="st8" width="2.5" height="12"/>
		<path class="st8" d="M112.1,698.3v-10.5c0-0.6,0.2-1.2,0.7-1.6c0.3-0.3,0.7-0.5,1.3-0.4c0.6,0.1,1.1,0.5,1.5,1l6.5,9.4
			c0,0,0.6,0.6,0.8-0.1v-9.6h2.2v9.9c0,1.3-0.9,2.5-2.2,2.6c-0.5,0-1,0-1.5-0.3c-0.5-0.2-0.8-0.6-1.1-1.1l-5.2-7.9
			c0,0-0.5-0.5-0.7,0v8.6H112.1z"/>
		<rect x="127" y="686.6" class="st8" width="2.8" height="12.5"/>
		<polygon class="st8" points="130.9,686.6 133.8,686.6 136.9,691.4 140.2,686.6 143.4,686.6 138.8,693 144,699.1 140.2,699.1 
			137,694.3 133.6,699.1 130.5,699.1 135.1,692.7 		"/>
		<path class="st1" d="M85.9,834.4c0,0,35.2,5.5,75.9,1.5"/>
	</g>
	<g>
		<path class="st7" d="M254.2,616.5c0-5.6,0-22.5,0-22.5s-0.8-3.9,6.1-5.3c6.9-1.4,54.5-3,58.9,3.6c0,0,1.8,0.7,1.9,5.7
			c0.1,5,0,19.3,0,19.3s0.7,4.7-4.6,5.4c-1.3,0.2-2.4,1-2.9,2.2c-0.5,1.1-0.3,2.8,2.4,2.9c3.3,0.1,1,5.5,4.2,8.6
			c5,4.8,3.6,10.4,3.6,10.4l-0.4,168c0,0,0,5.3-7.2,8.2c-7.2,2.9-40.8,6.4-62-1.5c0,0-4.8-1-4.8-9s0-168,0-168s-0.4-6.4,4.8-10.2
			c0.8-0.6,1.4-1.6,1.5-2.6c0.3-2,1.1-5,3.7-5.3c2.9-0.4,3.1-1.9-0.8-3.6C254.8,621.1,254.2,620.2,254.2,616.5z"/>
		<path class="st1" d="M258.7,622.7c0,0,36,4.1,55.9,0.9"/>
		<path class="st1" d="M249.4,650.2c0,0,0.3,6.1,35.9,6.1s38.5-3.7,38.5-3.7"/>
		<path class="st1" d="M249.4,804.2c0,0,1.6,6.2,37.3,6.7c35.7,0.4,36.7-5.7,36.7-5.7"/>
		<path class="st1" d="M249.4,666.6c0,0,3.6,2.9,9.1,3v3.3c0,0-7-0.6-9.1-3.2V666.6z"/>
		<path class="st1" d="M314.6,671c0,0,6.8-0.2,9.2-2.2l0,3.5c0,0-2.8,2.1-9.2,1.9V671z"/>
		<rect x="268.1" y="668.8" class="st8" width="1.2" height="6.9"/>
		<path class="st8" d="M273.6,668.8l-3.4,2.8c0,0-0.7,0.9,0,1.7l3.4,3.1h1.8l-4-3.6c0,0-0.3-0.4,0-0.7c0.3-0.3,3.8-3.3,3.8-3.3
			H273.6z"/>
		<path class="st8" d="M276.2,668.9v7.3c0,0,0.1,0.8,1.1,0.8s5.5,0,5.5,0v-1.2h-4.5c0,0-0.7,0.2-0.7-0.5s0.1-6.3,0.1-6.3H276.2z"/>
		<rect x="283.6" y="669.3" class="st8" width="1.5" height="7.5"/>
		<rect x="296.3" y="669.3" class="st8" width="1.5" height="7.5"/>
		<path class="st8" d="M286.6,676.8v-6.4c0,0,0-0.9,1.2-0.9c0.9,0,1.5,0.7,1.5,0.7l3.6,5.1c0,0,0.7,0.6,0.7-0.1s0-5.8,0-5.8h1.5v7
			c0,0-0.1,1-1.5,1c-1,0-1.5-0.8-1.5-0.8l-3.5-5.2c0,0-0.3-0.3-0.5,0v5.3H286.6z"/>
		<polygon class="st8" points="298.7,669.3 300.3,669.3 302.4,672.3 304.6,669.3 306.2,669.3 303.4,673.3 306.2,676.8 304,676.8 
			302.2,674.3 300.6,676.8 298.7,676.8 301.2,673.2 		"/>
		<path class="st1" d="M312.9,809.4l1.6-120c-27.8,3.9-56.1-1.4-56.1-1.4l-1.5,120"/>
		<polygon class="st17" points="291.4,695.9 291.4,698.6 294.1,699.6 294.1,704.4 290.8,705.6 291,708.4 303.6,703.3 303.6,700.3 		
			"/>
		<polygon class="st17" points="296.7,700.7 296.7,703.4 300.1,702 		"/>
		<path class="st17" d="M294.8,717.1c0,0-3.1-3.6,0.5-6c3.5-2.3,8,1.7,4.3,6l1.9,1.6c0,0,4.5-4.1,0.9-8.8c-3.6-4.7-10.2-1.7-11,1.4
			c-0.8,3.1-0.5,5.7,1.8,7.7L294.8,717.1z"/>
		<polygon class="st17" points="300.8,719.5 300.8,723 290.9,723 290.9,725.7 300.8,725.7 300.8,729.1 303.2,729.1 303.2,719.5 		
			"/>
		<polygon class="st17" points="290.9,733.9 290.9,736.6 296.2,736.6 302.9,741 302.9,737.8 298.3,735.2 303.2,732.4 303.2,729.7 
			296.6,733.9 		"/>
		<polygon class="st18" points="293.5,741 293.5,743.3 290.2,743.3 290.2,746.2 293.5,746.2 293.5,749 296.3,749 296.3,746.2 
			299.1,746.2 299.1,743.4 296.2,743.4 296.2,741 		"/>
		<path class="st17" d="M299.9,743.4h2.9v6.2c0,0-0.3,3.4-4.4,3.4s-4.5-2.9-4.7-3.2l3.2-0.1c0,0,0,0.8,1.3,0.8s1.7-1,1.7-1
			L299.9,743.4z"/>
		<path class="st17" d="M290.2,754.1h12.2v6.8c0,0-0.6,3.1-4.1,3.1s-3.6-2.5-3.6-2.5l-4.5,3.1v-3.2l3.9-2.7v-2h-3.9V754.1z"/>
		<path class="st17" d="M296.8,756.6h3.1v3.5c0,0-0.1,1.3-1.7,1.3c-1.5,0-1.5-1.2-1.5-1.2V756.6z"/>
		<circle class="st17" cx="296.3" cy="771.5" r="3.5"/>
		<circle class="st17" cx="296.3" cy="771.5" r="6.5"/>
		<polyline class="st1" points="275.1,774.9 269,780.2 275.1,786.1 		"/>
		<line class="st1" x1="282.3" y1="779.2" x2="288.8" y2="785.1"/>
		<path class="st1" d="M283.8,780.5l-8.7,8c0,0-6.1,4.9-0.9,10.7l5.1,5.5"/>
		<path class="st1" d="M284.9,781.5l-9.4,8.9c0,0-4.2,3.4-0.4,7.7l5.4,5.7"/>
		<path class="st1" d="M286.7,783.2l-8,8c0,0-3.7,2.8-0.7,6.1c3,3.3,5,5,5,5"/>
		<path class="st1" d="M277.3,807.5l9.8-9.2c0,0,1.9-1.9,0.3-3.8s-6-6-6-6"/>
		<path class="st1" d="M279.5,809.7l8.9-8.4c0,0,1.1-1,1.9-2.6c1.1-2.2,0.6-4.9-1.2-6.6l-5.8-5.5"/>
		<path class="st1" d="M284.2,785.6l7.2,6.6c0,0,2.3,2.1,1.3,5.7c-0.3,1.2-1.1,2.4-2,3.3l-9.7,9.6"/>
		<line class="st1" x1="280.1" y1="789.7" x2="285.7" y2="795.3"/>
		<line class="st1" x1="283.8" y1="801.4" x2="278.5" y2="796.1"/>
		<path class="st1" d="M276.8,807l3.9,3.8L276.8,807z"/>
		<polygon class="st8" points="276.7,807 277.7,807.8 286,800.4 285.4,799.7 285,799.4 		"/>
		<polygon class="st8" points="270.3,779.2 277.3,786.6 278.3,785.6 271.3,778.3 		"/>
		<line class="st8" x1="272.5" y1="777.2" x2="279.7" y2="784.4"/>
		<line class="st8" x1="273.5" y1="776.3" x2="280.7" y2="783.4"/>
		<polygon class="st8" points="278.1,790.7 279.1,791.6 287.2,783.7 286.2,782.7 		"/>
		<polygon class="st8" points="285.6,806.2 289.9,810.8 292.3,810.8 286.7,805.1 		"/>
		<path class="st8" d="M284.3,807.5l3,3.3L284.3,807.5z"/>
		<path class="st8" d="M282.9,808.8l2,2L282.9,808.8z"/>
		<line class="st8" x1="289.3" y1="805.1" x2="295" y2="810.8"/>
		<circle class="st8" cx="290.7" cy="786.6" r="0.8"/>
		<circle class="st8" cx="273.5" cy="804" r="0.8"/>
		<circle class="st8" cx="267" cy="782.1" r="0.8"/>
		<circle class="st8" cx="297.5" cy="808.9" r="0.8"/>
		<circle class="st8" cx="295.3" cy="807.3" r="0.4"/>
		<circle class="st8" cx="293" cy="788.7" r="0.4"/>
		<circle class="st8" cx="293.5" cy="805.5" r="0.2"/>
		<circle class="st8" cx="295" cy="790.5" r="0.2"/>
		<circle class="st8" cx="271.5" cy="801.7" r="0.4"/>
		<circle class="st8" cx="269.2" cy="784.4" r="0.4"/>
		<circle class="st8" cx="269.6" cy="799.9" r="0.2"/>
		<circle class="st8" cx="271.1" cy="786.4" r="0.2"/>
	</g>
	<g>
		<path class="st7" d="M539.7,445.7c0,0,1.1-4.2,4-6h92.6c0,0,13.4-1,20.2,8.1l-1.9,339.1l-88.5,3.4l-25.5-17.1L539.7,445.7z"/>
		<path class="st1" d="M565.5,445.1c0,0,0.3-6.8-22.3-3.1l-1,1L565.5,445.1z"/>
		<polyline class="st1" points="566,790.3 565.5,445.1 652.9,446.1 		"/>
		<polyline class="st1" points="654.8,745.7 646,745.7 646,787.3 646,755 566,757.4 		"/>
		<line class="st1" x1="646" y1="755" x2="654.7" y2="755"/>
		<path class="st1" d="M566,746.3c0,0,31.2,7.4,51,42.1"/>
		<path class="st1" d="M566,730.5c0,0,43.1,8.2,67.8,57.2"/>
		<path class="st1" d="M566,723.7c0,0,48.3,7.4,73.6,63.8"/>
		<polyline class="st1" points="566,777.6 572.1,781.3 576.3,789.9 		"/>
		<polyline class="st1" points="591.5,789.3 586.3,782.4 577.9,776.6 572.1,781.3 		"/>
		<polyline class="st1" points="566,764.5 575,769.4 577.9,776.6 		"/>
		<path class="st1" d="M608.9,788.7c0,0-20.4-28.4-42.9-35.3"/>
		<path class="st1" d="M566,755.9c0,0,11.8,5.6,16,12.6l8.1,5.3l3.5,6.7l4.4,5.6h7l0.7-1.4"/>
		<line class="st1" x1="586.3" y1="782.4" x2="593.5" y2="780.1"/>
		<line class="st1" x1="575" y1="769.4" x2="582" y2="768.6"/>
		<line class="st1" x1="577.4" y1="763.4" x2="583.7" y2="762.9"/>
		<line class="st1" x1="590.1" y1="773.9" x2="596.1" y2="773.9"/>
		<polygon class="st1" points="614.5,463 614.5,468.1 619.2,470.1 619.2,472.5 624.1,474.8 624.1,472 633.6,476.2 633.6,479.9 
			630,479.9 630.2,484.3 638.3,484.3 638.3,473.6 		"/>
		<polygon class="st2" points="619.4,474.4 619.4,479.3 614.5,479.3 614.5,483.9 619.4,483.9 619.4,489 624,489 624,483.9 
			628.7,483.9 628.7,479.2 623.7,479.2 623.7,476.2 		"/>
		<polygon class="st1" points="614.5,491.6 637.5,491.6 637.5,497.3 619.5,497.3 619.5,508.6 614.5,508.6 		"/>
		<polygon class="st1" points="614.5,512.9 637.5,512.9 637.5,518.5 619.5,518.5 619.5,529.9 614.5,529.9 		"/>
		<circle class="st1" cx="626" cy="543.8" r="7.2"/>
		<circle class="st1" cx="626" cy="543.8" r="12.1"/>
		<path class="st1" d="M593.7,478.5l-2.7,2.8c0,0-5.6-4.8-2.9-12c2.7-7.2,9.9-6.3,9.9-6.3s8.5-0.1,9,9.8c0.3,5.8-3.2,8.1-3.2,8.1
			l-2.5-2.6c0,0,3.5-4.4,0.6-8.5c-2.9-4-8.1-1.6-9.2-0.3C591.2,471.4,590.7,475.6,593.7,478.5z"/>
		<polygon class="st1" points="587.9,498.9 587.9,484.3 607.2,484.3 607.2,498.9 603.2,498.9 603.2,489 599.3,489 599.3,497.9 
			595.8,497.9 595.8,489 591.6,489 591.6,498.9 		"/>
		<polygon class="st1" points="587.9,503 587.9,506.9 599.7,506.9 587.9,516.3 587.9,519.7 606.6,519.7 606.6,516 595.7,516 
			606.6,507.1 606.6,503 		"/>
		<polygon class="st1" points="606.6,523.5 606.6,538.7 603,538.7 603,533.3 587.9,533.3 587.9,529 603.5,529 603.5,523.5 		"/>
		<path class="st1" d="M587.9,542.1v3.9h6.2v3.4l-6.2,4.4v4.5l6.8-4.5c0,0,1,3.9,5.8,3.9s6.1-3.9,6.1-3.9v-11.7H587.9z"/>
		<rect x="587.9" y="562" class="st1" width="18.7" height="3.3"/>
		<path class="st1" d="M593.7,585.2l-2.7,2.8c0,0-5.6-4.8-2.9-12c2.7-7.2,9.9-6.3,9.9-6.3s8.5-0.1,9,9.8c0.3,5.8-3.2,8.1-3.2,8.1
			l-2.5-2.6c0,0,3.5-4.4,0.6-8.5c-2.9-4-8.1-1.6-9.2-0.3C591.2,578.2,590.6,582.3,593.7,585.2z"/>
		<path class="st1" d="M597.7,545.9h5.5v5.5c0,0-0.2,2.6-2.7,2.6c-2.5,0-2.7-3-2.7-3V545.9z"/>
		<path class="st1" d="M610.2,606.7v101.4V606.7z"/>
	</g>
	<g>
		<path class="st19" d="M1062.9,656.9c-0.3-2-0.6-6-7.9-5.8s-14.3-1.5-16.6,4.6s-2.5,24.9-9.6,27.3c-7.1,2.4-8.9,42.7-7.8,44.9
			c1.1,2.2,4.9,3.6,2.1,6.1s-11.7,2.9-14.9,16.6s-0.3,143.8-0.3,143.8s-1,6.1,11.4,9c12.4,2.9,63.7,4.6,70.4-4.7
			c0,0,3.9-2.6,3.9-9.5c0-6.8,0-136.7,0-136.7s-1.5-12.9-14.2-17.8c0,0-3.2-1,0.7-6.4c0,0-0.2-32.2-5.5-43.5
			C1073.4,681.9,1066.7,683.4,1062.9,656.9z"/>
		<path class="st20" d="M1020.8,727.9c0,0,27.8,8.8,59.1,0.4"/>
		<path class="st20" d="M1093.5,757.9c0,0,2.6,3.6-39,4.9c-41.6,1.3-47.8-4.1-47.2-6.1"/>
		<path class="st20" d="M1010.8,783.4c0,0,23.7,8.6,71.8,2.5v102.4c0,0-39.2,12.2-71.8-2.5V783.4z"/>
		<polygon class="st10" points="1013.5,810.5 1019.2,797.1 1025.1,797.2 1025,801.5 1022.4,801.5 1022.5,799.6 1020.8,799.7 
			1018.7,805 1019.9,805 1019,807.7 1017.5,807.6 1016.5,810.5 		"/>
		<polygon class="st21" points="1022.5,802.2 1022.4,805 1020.7,805 1020,807.6 1022.4,807.7 1022.3,810.2 1024.9,810.2 1025,807.4 
			1027.6,807.4 1027.6,805 1025,805 1025,802.2 		"/>
		<polygon class="st10" points="1027.1,796.8 1030.5,796.8 1032.8,800.9 1035.7,796.9 1038.6,796.9 1034.6,802.9 1039.1,809.9 
			1035.7,809.9 1032.9,805.4 1030,810.3 1026.6,810.3 1031.2,803.3 		"/>
		<path class="st10" d="M1048,800l1.8-1.8c0,0-4.2-5-9.6-0.1c-5.3,4.9,1.1,17.2,9.5,9.2l-1.7-2c0,0-3.2,3.2-5.9,0.1
			c-2.3-2.7,0.4-6.3,2.2-6.5C1046.6,798.6,1047,799,1048,800z"/>
		<polygon class="st10" points="1060.7,795.6 1051.5,796 1051.3,808.8 1060.5,808.6 1060.5,806 1053.8,806.2 1053.9,803.6 
			1059.7,803.5 1059.7,800.9 1053.9,800.9 1054,798.3 1060.6,798.1 		"/>
		<polygon class="st10" points="1062.2,795.6 1062.1,808.6 1071.1,808.3 1071.2,805.6 1064.7,805.6 1064.9,795.6 		"/>
		
			<rect x="1072.8" y="797.8" transform="matrix(1.293470e-02 -0.9999 0.9999 1.293470e-02 259.8596 1864.2694)" class="st10" width="2.8" height="5.5"/>
		<polygon class="st10" points="1013.1,813.6 1012.9,827 1022.2,826.7 1022.2,824 1015.8,824.1 1016,813.7 		"/>
		
			<rect x="1018.4" y="818.6" transform="matrix(1.293470e-02 -0.9999 0.9999 1.293470e-02 191.7608 1834.3669)" class="st10" width="13.2" height="3"/>
		<path class="st10" d="M1037.9,816.4l1.7-2.1c0,0-6.4-4.8-10.5,1.3c-4.3,6.5,3.7,15.3,10.6,8.6l0.1-6.1l-5.4-0.1l0,2.7l2.8,0l0,1.8
			c0,0-5.2,3.2-6.2-2.3C1030.2,815.8,1035.6,814.1,1037.9,816.4z"/>
		<polygon class="st10" points="1041.7,812.5 1041.6,825.5 1044.6,825.5 1044.6,820.2 1049.6,820.2 1049.5,825.6 1052.4,825.6 
			1052.5,812.1 1049.7,812.1 1049.6,817.1 1044.6,817 1044.7,812 1041.7,812 		"/>
		<polygon class="st10" points="1053.4,812.1 1053.4,814.6 1057.3,814.7 1057.1,825 1060.3,825.1 1060.4,814.7 1064,814.8 
			1064.1,812.2 		"/>
		<path class="st20" d="M1082.6,836.7c0,0-27.9-9.7-31,20c-2.2,21.4,22.8,29.8,31,20.3"/>
		<ellipse class="st22" cx="1074.1" cy="857.9" rx="6.4" ry="7"/>
		<path class="st20" d="M1082.6,845.7c0,0-10.9-11.6-21.2,4.3s11.4,32.6,21.2,19.1"/>
		<circle class="st20" cx="1060.1" cy="839" r="2.7"/>
		<circle class="st20" cx="1061.4" cy="877.5" r="2.7"/>
		<circle class="st22" cx="1074.4" cy="834.8" r="2.3"/>
		<circle class="st22" cx="1052.5" cy="852.3" r="2.3"/>
		<circle class="st22" cx="1063.7" cy="847.6" r="2.3"/>
		<circle class="st22" cx="1052.5" cy="866.1" r="2.3"/>
		<circle class="st22" cx="1074.1" cy="881.1" r="2.3"/>
		<path class="st23" d="M1022.9,734c0,0,20.5,11.9,56.4,0.7"/>
		<g>
			
				<rect x="1017.5" y="772.9" transform="matrix(4.219331e-02 -0.9991 0.9991 4.219331e-02 205.5085 1762.0887)" class="st8" width="8.5" height="1.9"/>
			
				<rect x="1035.6" y="773" transform="matrix(4.219331e-02 -0.9991 0.9991 4.219331e-02 222.7641 1780.2246)" class="st8" width="8.5" height="1.9"/>
			
				<rect x="1049.9" y="773.1" transform="matrix(4.219331e-02 -0.9991 0.9991 4.219331e-02 236.31 1794.5767)" class="st8" width="8.5" height="1.9"/>
			<path class="st8" d="M1027.5,769.5l-3.9,3.6c0,0-0.8,0.9-0.1,1.5s4.3,3.7,4.3,3.7l2.4,0.1l-4.9-4.1c0,0-1-0.5-0.1-1.3
				s0.8-0.8,0.8-0.8l3.6-2.7L1027.5,769.5z"/>
			<path class="st8" d="M1031,769.6l1.7,0.1l-0.3,6.6c0,0,0,0.7,0.6,0.7c0.8,0,5.1,0.2,5.1,0.2l0,1.1l-6.7-0.3c0,0-0.8,0-0.7-1.2
				C1030.7,775.4,1031,769.6,1031,769.6z"/>
			<path class="st8" d="M1042.1,778.1l1.9,0.1l0.3-6.2c0,0,0-0.9,0.7,0c0.7,0.9,0.7,0.9,0.7,0.9l0,0l3.1,4.9c0,0,0.3,0.6,1.2,0.6
				s1.4-0.4,1.4-1c0-0.6,0.3-7.8,0.3-7.8l-1.7-0.1l-0.3,6c0,0,0.1,1.1-0.7-0.1c-0.8-1.2-3.7-5.6-3.7-5.6s-0.2-0.5-1.3-0.5
				c-1,0-1.5,0.3-1.5,0.8c0,0.5,0,0.5,0,0.5L1042.1,778.1z"/>
			<polygon class="st8" points="1064.4,769.9 1062.4,769.8 1055.7,778 1057.7,778.1 			"/>
			<polygon class="st8" points="1055.7,769.9 1057.7,769.8 1064.4,778 1062.3,778.1 			"/>
		</g>
	</g>
	<g>
		<path class="st7" d="M1113.1,521.8c0,0-0.3-6.6,10.1-6.8s217.1-2.8,217.1-2.8l55.8,17l-1.5,378.2c0,0-1,7.4-7.9,8.6
			s-236.1,15.5-236.1,15.5l-37.5-24.9L1113.1,521.8z"/>
		<path class="st1" d="M1116.6,520.3c0,0,17-4.8,37.3,9.6L1116.6,520.3z"/>
		<polyline class="st1" points="1150.6,931.4 1153.9,529.9 1396.1,529.1 		"/>
		<polyline class="st1" points="1396.1,546.9 1341.4,546.9 1341.4,560.8 1396.1,560.8 		"/>
		<line class="st1" x1="1354" y1="560.8" x2="1354" y2="546.9"/>
		<line class="st1" x1="1350.7" y1="529.3" x2="1350.7" y2="546.9"/>
		<line class="st1" x1="1350.7" y1="560.8" x2="1346.7" y2="918.9"/>
		<rect x="1176" y="549.2" class="st1" width="4.3" height="23.1"/>
		<path class="st1" d="M1193.3,548.7l-10.5,10.3c0,0-1.8,1.8,0.3,4.1c2.1,2.2,10.7,9.3,10.7,9.3h5.8l-12.4-11c0,0-1.3-1.5-0.1-2.4
			s11.4-10.1,11.4-10.1H1193.3z"/>
		<path class="st1" d="M1201.2,548.7h4.8v20h14.6v3.3h-17.4c0,0-2.2,0.3-2.2-2.9C1201.1,566.5,1201.2,548.7,1201.2,548.7z"/>
		<rect x="1222.1" y="548.7" class="st1" width="5" height="23.3"/>
		<path class="st1" d="M1231,571.7v-20.1c0-1,0.3-2.1,0.9-2.9c0.6-0.8,1.5-1.5,2.9-1.4c1.2,0,2.4,0.8,3.1,1.8l12,17.5
			c0,0,1.2,0.8,1.2-0.2c0-1,0-18.6,0-18.6h4.4v20.3c0,3.2-3.4,5.4-6.2,4c-0.1-0.1-0.3-0.2-0.4-0.2c-0.8-0.5-1.4-1.2-1.9-1.9
			l-10.5-15.5c0,0-1.1-1.4-1.3,0.1l0.1,17.2H1231z"/>
		<rect x="1258.5" y="547.3" class="st1" width="5.2" height="24.8"/>
		<polygon class="st1" points="1265.3,547.3 1270.3,547.3 1276.4,556.5 1283.5,547.3 1288.8,547.3 1279.9,559.7 1289.9,572.1 
			1283.7,572.1 1276.6,562.5 1271.2,572.1 1265.3,572.1 1273.4,559.7 		"/>
		<path class="st1" d="M1176.2,627.5V619h20c0,0,8.3,2,8.3,13.4s-10.7,12.6-10.7,12.6v-7.8c0,0,2.4-0.9,2.9-5.6c0.5-4.6-5-5.7-5-5.7
			h-7.9v2.4h-7.6V627.5z"/>
		<polygon class="st8" points="1176.2,630 1183.9,630 1183.9,637.9 1191.8,637.9 1191.8,645.8 1184,645.8 1184,654.7 1176.2,654.7 
			1176.2,645.9 1168.2,645.9 1168.2,638.2 1176.2,638.2 		"/>
		<path class="st1" d="M1207.3,656V619h21.6c0,0,7,2.8,7,11.9s-7.7,11.4-7.7,11.4l8.9,13.6h-8.8l-7.7-12.4l-5.6,0.1V656H1207.3z"/>
		<path class="st1" d="M1214.6,625.7v11.1h9.8c0,0,4.5-0.5,4.5-5.5c0-5-4.7-5.5-4.7-5.5H1214.6z"/>
		<ellipse class="st1" cx="1255.8" cy="636" rx="10.5" ry="12.2"/>
		<ellipse class="st1" cx="1255.8" cy="636" rx="17.4" ry="20.2"/>
		<rect x="1278" y="634.1" class="st1" width="15.1" height="7.7"/>
		<path class="st1" d="M1177.1,663.6v18.3l3.7,3.6c0,0,6.8-6.5,12.2,1.4c0,0,1.8,3.9-1.5,6.2c-3.3,2.3-8.9,2.5-12.5-2.8l-5,6.3
			c0,0,8.2,11.2,21.4,2.4c13.2-8.8,1.3-27.8-11.2-21.6l-1.2,0.6v-7.5h15.9v-6.8H1177.1z"/>
		<polygon class="st1" points="1199.3,700.8 1217,662.7 1218.2,662.7 1235.4,700.8 1225.3,700.8 1218.4,684 1216.2,684 
			1209.4,700.8 		"/>
		<polygon class="st1" points="1217.4,689.6 1213.7,696.7 1220.9,696.7 		"/>
		<polygon class="st1" points="1186.4,714 1176.6,714 1176.6,729.2 1178.5,729.2 1178.5,722.9 1185.6,722.9 1185.6,721 1178.5,721 
			1178.5,715.9 1186.4,715.9 		"/>
		<ellipse class="st1" cx="1195.7" cy="721.4" rx="4.5" ry="5"/>
		<ellipse class="st1" cx="1195.7" cy="721.4" rx="7.2" ry="7.9"/>
		<path class="st1" d="M1204.8,728.6v-15.2h8.1c0,0,3.4,0.6,3.4,4.8c0,4.2-3.7,4.7-3.7,4.7l3.7,5.7h-2.3l-3.4-5.3h-3.8v5.3H1204.8z"
			/>
		<path class="st1" d="M1206.7,715.8v5.2h4.9c0,0,2,0.1,2-2.6s-2.1-2.6-2.1-2.6H1206.7z"/>
		<path class="st1" d="M1222.4,713.5v14.8h7.3c0,0,5.2-1.3,5.2-7.9s-4.6-7-4.6-7H1222.4z"/>
		<path class="st1" d="M1224.8,715.4V726h5c0,0,2.7-0.4,2.7-5.3s-2.8-5.3-2.8-5.3H1224.8z"/>
		<ellipse class="st1" cx="1243.8" cy="719.8" rx="4.4" ry="5.4"/>
		<ellipse class="st1" cx="1243.8" cy="719.8" rx="6.6" ry="8"/>
		<path class="st1" d="M1262.7,715.1l1.6-0.8c0,0-4.1-6.5-9.6-0.8c-5.6,5.7-0.4,18.1,9.6,11.6v-6.9h-5.7v2.3h3.7v2.8
			c0,0-4.8,3.7-7-1.6C1252.8,715.9,1258.5,710.8,1262.7,715.1z"/>
		<path class="st1" d="M1274.4,714.3l1.2-0.8c0,0-1.4-3.7-6-2.3s-4.9,7.6,0.4,8.8c5.3,1.2,4.6,4.4,1.5,4.6c-3,0.2-2.5-1.7-2.5-1.7
			h-2.5c0,0-0.8,4.2,5.9,4.1c6.7-0.1,4.9-8.3,1.3-9c-3.6-0.6-5.6-1.1-4.2-3.4C1270.8,712.5,1272.1,712.8,1274.4,714.3z"/>
		<path class="st1" d="M1176.2,766.5l109.4-3.7L1176.2,766.5z"/>
		<polyline class="st1" points="1353.1,724.8 1365,730.3 1377.7,744 1388.9,757.4 1395.2,765.2 1395.2,789 1373.1,794.1 1348,811.3 
			1372.6,821.7 1394.8,822.8 1394.8,842.3 1376.4,855.6 1373.5,869.3 1373.1,879.1 1364.9,871.9 1361.6,864.9 1352.7,854.1 
			1347.5,853.1 		"/>
		<polyline class="st1" points="1392.6,843.8 1391.6,857 1376.4,855.6 1372.6,821.7 1375.1,793.6 1366.5,761.8 1360,745.9 
			1348.7,745.9 1365,730.3 		"/>
		<polyline class="st1" points="1373.1,879.1 1391.6,857 1394.8,867.1 		"/>
		<polyline class="st1" points="1357.9,878.5 1364.9,871.9 1373.5,869.3 1391.6,857 		"/>
		<polyline class="st1" points="1392.6,843.1 1372.6,821.7 1348.7,839.6 1352.7,854.1 1376.4,855.6 1347.5,838.9 		"/>
		<polyline class="st1" points="1395,820.1 1375.1,793.6 1350.7,775 1348.7,772.5 		"/>
		<polyline class="st1" points="1348,811.3 1350.7,775 1366.5,761.8 1388.9,757.4 1395.2,752.7 		"/>
		<polyline class="st1" points="1348.5,758.8 1360,745.9 1365,730.3 1371.8,726.5 1384.3,721.8 1390.4,726.5 1395.2,731.2 		"/>
		<polyline class="st1" points="1350.7,775 1360,745.9 1376.4,742.6 		"/>
		<polyline class="st1" points="1366.5,761.8 1376.4,742.6 1387,738 1395.2,744.9 		"/>
		<polyline class="st1" points="1348.7,739.1 1357.5,726.8 1366.5,719.2 1367.6,713.8 1364.7,712.8 1361.9,710.7 		"/>
		<line class="st1" x1="1350.7" y1="728.6" x2="1357.5" y2="726.8"/>
		<line class="st1" x1="1365" y1="730.3" x2="1366.5" y2="719.2"/>
		<polyline class="st1" points="1376.4,742.6 1371.8,726.5 1387,738 1384.3,721.8 1379.4,710.7 1371.8,726.5 		"/>
		<polyline class="st1" points="1366.7,718.2 1371.8,726.5 1373.1,711.9 1373.4,705.2 		"/>
		<polyline class="st1" points="1395.2,737.1 1391.7,727.7 1387,738 1388.9,757.4 1395.2,781.1 		"/>
		<polyline class="st1" points="1384.3,721.8 1384.3,709.6 1379.4,710.7 1376.4,699.7 1382.4,704.6 1382.4,698.8 		"/>
		<polyline class="st1" points="1382.4,704.6 1384.3,709.6 1392.6,721.8 1395.2,720.2 1389.4,709.2 1384.6,701.9 1375.5,688.9 		"/>
		<polyline class="st1" points="1353.1,724.8 1358.1,721.8 1367.6,713.8 1371,708.7 1375.5,702.3 1376.4,699.7 1376.4,695.7 
			1375.5,688.9 1348.8,731.7 1347.2,874.6 1354.7,878.1 1362.8,879.1 1373.1,879.1 1383.1,879.1 1391.7,875.1 1394.8,871.9 		"/>
		<polyline class="st1" points="1376.4,699.7 1366.5,703.3 1367.6,713.8 		"/>
		<line class="st1" x1="1391.7" y1="727.7" x2="1392.6" y2="721.8"/>
		<polyline class="st1" points="1359.7,876.7 1354.4,872.2 1352.7,854.1 1346.7,863.9 1354.4,872.2 		"/>
		<line class="st1" x1="1391.7" y1="875.1" x2="1380.4" y2="870.5"/>
		<polyline class="st1" points="1351.8,876.7 1354.4,872.2 1361.6,864.9 1373.5,869.3 1352.7,854.1 		"/>
		<line class="st1" x1="1347.5" y1="870.5" x2="1356.3" y2="878.3"/>
		<polyline class="st1" points="1373.5,869.3 1381.3,869.3 1394.8,870.5 		"/>
	</g>
	<g>
		<g>
			<path class="st24" d="M749.6,780.4c0,0,0.1,2.3,2,3.6c2,1.2-2,4.4-2,4.4s-10.5,6.9-10.8,23c-0.3,16.1,1.5,81,1.5,81
				s1.5,15.1,14.9,17.4c13.3,2.2,46.5,9.2,90.4-2.2c0,0,10.7-1.2,10.7-14.3c0-13.1,0-81.8,0-81.8s2-14.9-10.7-23.5
				c0,0-5.6-1.9-1-5.4l6-2.6l-31.9-9.3l-53.6,4.5l-12.2,2.7l-2.8,1.7L749.6,780.4z"/>
			<path class="st24" d="M848.4,780.5c5.6-1.3,6.4-2.5,6.4-2.5s0-30.4,0-37.9c0-7.4-8.9-8.5-8.9-8.5c-51.5-9.9-94.9-2.2-100.3,0
				c-5.4,2.2-5.2,7.7-5.2,7.7v37.1c0,0,1.1,2,9.3,3.9"/>
			<path class="st25" d="M739,808.2c0,0,6,10.5,58.5,10.5c53,0,58.7-7.2,58.7-7.2l0.1,84c0,0-7.7,9.7-64.5,7.9
				c-56.7-1.7-51.5-11.9-51.5-11.9L739,808.2z"/>
			
				<rect x="774.3" y="828.3" transform="matrix(4.219371e-02 -0.9991 0.9991 4.219371e-02 -83.0853 1571.5525)" class="st26" width="7.6" height="1.7"/>
			
				<rect x="790.4" y="828.3" transform="matrix(4.219371e-02 -0.9991 0.9991 4.219371e-02 -67.771 1587.6163)" class="st26" width="7.6" height="1.7"/>
			
				<rect x="803" y="828.5" transform="matrix(4.219371e-02 -0.9991 0.9991 4.219371e-02 -55.7783 1600.4241)" class="st26" width="7.6" height="1.7"/>
			<path class="st27" d="M783.2,825.2l-3.5,3.2c0,0-0.7,0.8-0.1,1.3c0.6,0.5,3.8,3.3,3.8,3.3l2.1,0.1l-4.4-3.6c0,0-0.9-0.4-0.1-1.2
				s0.7-0.7,0.7-0.7l3.2-2.4H783.2z"/>
			<path class="st27" d="M786.2,825.4l1.5,0.1l-0.3,5.9c0,0,0,0.6,0.5,0.6c0.7,0,4.5,0.2,4.5,0.2v1l-6-0.3c0,0-0.7,0-0.6-1.1
				C786.1,830.5,786.2,825.4,786.2,825.4z"/>
			<path class="st27" d="M796.1,832.8l1.7,0.1l0.3-5.5c0,0,0-0.8,0.6,0c0.6,0.8,0.6,0.8,0.6,0.8l0,0l2.8,4.4c0,0,0.3,0.5,1.1,0.5
				s1.2-0.4,1.2-0.9c0-0.5,0.3-6.9,0.3-6.9l-1.5-0.1l-0.3,5.3c0,0,0.1,1-0.6-0.1c-0.7-1.1-3.3-5-3.3-5s-0.2-0.4-1.2-0.4
				c-0.9,0-1.3,0.3-1.3,0.7s0,0.4,0,0.4L796.1,832.8z"/>
			<polygon class="st27" points="808.4,825.5 810.2,825.5 815.9,832.9 814,832.9 			"/>
			<polygon class="st27" points="816.1,825.5 814.2,825.5 808.2,832.8 810.1,832.8 			"/>
			<polygon class="st28" points="757.5,846.2 757.2,848.5 754.7,848.2 754.5,850.3 757,850.5 756.9,852.6 758.8,852.7 759,850.4 
				761.1,850.7 761.3,848.9 759.2,848.7 759.3,846.4 			"/>
			
				<rect x="755.5" y="854.9" transform="matrix(8.752465e-02 -0.9962 0.9962 8.752465e-02 -161.184 1536.1476)" class="st29" width="4.9" height="2.2"/>
			<polygon class="st30" points="759.9,851.5 759.7,853.2 763.2,859.1 765.1,859.2 765.9,849.4 764,849.2 763.5,855.3 761,851.5 			
				"/>
			<polygon class="st30" points="774.4,849.7 767.6,849.5 766.8,858.9 773.8,859.4 774,857.5 768.9,857.1 769.1,855.2 773.4,855.4 
				773.5,853.5 769.2,853.2 769.4,851.4 774.3,851.5 			"/>
			<path class="st30" d="M775.5,849.8l2.1,0.2l-0.4,6.4c0,0,0.1,1.2,1.6,1.4c1.5,0.1,1.9-0.7,2-1.1c0.2-0.4,0.5-6.6,0.5-6.6l2,0.2
				l-0.5,6.5c0,0-0.3,3.3-3.9,3c-3.6-0.4-3.9-2.8-3.8-3.3C775,855.9,775.5,849.8,775.5,849.8z"/>
			<path class="st30" d="M789.9,856.2c0.4-0.1,1.7-0.3,2-3.1c0.3-2.8-2.7-2.8-3.2-2.9c-0.4,0.1-3.9-0.1-3.9-0.1l-0.8,9.6l2,0.2
				l0.3-3l0.1-0.3l1.4,0.1l1.6,3.1l2.3,0.2l-1.9-3.5C789.7,856.4,789.5,856.3,789.9,856.2z M788.6,854.9l-2.3-0.2l0.3-2.7l2.2,0.2
				c0,0,1.2,0,1.1,1.4S788.6,854.9,788.6,854.9z"/>
			<path class="st30" d="M798,850.5c0,0-3.8-0.7-5.2,3.5c-1.3,4.1,2,6,3.1,6.2c1.2,0.3,4.6,0.7,5.8-3.7
				C803.1,851.8,799.1,850.5,798,850.5z M799.9,855.5c-0.3,3.1-2.8,2.8-2.8,2.8s-2.8,0.1-2.6-3.1c0.4-3.3,3.3-2.8,3.3-2.8
				S800.2,852.4,799.9,855.5z"/>
			
				<rect x="803.7" y="854" transform="matrix(8.752465e-02 -0.9962 0.9962 8.752465e-02 -118.3866 1582.4836)" class="st31" width="1.9" height="3.8"/>
			<path class="st30" d="M764.8,862.5c0,0-2.4-2.8-6.5-0.8c-4.1,2-3.1,7.6-0.1,8.8c2,0.9,4,0.7,6.3-0.8l0.4-4.1l-4-0.3l-0.1,1.8
				l1.7,0.1l-0.1,1.3c0,0-2.3,1.6-4-0.8c-1.7-2.4,0.4-5.1,3-4.7c0.9,0.1,2,1,2,1L764.8,862.5z"/>
			<polygon class="st30" points="773.6,861.6 766.6,861.4 765.8,870.9 772.7,871.2 772.9,869.4 767.8,869.1 768,867.1 772.5,867.3 
				772.7,865.4 768.3,865.2 768.4,863.3 773.4,863.4 			"/>
			<polygon class="st30" points="774,871.1 774.8,861.6 776.8,861.8 780.5,867.6 781,861.9 783,862 782.2,871.5 780.5,871.4 
				776.5,865.2 776.1,871.3 			"/>
			<polygon class="st30" points="784.7,861.9 786.7,862.1 785.8,871.5 783.8,871.4 			"/>
			<path class="st30" d="M794.6,865c0,0-3.2-2.6-4.8,0.8c-1.6,3.4,2.5,5.3,4.4,3.2l1.2,1.3c0,0-3,3.3-6.7,0.4
				c-3.2-2.6-0.2-12.3,7.1-7.2L794.6,865z"/>
			<path class="st30" d="M803.7,863.6l-1.1,1.4c0,0-2.4-2-3.3-0.7c-0.8,1.2,1.1,1.8,2.4,2.1c1.3,0.4,2.4,2,1.5,3.8
				c-0.9,1.9-3.8,2.8-6.9,0.1l1.2-1.4c0,0,2.3,2.2,3.5,0.8c1.1-1.2-1.1-1.8-1.5-1.9c-0.4-0.1-2.8-0.7-2.5-3.1c0.4-2.4,2.4-3,4.1-2.5
				C802.9,862.8,803.7,863.6,803.7,863.6z"/>
			<path class="st32" d="M842.6,780.8c0,0-35.7,3.7-89.9,0"/>
		</g>
		<path class="st25" d="M752.5,899.4v-58.9c0,0,46.9,9.4,91.8,1.7v58.1"/>
		<polygon class="st25" points="844.3,864.6 841.4,862.1 831.5,862.1 822.6,864.2 812.1,873.4 812.1,881.6 818.2,887.8 823.1,886.8 
			827.5,888.6 832.1,888.6 836.3,892.7 840.1,899.2 841.7,892.7 844.3,890.3 		"/>
		<polyline class="st25" points="823.1,886.8 822.6,864.2 829.6,879.2 831.5,888.6 836.2,883.4 842.4,875 844.3,873.2 		"/>
		<polyline class="st25" points="843.3,891.2 841.8,888.6 829.6,879.2 812.1,881.6 822.6,864.2 		"/>
		<polyline class="st25" points="844.3,886 841.8,888.6 836.3,892.7 841.7,892.7 		"/>
		<polyline class="st25" points="841.4,862.1 838.2,864.7 834.1,865.9 825.1,869.5 822.7,870.4 812.1,873.4 826.2,872 837.5,870 
			844.3,868 		"/>
		<polyline class="st25" points="827.5,888.6 829.6,879.2 837.5,870 834.1,865.9 831.5,862.1 844.3,867.1 		"/>
		<polyline class="st25" points="844.3,876 842,875.6 837.5,870 		"/>
		<line class="st25" x1="829.6" y1="879.2" x2="842" y2="875.6"/>
		<circle class="st33" cx="812.1" cy="881.4" r="0.8"/>
		<circle class="st33" cx="829.6" cy="879.2" r="0.8"/>
		<circle class="st33" cx="831.5" cy="888.6" r="0.8"/>
		<circle class="st33" cx="835.8" cy="892.7" r="0.8"/>
		<circle class="st33" cx="835.9" cy="892.7" r="0.8"/>
		<circle class="st33" cx="831.5" cy="862.1" r="0.8"/>
		<circle class="st33" cx="822.6" cy="864.2" r="0.8"/>
		<circle class="st33" cx="826.3" cy="872.1" r="0.8"/>
		<circle class="st33" cx="837.5" cy="870.4" r="0.8"/>
		<circle class="st33" cx="835.8" cy="883.8" r="0.8"/>
	</g>
	<polygon class="st1" points="1345.9,549.9 1345.9,552.4 1343.5,552.4 1343.5,555.2 1345.9,555.2 1345.9,557.9 1349,557.9 
		1349,555.1 1351.3,555.1 1351.3,552.2 1348.7,552.3 1348.7,549.9 	"/>
	<polygon class="st1" points="1169.7,193.6 1169.7,196.1 1167.3,196.1 1167.3,198.9 1169.7,198.9 1169.7,201.6 1172.7,201.6 
		1172.7,198.9 1175.1,198.8 1175.1,195.9 1172.5,196 1172.5,193.6 	"/>
	<polygon class="st1" points="1013.9,399.2 1013.9,401.7 1011.4,401.7 1011.4,404.5 1013.9,404.5 1013.9,407.2 1016.9,407.2 
		1016.9,404.5 1019.2,404.4 1019.2,401.5 1016.6,401.6 1016.6,399.2 	"/>
	<polygon class="st34" points="602.1,153.9 602.1,157.3 598.8,157.3 598.8,161.1 602.1,161.1 602.1,164.8 606.2,164.8 606.2,161.1 
		609.3,161 609.3,157 605.8,157.2 605.9,153.9 	"/>
	<polygon class="st1" points="335.4,324.8 335.4,327.4 333,327.4 333,330.2 335.4,330.2 335.4,332.9 338.4,332.9 338.4,330.1 
		340.7,330.1 340.7,327.2 338.1,327.3 338.2,324.8 	"/>
	<polygon class="st35" points="172.6,677.9 172.6,679.1 171.4,679.1 171.4,680.5 172.6,680.5 172.6,681.8 174,681.8 174,680.4 
		175.2,680.4 175.2,679 173.9,679 173.9,677.9 	"/>
	<polygon class="st36" points="649.1,748.1 649.1,749.6 647.7,749.6 647.7,751.3 649.1,751.3 649.1,752.9 650.9,752.9 650.9,751.2 
		652.2,751.2 652.2,749.5 650.7,749.6 650.7,748.1 	"/>
</g>
</svg>
